<svg width="24" height="24" viewBox="0 0 24 24" fill="none" xmlns="http://www.w3.org/2000/svg">
<path d="M2.3999 7.00802V6.24002C2.3999 4.11925 4.11913 2.40002 6.2399 2.40002H7.0079M16.9919 2.40002L17.7599 2.40002C19.8807 2.40002 21.5999 4.11925 21.5999 6.24002V7.00802M5.8559 18.912L3.1679 21.6M20.8319 21.6L18.1439 18.912M14.9999 12.6H8.9999M20.4479 12.768C20.4479 17.4337 16.6656 21.216 11.9999 21.216C7.3342 21.216 3.5519 17.4337 3.5519 12.768C3.5519 8.10232 7.3342 4.32002 11.9999 4.32002C16.6656 4.32002 20.4479 8.10232 20.4479 12.768Z" stroke="white" stroke-width="2" stroke-linecap="round"/>
</svg>
