<svg width="24" height="24" viewBox="0 0 24 24" fill="none" xmlns="http://www.w3.org/2000/svg">
<path d="M9.70691 11.8929C9.31639 11.5024 8.68322 11.5024 8.2927 11.8929C7.90217 12.2834 7.90217 12.9166 8.2927 13.3071L9.70691 11.8929ZM10.7998 14.4L10.0927 15.1071C10.4832 15.4977 11.1164 15.4977 11.5069 15.1071L10.7998 14.4ZM15.7069 10.9071C16.0974 10.5166 16.0974 9.88344 15.7069 9.49292C15.3164 9.10239 14.6832 9.10239 14.2927 9.49292L15.7069 10.9071ZM6.56291 19.6191C6.95344 19.2286 6.95344 18.5954 6.56291 18.2049C6.17239 17.8144 5.53922 17.8144 5.1487 18.2049L6.56291 19.6191ZM2.4607 20.8929C2.07017 21.2834 2.07017 21.9166 2.4607 22.3071C2.85122 22.6977 3.48439 22.6977 3.87491 22.3071L2.4607 20.8929ZM20.1247 22.3071C20.5152 22.6977 21.1484 22.6977 21.5389 22.3071C21.9294 21.9166 21.9294 21.2834 21.5389 20.8929L20.1247 22.3071ZM18.8509 18.2049C18.4604 17.8144 17.8272 17.8144 17.4367 18.2049C17.0462 18.5954 17.0462 19.2286 17.4367 19.6191L18.8509 18.2049ZM5.50691 3.10713C5.89744 2.71661 5.89744 2.08344 5.50691 1.69292C5.11639 1.30239 4.48322 1.30239 4.0927 1.69292L5.50691 3.10713ZM1.0927 4.69292C0.702174 5.08344 0.702174 5.71661 1.0927 6.10713C1.48322 6.49765 2.11639 6.49765 2.50691 6.10713L1.0927 4.69292ZM21.4927 6.10713C21.8832 6.49765 22.5164 6.49765 22.9069 6.10713C23.2974 5.71661 23.2974 5.08344 22.9069 4.69292L21.4927 6.10713ZM19.9069 1.69292C19.5164 1.30239 18.8832 1.30239 18.4927 1.69292C18.1022 2.08344 18.1022 2.71661 18.4927 3.10713L19.9069 1.69292ZM8.2927 13.3071L10.0927 15.1071L11.5069 13.6929L9.70691 11.8929L8.2927 13.3071ZM11.5069 15.1071L15.7069 10.9071L14.2927 9.49292L10.0927 13.6929L11.5069 15.1071ZM5.1487 18.2049L2.4607 20.8929L3.87491 22.3071L6.56291 19.6191L5.1487 18.2049ZM21.5389 20.8929L18.8509 18.2049L17.4367 19.6191L20.1247 22.3071L21.5389 20.8929ZM19.4478 12.768C19.4478 16.8814 16.1132 20.216 11.9998 20.216V22.216C17.2178 22.216 21.4478 17.986 21.4478 12.768H19.4478ZM11.9998 20.216C7.88639 20.216 4.55181 16.8814 4.55181 12.768H2.55181C2.55181 17.986 6.78182 22.216 11.9998 22.216V20.216ZM4.55181 12.768C4.55181 8.65461 7.88639 5.32002 11.9998 5.32002V3.32002C6.78182 3.32002 2.55181 7.55004 2.55181 12.768H4.55181ZM11.9998 5.32002C16.1132 5.32002 19.4478 8.65461 19.4478 12.768H21.4478C21.4478 7.55004 17.2178 3.32002 11.9998 3.32002V5.32002ZM4.0927 1.69292L1.0927 4.69292L2.50691 6.10713L5.50691 3.10713L4.0927 1.69292ZM22.9069 4.69292L19.9069 1.69292L18.4927 3.10713L21.4927 6.10713L22.9069 4.69292Z" fill="white"/>
</svg>
