<svg width="24" height="24" viewBox="0 0 24 24" fill="none" xmlns="http://www.w3.org/2000/svg">
<path d="M2.3999 7.00802V6.24002C2.3999 5.37539 2.68567 4.5775 3.1679 3.93565M16.9919 2.40002L17.7599 2.40002C19.8807 2.40002 21.5999 4.11925 21.5999 6.24002V7.00802M5.8559 18.912L3.1679 21.6M20.8319 21.6L3.5519 3.49771M9.5999 4.6658C10.3607 4.4408 11.1662 4.32002 11.9999 4.32002C16.6656 4.32002 20.4479 8.10232 20.4479 12.768C20.4479 14.105 20.1373 15.3694 19.5844 16.4931M17.7599 18.948C16.2509 20.3551 14.2259 21.216 11.9999 21.216C7.3342 21.216 3.5519 17.4337 3.5519 12.768C3.5519 10.542 4.41287 8.51705 5.81996 7.00802" stroke="white" stroke-width="2" stroke-linecap="round" stroke-linejoin="round"/>
</svg>
