<svg width="24" height="24" viewBox="0 0 24 24" fill="none" xmlns="http://www.w3.org/2000/svg">
<path d="M1.3999 7.00802C1.3999 7.56031 1.84762 8.00802 2.3999 8.00802C2.95219 8.00802 3.3999 7.56031 3.3999 7.00802H1.3999ZM7.0079 3.40002C7.56019 3.40002 8.0079 2.95231 8.0079 2.40002C8.0079 1.84774 7.56019 1.40002 7.0079 1.40002V3.40002ZM16.9919 1.40002C16.4396 1.40002 15.9919 1.84774 15.9919 2.40002C15.9919 2.95231 16.4396 3.40002 16.9919 3.40002V1.40002ZM17.7599 2.40002V1.40002V2.40002ZM21.5999 6.24002H20.5999H21.5999ZM20.5999 7.00802C20.5999 7.56031 21.0476 8.00802 21.5999 8.00802C22.1522 8.00802 22.5999 7.56031 22.5999 7.00802H20.5999ZM6.56301 19.6191C6.95353 19.2286 6.95353 18.5954 6.56301 18.2049C6.17248 17.8144 5.53932 17.8144 5.14879 18.2049L6.56301 19.6191ZM2.4608 20.8929C2.07027 21.2834 2.07027 21.9166 2.4608 22.3071C2.85132 22.6977 3.48448 22.6977 3.87501 22.3071L2.4608 20.8929ZM20.1248 22.3071C20.5153 22.6977 21.1485 22.6977 21.539 22.3071C21.9295 21.9166 21.9295 21.2834 21.539 20.8929L20.1248 22.3071ZM18.851 18.2049C18.4605 17.8144 17.8273 17.8144 17.4368 18.2049C17.0463 18.5954 17.0463 19.2286 17.4368 19.6191L18.851 18.2049ZM12.9999 9.60002C12.9999 9.04774 12.5522 8.60002 11.9999 8.60002C11.4476 8.60002 10.9999 9.04774 10.9999 9.60002H12.9999ZM10.9999 15.6C10.9999 16.1523 11.4476 16.6 11.9999 16.6C12.5522 16.6 12.9999 16.1523 12.9999 15.6H10.9999ZM14.9999 13.6C15.5522 13.6 15.9999 13.1523 15.9999 12.6C15.9999 12.0477 15.5522 11.6 14.9999 11.6V13.6ZM8.9999 11.6C8.44762 11.6 7.9999 12.0477 7.9999 12.6C7.9999 13.1523 8.44762 13.6 8.9999 13.6V11.6ZM3.3999 7.00802V6.24002H1.3999V7.00802H3.3999ZM6.2399 3.40002H7.0079V1.40002H6.2399V3.40002ZM3.3999 6.24002C3.3999 4.67154 4.67141 3.40002 6.2399 3.40002V1.40002C3.56684 1.40002 1.3999 3.56697 1.3999 6.24002H3.3999ZM16.9919 3.40002H17.7599V1.40002L16.9919 1.40002V3.40002ZM20.5999 6.24002V7.00802H22.5999V6.24002H20.5999ZM17.7599 3.40002C19.3284 3.40002 20.5999 4.67154 20.5999 6.24002H22.5999C22.5999 3.56697 20.433 1.40002 17.7599 1.40002V3.40002ZM5.14879 18.2049L2.4608 20.8929L3.87501 22.3071L6.56301 19.6191L5.14879 18.2049ZM21.539 20.8929L18.851 18.2049L17.4368 19.6191L20.1248 22.3071L21.539 20.8929ZM19.4479 12.768C19.4479 16.8814 16.1133 20.216 11.9999 20.216V22.216C17.2179 22.216 21.4479 17.986 21.4479 12.768H19.4479ZM11.9999 20.216C7.88648 20.216 4.5519 16.8814 4.5519 12.768H2.5519C2.5519 17.986 6.78192 22.216 11.9999 22.216V20.216ZM4.5519 12.768C4.5519 8.65461 7.88648 5.32002 11.9999 5.32002V3.32002C6.78192 3.32002 2.5519 7.55004 2.5519 12.768H4.5519ZM11.9999 5.32002C16.1133 5.32002 19.4479 8.65461 19.4479 12.768H21.4479C21.4479 7.55004 17.2179 3.32002 11.9999 3.32002V5.32002ZM10.9999 9.60002V12.6H12.9999V9.60002H10.9999ZM10.9999 12.6V15.6H12.9999V12.6H10.9999ZM14.9999 11.6H11.9999V13.6H14.9999V11.6ZM11.9999 11.6H8.9999V13.6H11.9999V11.6Z" fill="white"/>
</svg>
