<svg width="24" height="24" viewBox="0 0 24 24" fill="none" xmlns="http://www.w3.org/2000/svg">
<path d="M6.12605 9.91312L17.7185 9.91304C19.7764 9.91304 21.4446 8.23119 21.4446 6.15652C21.4446 4.08185 19.7764 2.4 17.7185 2.4L6.12605 2.40008M6.12605 9.91312C4.06815 9.91312 2.3999 8.23127 2.3999 6.1566C2.3999 4.08193 4.06815 2.40008 6.12605 2.40008M6.12605 9.91312C8.18394 9.91312 9.85219 8.23127 9.85219 6.1566C9.85219 4.08193 8.18394 2.40008 6.12605 2.40008M17.8738 14.087H6.12605C4.06816 14.087 2.3999 15.7688 2.3999 17.8435C2.3999 19.9181 4.06815 21.6 6.12605 21.6H17.8738M17.8738 14.087C19.9317 14.087 21.5999 15.7688 21.5999 17.8435C21.5999 19.9181 19.9316 21.6 17.8738 21.6M17.8738 14.087C15.8159 14.087 14.1476 15.7688 14.1476 17.8435C14.1476 19.9181 15.8159 21.6 17.8738 21.6" stroke="white" stroke-width="2"/>
</svg>
