<svg width="24" height="24" viewBox="0 0 24 24" fill="none" xmlns="http://www.w3.org/2000/svg">
<path d="M14.9435 21.088V3.912C14.9435 3.35972 14.4958 2.912 13.9435 2.912H9.88528C9.333 2.912 8.88528 3.35972 8.88528 3.912V21.088M14.9435 21.088L14.9419 10.7682C14.9418 10.2158 15.3896 9.768 15.9419 9.768H20C20.5523 9.768 21 10.2157 21 10.768V20.088C21 20.6403 20.5523 21.088 20 21.088H14.9435ZM14.9435 21.088H8.88528M8.88528 21.088V16.088C8.88528 15.5357 8.43757 15.088 7.88528 15.088H4C3.44771 15.088 3 15.5357 3 16.088V20.088C3 20.6403 3.44771 21.088 4 21.088H8.88528Z" stroke="white" stroke-width="2" stroke-linecap="round" stroke-linejoin="round"/>
</svg>
