<svg width="24" height="24" viewBox="0 0 24 24" fill="none" xmlns="http://www.w3.org/2000/svg">
<path d="M4.50975 9.78037C5.26973 7.22677 7.37459 5.25237 10.003 4.67854M9.47579 18.9638C7.09534 18.2553 5.2182 16.3782 4.50975 13.9977M18.6592 13.9977C17.9507 16.3782 16.0736 18.2553 13.6931 18.9638M13.166 4.67854C15.9726 5.29128 18.1822 7.50095 18.795 10.3075M10.3637 6.83933H13.0272C13.5176 6.83933 13.9151 6.44182 13.9151 5.95147V3.28789C13.9151 2.79753 13.5176 2.40002 13.0272 2.40002H10.3637C9.8733 2.40002 9.47579 2.79753 9.47579 3.28789V5.95147C9.47579 6.44182 9.8733 6.83933 10.3637 6.83933ZM10.3637 21.6H13.0272C13.5176 21.6 13.9151 21.2025 13.9151 20.7122V18.0486C13.9151 17.5582 13.5176 17.1607 13.0272 17.1607H10.3637C9.8733 17.1607 9.47579 17.5582 9.47579 18.0486V20.7122C9.47579 21.2025 9.8733 21.6 10.3637 21.6ZM16.1067 10.668V13.3316C16.1067 13.8219 16.5043 14.2194 16.9946 14.2194H19.6582C20.1485 14.2194 20.5461 13.8219 20.5461 13.3316V10.668C20.5461 10.1776 20.1485 9.78011 19.6582 9.78011H16.9946C16.5043 9.78011 16.1067 10.1776 16.1067 10.668ZM2.40039 10.668L2.40039 13.3316C2.40039 13.8219 2.7979 14.2194 3.28825 14.2194H5.95184C6.44219 14.2194 6.8397 13.8219 6.8397 13.3316L6.8397 10.668C6.8397 10.1776 6.44219 9.78011 5.95184 9.78011H3.28825C2.7979 9.78011 2.40039 10.1776 2.40039 10.668Z" stroke="white" stroke-width="2"/>
</svg>
