<svg width="24" height="24" viewBox="0 0 24 24" fill="none" xmlns="http://www.w3.org/2000/svg">
<path d="M8.3999 16.8H7.3999V17.8H8.3999V16.8ZM8.3999 7.20002V6.20002H7.3999V7.20002H8.3999ZM13.2599 15.8H8.3999V17.8H13.2599V15.8ZM9.3999 16.8V12H7.3999V16.8H9.3999ZM16.5999 14.4C16.5999 12.5463 15.1282 11 13.2599 11V13C13.9762 13 14.5999 13.6028 14.5999 14.4H16.5999ZM13.2599 17.8C15.1282 17.8 16.5999 16.2538 16.5999 14.4H14.5999C14.5999 15.1972 13.9762 15.8 13.2599 15.8V17.8ZM12.5399 11H8.3999V13H12.5399V11ZM9.3999 12V7.20002H7.3999V12H9.3999ZM12.5399 6.20002H8.3999V8.20002H12.5399V6.20002ZM15.8799 9.60002C15.8799 7.74627 14.4082 6.20002 12.5399 6.20002V8.20002C13.2562 8.20002 13.8799 8.80281 13.8799 9.60002H15.8799ZM12.5399 13C14.4082 13 15.8799 11.4538 15.8799 9.60002H13.8799C13.8799 10.3972 13.2562 11 12.5399 11V13ZM13.2599 11H8.3999V13H13.2599V11ZM4.7999 3.40002H19.1999V1.40002H4.7999V3.40002ZM20.5999 4.80002V19.2H22.5999V4.80002H20.5999ZM19.1999 20.6H4.7999V22.6H19.1999V20.6ZM3.3999 19.2V4.80002H1.3999V19.2H3.3999ZM4.7999 20.6C4.0267 20.6 3.3999 19.9732 3.3999 19.2H1.3999C1.3999 21.0778 2.92213 22.6 4.7999 22.6V20.6ZM20.5999 19.2C20.5999 19.9732 19.9731 20.6 19.1999 20.6V22.6C21.0777 22.6 22.5999 21.0778 22.5999 19.2H20.5999ZM19.1999 3.40002C19.9731 3.40002 20.5999 4.02683 20.5999 4.80002H22.5999C22.5999 2.92226 21.0777 1.40002 19.1999 1.40002V3.40002ZM4.7999 1.40002C2.92213 1.40002 1.3999 2.92226 1.3999 4.80002H3.3999C3.3999 4.02683 4.0267 3.40002 4.7999 3.40002V1.40002Z" fill="white"/>
</svg>
