<svg width="24" height="24" viewBox="0 0 24 24" fill="none" xmlns="http://www.w3.org/2000/svg">
<path d="M9.5603 12.1901L10.7226 13.3524C10.9206 13.5504 11.2416 13.5504 11.4395 13.3524L14.1227 10.6693M7.08901 20.2376H6.58208C5.18223 20.2376 4.04743 19.1028 4.04743 17.7029V12.6336C4.04743 11.8528 2.3999 11.493 2.3999 11.493C2.3999 11.493 4.04743 11.1923 4.04743 10.3524V6.29698C4.04743 4.89713 5.18223 3.76233 6.58208 3.76233H7.08901M16.9108 3.76233H17.4177C18.8176 3.76233 19.9524 4.89713 19.9524 6.29698V11.3663C19.9524 12.1471 21.5999 12.5069 21.5999 12.5069C21.5999 12.5069 19.9524 12.8076 19.9524 13.6475L19.9524 17.7029C19.9524 19.1028 18.8176 20.2376 17.4177 20.2376H16.9108" stroke="white" stroke-width="2" stroke-linecap="round" stroke-linejoin="round"/>
</svg>
