<svg width="24" height="24" viewBox="0 0 24 24" fill="none" xmlns="http://www.w3.org/2000/svg">
<path d="M3.3999 18.12V5.87998H1.3999V18.12H3.3999ZM4.7999 4.47998H19.1999V2.47998H4.7999V4.47998ZM20.5999 5.87998V18.12H22.5999V5.87998H20.5999ZM20.5999 18.12C20.5999 18.8932 19.9731 19.52 19.1999 19.52V21.52C21.0777 21.52 22.5999 19.9978 22.5999 18.12H20.5999ZM19.1999 4.47998C19.9731 4.47998 20.5999 5.10678 20.5999 5.87998H22.5999C22.5999 4.00221 21.0777 2.47998 19.1999 2.47998V4.47998ZM3.3999 5.87998C3.3999 5.10678 4.0267 4.47998 4.7999 4.47998V2.47998C2.92213 2.47998 1.3999 4.00221 1.3999 5.87998H3.3999ZM4.7999 19.52C4.0267 19.52 3.3999 18.8932 3.3999 18.12H1.3999C1.3999 19.9978 2.92213 21.52 4.7999 21.52V19.52ZM14.5999 12.0001C14.5999 13.436 13.4358 14.6001 11.9999 14.6001V16.6001C14.5404 16.6001 16.5999 14.5406 16.5999 12.0001H14.5999ZM11.9999 14.6001C10.564 14.6001 9.3999 13.436 9.3999 12.0001H7.3999C7.3999 14.5406 9.45939 16.6001 11.9999 16.6001V14.6001ZM9.3999 12.0001C9.3999 10.5642 10.564 9.4001 11.9999 9.4001V7.4001C9.45939 7.4001 7.3999 9.45959 7.3999 12.0001H9.3999ZM11.9999 9.4001C13.4358 9.4001 14.5999 10.5642 14.5999 12.0001H16.5999C16.5999 9.45959 14.5404 7.4001 11.9999 7.4001V9.4001ZM19.1999 19.52H4.7999V21.52H19.1999V19.52Z" fill="white"/>
</svg>
