<svg width="24" height="24" viewBox="0 0 24 24" fill="none" xmlns="http://www.w3.org/2000/svg">
<path d="M1.50075 15.66L0.500745 15.66L1.50075 15.66ZM1.50049 6.66014L2.50049 6.66011L1.50049 6.66014ZM11.7004 19.0601C12.2527 19.0601 12.7004 18.6124 12.7004 18.0601C12.7004 17.5078 12.2527 17.0601 11.7004 17.0601L11.7004 19.0601ZM3.9007 18.0599L3.90072 17.0599H3.90072L3.9007 18.0599ZM20.7 6.65891L19.7 6.65892V6.65893L20.7 6.65891ZM2.10003 7.45992C1.54774 7.45992 1.10003 7.90764 1.10003 8.45992C1.10003 9.01221 1.54774 9.45992 2.10003 9.45992V7.45992ZM20.1 9.45992C20.6523 9.45992 21.1 9.01221 21.1 8.45992C21.1 7.90764 20.6523 7.45992 20.1 7.45992V9.45992ZM15.2991 16.8599L14.592 16.1528C14.4044 16.3404 14.2991 16.5947 14.2991 16.8599H15.2991ZM19.6191 12.5399L20.3262 11.8328C19.9356 11.4423 19.3025 11.4423 18.912 11.8328L19.6191 12.5399ZM22.4991 15.4199L23.2062 16.127C23.3937 15.9395 23.4991 15.6851 23.4991 15.4199C23.4991 15.1547 23.3937 14.9004 23.2062 14.7128L22.4991 15.4199ZM18.1791 19.7399V20.7399C18.4443 20.7399 18.6986 20.6346 18.8862 20.447L18.1791 19.7399ZM15.2991 19.7399H14.2991C14.2991 20.2922 14.7468 20.7399 15.2991 20.7399V19.7399ZM3.90049 5.26007H18.2998V3.26007H3.90049V5.26007ZM2.50075 15.66L2.50049 6.66011L0.500488 6.66017L0.500745 15.66L2.50075 15.66ZM11.7004 17.0601L3.90072 17.0599L3.90068 19.0599L11.7004 19.0601L11.7004 17.0601ZM19.7 6.65893L19.7 9.06009L21.7 9.06005L21.7 6.65889L19.7 6.65893ZM3.90049 3.26007C2.02268 3.26007 0.500435 4.78236 0.500488 6.66017L2.50049 6.66011C2.50047 5.8869 3.12727 5.26007 3.90049 5.26007V3.26007ZM18.2998 5.26007C19.0738 5.26007 19.7 5.88635 19.7 6.65892L21.7 6.65891C21.7 4.78031 20.1769 3.26007 18.2998 3.26007V5.26007ZM0.500745 15.66C0.500799 17.5377 2.02298 19.0599 3.90068 19.0599L3.90072 17.0599C3.12755 17.0599 2.50077 16.4331 2.50075 15.66L0.500745 15.66ZM2.10003 9.45992H20.1V7.45992H2.10003V9.45992ZM16.0062 17.567L20.3262 13.247L18.912 11.8328L14.592 16.1528L16.0062 17.567ZM18.912 13.247L21.792 16.127L23.2062 14.7128L20.3262 11.8328L18.912 13.247ZM21.792 14.7128L17.472 19.0328L18.8862 20.447L23.2062 16.127L21.792 14.7128ZM18.1791 18.7399H15.2991V20.7399H18.1791V18.7399ZM16.2991 19.7399V16.8599H14.2991V19.7399H16.2991Z" fill="white"/>
</svg>
