<svg width="16" height="15" viewBox="0 0 16 15" fill="none" xmlns="http://www.w3.org/2000/svg">
<g filter="url(#filter0_d_1_14320)">
<path d="M3.99978 1.234C4.47978 1.054 5.42978 1.164 5.67978 1.704C5.92978 2.244 6.07978 2.944 6.08978 2.774C6.07065 2.25729 6.1143 1.74018 6.21978 1.234C6.33093 0.909811 6.5856 0.655145 6.90978 0.543996C7.2071 0.449967 7.52277 0.42938 7.82978 0.483996C8.1402 0.547894 8.41513 0.726423 8.59978 0.983996C8.83373 1.56713 8.96565 2.18615 8.98978 2.814C9.01466 2.27825 9.10534 1.7476 9.25978 1.234C9.42689 0.998545 9.67091 0.828786 9.94978 0.753996C10.2804 0.693551 10.6192 0.693551 10.9498 0.753996C11.2212 0.844054 11.4585 1.01505 11.6298 1.244C11.8422 1.77415 11.9704 2.33424 12.0098 2.904C12.0098 3.044 12.0798 2.514 12.2998 2.164C12.4765 1.63933 13.0451 1.35726 13.5698 1.534C14.0945 1.71073 14.3765 2.27933 14.1998 2.804C14.1998 3.454 14.1998 3.424 14.1998 3.864C14.1998 4.304 14.1998 4.694 14.1998 5.064C14.1638 5.64922 14.0835 6.23087 13.9598 6.804C13.7862 7.31131 13.544 7.79245 13.2398 8.234C12.7544 8.77405 12.3532 9.38425 12.0498 10.044C11.9758 10.372 11.9422 10.7078 11.9498 11.044C11.9488 11.3546 11.9891 11.664 12.0698 11.964C11.6609 12.0077 11.2486 12.0077 10.8398 11.964C10.4498 11.904 9.96978 11.124 9.83978 10.884C9.77546 10.7551 9.64381 10.6737 9.49978 10.6737C9.35575 10.6737 9.2241 10.7551 9.15978 10.884C8.93978 11.264 8.44978 11.954 8.15978 11.994C7.48978 12.074 6.09978 11.994 5.01978 11.994C5.01978 11.994 5.20978 10.994 4.78978 10.634C4.36978 10.274 3.95978 9.854 3.64978 9.574L2.81978 8.654C2.23447 8.11067 1.80616 7.41985 1.57978 6.654C1.36978 5.714 1.38978 5.264 1.57978 4.884C1.77357 4.5702 2.07617 4.3388 2.42978 4.234C2.72355 4.1807 3.02596 4.20132 3.30978 4.294C3.50605 4.37616 3.67567 4.51117 3.79978 4.684C4.02978 4.994 4.10978 5.144 4.00978 4.804C3.90978 4.464 3.68978 4.214 3.57978 3.804C3.36563 3.31979 3.23706 2.80213 3.19978 2.274C3.24076 1.80016 3.5716 1.40156 4.02978 1.274" fill="white"/>
<path fill-rule="evenodd" clip-rule="evenodd" d="M3.99978 1.234C4.47978 1.054 5.42978 1.164 5.67978 1.704C5.92978 2.244 6.07978 2.944 6.08978 2.774C6.07065 2.25729 6.1143 1.74018 6.21978 1.234C6.33093 0.909811 6.5856 0.655145 6.90978 0.543996C7.2071 0.449967 7.52277 0.42938 7.82978 0.483996C8.1402 0.547894 8.41513 0.726423 8.59978 0.983996C8.83373 1.56713 8.96565 2.18615 8.98978 2.814C9.01466 2.27825 9.10534 1.7476 9.25978 1.234C9.42689 0.998545 9.67091 0.828786 9.94978 0.753996C10.2804 0.693551 10.6192 0.693551 10.9498 0.753996C11.2212 0.844054 11.4585 1.01505 11.6298 1.244C11.8422 1.77415 11.9704 2.33424 12.0098 2.904C12.0098 3.044 12.0798 2.514 12.2998 2.164C12.4765 1.63933 13.0451 1.35726 13.5698 1.534C14.0945 1.71073 14.3765 2.27933 14.1998 2.804C14.1998 3.454 14.1998 3.424 14.1998 3.864C14.1998 4.304 14.1998 4.694 14.1998 5.064C14.1638 5.64922 14.0835 6.23087 13.9598 6.804C13.7862 7.31131 13.544 7.79245 13.2398 8.234C12.7544 8.77405 12.3532 9.38425 12.0498 10.044C11.9758 10.372 11.9422 10.7078 11.9498 11.044C11.9488 11.3546 11.9891 11.664 12.0698 11.964C11.6609 12.0077 11.2486 12.0077 10.8398 11.964C10.4498 11.904 9.96978 11.124 9.83978 10.884C9.77546 10.7551 9.64381 10.6737 9.49978 10.6737C9.35575 10.6737 9.2241 10.7551 9.15978 10.884C8.93978 11.264 8.44978 11.954 8.15978 11.994C7.48978 12.074 6.09978 11.994 5.01978 11.994C5.01978 11.994 5.20978 10.994 4.78978 10.634C4.36978 10.274 3.95978 9.854 3.64978 9.574L2.81978 8.654C2.23447 8.11067 1.80616 7.41985 1.57978 6.654C1.36978 5.714 1.38978 5.264 1.57978 4.884C1.77357 4.5702 2.07617 4.3388 2.42978 4.234C2.72355 4.1807 3.02596 4.20132 3.30978 4.294C3.50605 4.37616 3.67567 4.51117 3.79978 4.684C4.02978 4.994 4.10978 5.144 4.00978 4.804C3.90978 4.464 3.68978 4.214 3.57978 3.804C3.36563 3.31979 3.23706 2.80213 3.19978 2.274C3.22023 1.79323 3.54035 1.37708 3.99978 1.234Z" stroke="white" stroke-width="0.75" stroke-linejoin="round"/>
<path d="M11.75 8.90987V5.45809C11.75 5.25148 11.5821 5.08398 11.375 5.08398C11.1679 5.08398 11 5.25148 11 5.45809V8.90987C11 9.11649 11.1679 9.28398 11.375 9.28398C11.5821 9.28398 11.75 9.11649 11.75 8.90987Z" fill="white"/>
<path d="M9.76999 8.90861L9.74999 5.45506C9.7488 5.24893 9.57994 5.0828 9.37284 5.08399C9.16574 5.08518 8.99881 5.25324 9.00001 5.45936L9.02001 8.91291C9.0212 9.11903 9.19006 9.28517 9.39716 9.28398C9.60426 9.28279 9.77119 9.11473 9.76999 8.90861Z" fill="white"/>
<path d="M7.00001 5.46389L7.02001 8.90849C7.02122 9.11709 7.19009 9.2852 7.39719 9.28398C7.6043 9.28276 7.7712 9.11267 7.76999 8.90408L7.74999 5.45947C7.74878 5.25088 7.57991 5.08277 7.37281 5.08399C7.1657 5.08521 6.9988 5.2553 7.00001 5.46389Z" fill="white"/>
</g>
<defs>
<filter id="filter0_d_1_14320" x="0.254687" y="0.0791626" width="15.1728" height="14.1254" filterUnits="userSpaceOnUse" color-interpolation-filters="sRGB">
<feFlood flood-opacity="0" result="BackgroundImageFix"/>
<feColorMatrix in="SourceAlpha" type="matrix" values="0 0 0 0 0 0 0 0 0 0 0 0 0 0 0 0 0 0 127 0" result="hardAlpha"/>
<feOffset dy="1"/>
<feGaussianBlur stdDeviation="0.4"/>
<feColorMatrix type="matrix" values="0 0 0 0 0 0 0 0 0 0 0 0 0 0 0 0 0 0 0.5 0"/>
<feBlend mode="normal" in2="BackgroundImageFix" result="effect1_dropShadow_1_14320"/>
<feBlend mode="normal" in="SourceGraphic" in2="effect1_dropShadow_1_14320" result="shape"/>
</filter>
</defs>
</svg>
