<svg width="24" height="24" viewBox="0 0 24 24" fill="none" xmlns="http://www.w3.org/2000/svg">
<path d="M8.39187 10.9581L8.14292 11.9266C8.6268 12.051 9.12824 11.7992 9.31741 11.3368L8.39187 10.9581ZM3.91988 10.9687C4.13679 11.4766 4.72438 11.7125 5.23228 11.4955C5.74018 11.2786 5.97607 10.691 5.75915 10.1831L3.91988 10.9687ZM6.73626 5.85126L6.3435 4.93162L6.73626 5.85126ZM5.58097 5.69224C5.79788 6.20014 6.38547 6.43603 6.89337 6.21911C7.40127 6.00219 7.63716 5.41461 7.42024 4.90671L5.58097 5.69224ZM6.71327 3.25136C6.49635 2.74345 5.90877 2.50757 5.40086 2.72448C4.89296 2.9414 4.65707 3.52898 4.87399 4.03689L6.71327 3.25136ZM9.01645 4.88905C8.8107 5.40157 9.05938 5.98386 9.57191 6.18961C10.0844 6.39537 10.6667 6.14669 10.8725 5.63416L9.01645 4.88905ZM11.5431 3.96374C11.7488 3.45122 11.5001 2.86893 10.9876 2.66318C10.4751 2.45742 9.89281 2.7061 9.68706 3.21863L11.5431 3.96374ZM2.79406 6.16253C2.28153 5.95677 1.69925 6.20546 1.49349 6.71798C1.28773 7.23051 1.53642 7.81279 2.04894 8.01855L2.79406 6.16253ZM3.71936 8.68915C4.23188 8.89491 4.81417 8.64622 5.01992 8.1337C5.22568 7.62117 4.977 7.03889 4.46447 6.83313L3.71936 8.68915ZM10.065 7.40168C10.4388 7.80826 11.0714 7.83486 11.478 7.46108C11.8846 7.0873 11.9112 6.4547 11.5374 6.04811L10.065 7.40168ZM20.5999 13.5517C20.5999 16.7863 17.9779 19.4088 14.7428 19.4088V21.4088C19.0826 21.4088 22.5999 17.8907 22.5999 13.5517H20.5999ZM14.7428 7.69451C17.9779 7.69451 20.5999 10.317 20.5999 13.5517H22.5999C22.5999 9.21261 19.0826 5.69451 14.7428 5.69451V7.69451ZM9.31741 11.3368C10.1922 9.19848 12.2939 7.69451 14.7428 7.69451V5.69451C11.4541 5.69451 8.63797 7.71555 7.46632 10.5795L9.31741 11.3368ZM7.1999 11.8088C7.52869 11.8088 7.84415 11.8499 8.14292 11.9266L8.64082 9.98961C8.17887 9.87087 7.69611 9.8088 7.1999 9.8088V11.8088ZM3.3999 15.6088C3.3999 13.5099 5.10049 11.8088 7.1999 11.8088V9.8088C3.99574 9.8088 1.3999 12.4055 1.3999 15.6088H3.3999ZM7.1999 19.4088C5.10049 19.4088 3.3999 17.7077 3.3999 15.6088H1.3999C1.3999 18.8121 3.99574 21.4088 7.1999 21.4088V19.4088ZM14.7428 19.4088H7.1999V21.4088H14.7428V19.4088ZM5.75915 10.1831C5.19517 8.8626 5.80848 7.33488 7.12903 6.7709L6.3435 4.93162C4.00715 5.92944 2.92205 8.63232 3.91988 10.9687L5.75915 10.1831ZM7.42024 4.90671L6.71327 3.25136L4.87399 4.03689L5.58097 5.69224L7.42024 4.90671ZM10.8725 5.63416L11.5431 3.96374L9.68706 3.21863L9.01645 4.88905L10.8725 5.63416ZM2.04894 8.01855L3.71936 8.68915L4.46447 6.83313L2.79406 6.16253L2.04894 8.01855ZM7.12903 6.7709C8.16867 6.32688 9.33919 6.61213 10.065 7.40168L11.5374 6.04811C10.2559 4.65414 8.18685 4.14435 6.3435 4.93162L7.12903 6.7709Z" fill="white"/>
</svg>
