<svg width="24" height="24" viewBox="0 0 24 24" fill="none" xmlns="http://www.w3.org/2000/svg">
<path d="M7.85737 7.63639C8.63242 4.62508 11.366 2.40002 14.6192 2.40002C18.4752 2.40002 21.601 5.52589 21.601 9.38184C21.601 12.456 19.6142 15.0662 16.8545 15.9982M7.85737 17.1257H9.38123M9.38123 17.1257H10.7994M9.38123 17.1257V11.5621C9.38123 11.5621 8.31742 12.2934 7.63578 12.7621M16.363 14.6182C16.363 18.4742 13.2372 21.6 9.38123 21.6C5.52528 21.6 2.39941 18.4742 2.39941 14.6182C2.39941 10.7623 5.52528 7.63639 9.38123 7.63639C13.2372 7.63639 16.363 10.7623 16.363 14.6182Z" stroke="white" stroke-width="2" stroke-linecap="round" stroke-linejoin="round"/>
</svg>
