<svg width="24" height="24" viewBox="0 0 24 24" fill="none" xmlns="http://www.w3.org/2000/svg">
<path d="M15.5999 16.1088C15.0407 16.3651 14.4328 16.4978 13.8177 16.4978C13.2026 16.4978 12.5947 16.3651 12.0355 16.1088C11.451 15.907 10.8296 15.8344 10.2143 15.8959C9.59891 15.9575 9.00422 16.1517 8.47119 16.4653C8.85288 16.3332 9.18935 16.0957 9.44167 15.7803C9.69399 15.4649 9.85183 15.0845 9.89693 14.6831V9.33656C9.90069 8.71204 10.1094 8.10602 10.491 7.6116C10.8725 7.11718 11.4059 6.7617 12.009 6.59977C12.6122 6.43785 13.2519 6.47842 13.8298 6.71527C14.4076 6.95212 14.8918 7.37215 15.2078 7.91082M13.39 12.188H8.3999M21.5999 12C21.5999 17.302 17.3018 21.6 11.9999 21.6C6.69797 21.6 2.3999 17.302 2.3999 12C2.3999 6.69809 6.69797 2.40002 11.9999 2.40002C17.3018 2.40002 21.5999 6.69809 21.5999 12Z" stroke="white" stroke-width="2" stroke-linecap="round" stroke-linejoin="round"/>
</svg>
