<svg width="24" height="24" viewBox="0 0 24 24" fill="none" xmlns="http://www.w3.org/2000/svg">
<path d="M11.7011 6.19183V7.59283M11.7011 15.9988V17.3998M21.5999 12C21.5999 17.3019 17.3018 21.6 11.9999 21.6C6.69797 21.6 2.3999 17.3019 2.3999 12C2.3999 6.69806 6.69797 2.39999 11.9999 2.39999C17.3018 2.39999 21.5999 6.69806 21.5999 12ZM9.59962 7.59283H13.1021C13.6595 7.59283 14.194 7.81424 14.5881 8.20834C14.9822 8.60245 15.2036 9.13698 15.2036 9.69433V9.7945C15.2036 10.3253 14.9928 10.8343 14.6174 11.2097C14.2421 11.585 13.7331 11.7958 13.2023 11.7958H9.59962H13.1021C13.6595 11.7958 14.194 12.0172 14.5881 12.4113C14.9822 12.8054 15.2036 13.34 15.2036 13.8973V13.9975C15.2036 14.5283 14.9928 15.0373 14.6174 15.4127C14.2421 15.788 13.7331 15.9988 13.2023 15.9988H9.59962V7.59283Z" stroke="white" stroke-width="2" stroke-linecap="round" stroke-linejoin="round"/>
</svg>
