<svg width="24" height="24" viewBox="0 0 24 24" fill="none" xmlns="http://www.w3.org/2000/svg">
<path d="M14.9999 8.62331C14.4188 7.95911 13.6826 7.50983 12.8836 7.33181C12.0846 7.15379 11.2583 7.25495 10.5083 7.6226C9.75837 7.99026 9.11815 8.60805 8.66793 9.3985C8.21772 10.1889 7.97755 11.1169 7.97755 12.0659C7.97755 13.015 8.21772 13.9429 8.66793 14.7334C9.11815 15.5238 9.75837 16.1416 10.5083 16.5093C11.2583 16.8769 12.0846 16.9781 12.8836 16.8001C13.6826 16.622 14.4188 16.1728 14.9999 15.5086M12.1081 10.6889H6.5999M6.5999 13.443H12.1081M21.5999 12C21.5999 17.3019 17.3018 21.6 11.9999 21.6C6.69797 21.6 2.3999 17.3019 2.3999 12C2.3999 6.69807 6.69797 2.4 11.9999 2.4C17.3018 2.4 21.5999 6.69807 21.5999 12Z" stroke="white" stroke-width="2" stroke-linecap="round" stroke-linejoin="round"/>
</svg>
