<svg width="24" height="24" viewBox="0 0 24 24" fill="none" xmlns="http://www.w3.org/2000/svg">
<path d="M9.32717 16.8V7.20003H13.909C14.5166 7.20003 15.0993 7.41676 15.5289 7.80255C15.9585 8.18834 16.1999 8.71158 16.1999 9.25717C16.1999 9.80276 15.9585 10.326 15.5289 10.7118C15.0993 11.0976 14.5166 11.3143 13.909 11.3143H7.7999M13.909 14.0572H7.7999M21.5999 12C21.5999 17.302 17.3018 21.6 11.9999 21.6C6.69797 21.6 2.3999 17.302 2.3999 12C2.3999 6.69809 6.69797 2.40002 11.9999 2.40002C17.3018 2.40002 21.5999 6.69809 21.5999 12Z" stroke="white" stroke-width="2" stroke-linecap="round" stroke-linejoin="round"/>
</svg>
