<svg width="24" height="24" viewBox="0 0 24 24" fill="none" xmlns="http://www.w3.org/2000/svg">
<path d="M15 8.68898C14.1656 7.93466 13.0804 7.5177 11.9555 7.51919M11.9555 7.51919C11.3574 7.51959 10.7652 7.63779 10.2128 7.86705C9.66036 8.09631 9.1585 8.43213 8.73585 8.85534C8.3132 9.27855 7.97805 9.78087 7.74953 10.3336C7.52101 10.8863 7.4036 11.4787 7.404 12.0768C7.404 14.5941 9.44124 16.6344 11.9555 16.6344M11.9555 7.51919L11.9563 5.99999M11.9555 16.6344C13.0789 16.636 14.1628 16.2202 14.997 15.4676M11.9555 16.6344L11.9563 18.1536M21.5999 12C21.5999 17.3019 17.3018 21.6 11.9999 21.6C6.69797 21.6 2.3999 17.3019 2.3999 12C2.3999 6.69806 6.69797 2.39999 11.9999 2.39999C17.3018 2.39999 21.5999 6.69806 21.5999 12Z" stroke="white" stroke-width="2" stroke-linecap="round" stroke-linejoin="round"/>
</svg>
