<svg width="24" height="24" viewBox="0 0 24 24" fill="none" xmlns="http://www.w3.org/2000/svg">
<path d="M17.7604 12C17.7604 13.0604 18.62 13.92 19.6804 13.92C20.7408 13.92 21.6004 13.0604 21.6004 12C21.6004 10.9396 20.7408 10.08 19.6804 10.08C18.62 10.08 17.7604 10.9396 17.7604 12ZM17.7604 12H12.6004M17.7604 4.32002C17.7604 5.38041 18.62 6.24002 19.6804 6.24002C20.7408 6.24002 21.6004 5.38041 21.6004 4.32002C21.6004 3.25964 20.7408 2.40003 19.6804 2.40003C18.62 2.40003 17.7604 3.25964 17.7604 4.32002ZM17.7604 4.32002H6.5999M17.7604 19.68C17.7604 20.7404 18.62 21.6 19.6804 21.6C20.7408 21.6 21.6004 20.7404 21.6004 19.68C21.6004 18.6196 20.7408 17.76 19.6804 17.76C18.62 17.76 17.7604 18.6196 17.7604 19.68ZM17.7604 19.68H12.2404C11.7102 19.68 11.2804 19.2502 11.2804 18.72V5.28003M6.2399 4.32002C6.2399 5.38041 5.38029 6.24002 4.3199 6.24002C3.25952 6.24002 2.3999 5.38041 2.3999 4.32002C2.3999 3.25964 3.25952 2.40002 4.3199 2.40002C5.38029 2.40002 6.2399 3.25964 6.2399 4.32002Z" stroke="white" stroke-width="2" stroke-linecap="round"/>
</svg>
