<svg width="24" height="24" viewBox="0 0 24 24" fill="none" xmlns="http://www.w3.org/2000/svg">
<path d="M8.3999 15.6L15.5999 8.40002M8.9538 8.94937L8.93965 8.93507M15.0643 15.1227L15.0502 15.1084M7.92276 4.38735L6.90485 4.44934C5.58341 4.52982 4.5297 5.58354 4.44922 6.90498L4.38723 7.92288C4.35167 8.50679 4.12169 9.06199 3.73395 9.50002L3.05802 10.2636C2.18053 11.2549 2.18053 12.7451 3.05802 13.7364L3.73395 14.5C4.12169 14.9381 4.35167 15.4933 4.38723 16.0772L4.44922 17.0951C4.5297 18.4165 5.58342 19.4702 6.90485 19.5507L7.92276 19.6127C8.50667 19.6483 9.06187 19.8782 9.4999 20.266L10.2635 20.9419C11.2548 21.8194 12.745 21.8194 13.7363 20.9419L14.4999 20.266C14.9379 19.8782 15.4931 19.6483 16.077 19.6127L17.0949 19.5507C18.4164 19.4702 19.4701 18.4165 19.5506 17.0951L19.6126 16.0772C19.6481 15.4933 19.8781 14.9381 20.2658 14.5L20.9418 13.7364C21.8193 12.7451 21.8193 11.2549 20.9418 10.2636L20.2658 9.50002C19.8781 9.06199 19.6481 8.50679 19.6126 7.92288L19.5506 6.90498C19.4701 5.58354 18.4164 4.52982 17.0949 4.44934L16.077 4.38735C15.4931 4.35179 14.9379 4.12182 14.4999 3.73408L13.7363 3.05814C12.745 2.18065 11.2548 2.18065 10.2635 3.05814L9.4999 3.73408C9.06187 4.12182 8.50667 4.35179 7.92276 4.38735Z" stroke="white" stroke-width="2" stroke-linecap="round"/>
</svg>
