<svg width="24" height="24" viewBox="0 0 24 24" fill="none" xmlns="http://www.w3.org/2000/svg">
<path d="M8.3999 15.6L15.5999 8.40002M8.9538 8.94937L8.93965 8.93507M15.0643 15.1227L15.0502 15.1084M9.57586 4.04282L7.638 3.6182C7.32837 3.55035 7.01804 3.72953 6.92198 4.03159L6.32078 5.92214C6.26044 6.11189 6.11177 6.26056 5.92202 6.3209L4.03147 6.9221C3.72941 7.01816 3.55023 7.3285 3.61808 7.63812L4.0427 9.57598C4.08532 9.77048 4.0309 9.97357 3.89674 10.1207L2.56008 11.5866C2.34651 11.8208 2.34651 12.1792 2.56008 12.4134L3.89674 13.8793C4.0309 14.0265 4.08532 14.2296 4.0427 14.4241L3.61808 16.3619C3.55023 16.6715 3.72941 16.9819 4.03147 17.0779L5.92202 17.6791C6.11177 17.7395 6.26044 17.8882 6.32078 18.0779L6.92198 19.9685C7.01804 20.2705 7.32837 20.4497 7.638 20.3818L9.57586 19.9572C9.77036 19.9146 9.97345 19.969 10.1206 20.1032L11.5865 21.4398C11.8207 21.6534 12.1791 21.6534 12.4133 21.4398L13.8792 20.1032C14.0264 19.969 14.2294 19.9146 14.4239 19.9572L16.3618 20.3818C16.6714 20.4497 16.9818 20.2705 17.0778 19.9685L17.679 18.0779C17.7394 17.8881 17.888 17.7395 18.0778 17.6791L19.9683 17.0779C20.2704 16.9819 20.4496 16.6715 20.3817 16.3619L19.9571 14.4241C19.9145 14.2296 19.9689 14.0265 20.1031 13.8793L21.4397 12.4134C21.6533 12.1792 21.6533 11.8208 21.4397 11.5866L20.1031 10.1207C19.9689 9.97357 19.9145 9.77048 19.9571 9.57598L20.3817 7.63812C20.4496 7.3285 20.2704 7.01816 19.9683 6.9221L18.0778 6.3209C17.888 6.26056 17.7394 6.11189 17.679 5.92214L17.0778 4.03159C16.9818 3.72953 16.6714 3.55035 16.3618 3.6182L14.4239 4.04282C14.2294 4.08544 14.0264 4.03102 13.8792 3.89687L12.4133 2.5602C12.1791 2.34663 11.8207 2.34663 11.5865 2.5602L10.1206 3.89687C9.97345 4.03102 9.77036 4.08544 9.57586 4.04282Z" stroke="white" stroke-width="2" stroke-linecap="round"/>
</svg>
