<svg width="24" height="24" viewBox="0 0 24 24" fill="none" xmlns="http://www.w3.org/2000/svg">
<path d="M8.40022 15.6002L15.6002 8.40016M8.95412 8.9495L8.93997 8.93521M15.0646 15.1228L15.0505 15.1086M11.4991 3.63818L9.57469 2.57304C9.15197 2.33907 8.62758 2.52444 8.42842 2.97826L7.52176 5.04422C7.40376 5.31309 7.16256 5.50076 6.88181 5.54213L4.7246 5.86005C4.25074 5.92988 3.93098 6.4013 4.02564 6.89052L4.45655 9.11768C4.51264 9.40753 4.42327 9.70721 4.21946 9.91278L2.65342 11.4923C2.30942 11.8393 2.31644 12.4167 2.66875 12.7544L4.27265 14.2921C4.48139 14.4922 4.578 14.7894 4.52898 15.0807L4.15229 17.3185C4.06954 17.8101 4.40065 18.2729 4.87605 18.3302L7.0403 18.591C7.32196 18.625 7.56764 18.8062 7.69213 19.0719L8.64867 21.1132C8.85879 21.5616 9.38751 21.7331 9.80442 21.488L11.7023 20.3724C11.9493 20.2272 12.2503 20.2232 12.5007 20.3619L14.4251 21.427C14.8478 21.661 15.3722 21.4756 15.5714 21.0218L16.478 18.9558C16.596 18.687 16.8372 18.4993 17.118 18.4579L19.2752 18.14C19.7491 18.0702 20.0688 17.5987 19.9742 17.1095L19.5432 14.8824C19.4872 14.5925 19.5765 14.2928 19.7803 14.0873L21.3464 12.5077C21.6904 12.1608 21.6834 11.5834 21.331 11.2456L19.7272 9.70794C19.5184 9.50782 19.4218 9.2106 19.4708 8.91936L19.8475 6.68153C19.9303 6.18996 19.5992 5.72715 19.1238 5.66985L16.9595 5.40901C16.6778 5.37507 16.4322 5.19383 16.3077 4.92816L15.3511 2.88682C15.141 2.43841 14.6123 2.26694 14.1954 2.51201L12.2975 3.62763C12.0505 3.77282 11.7495 3.7768 11.4991 3.63818Z" stroke="white" stroke-width="2" stroke-linecap="round"/>
</svg>
