<svg width="24" height="24" viewBox="0 0 24 24" fill="none" xmlns="http://www.w3.org/2000/svg">
<path d="M12.0001 7.19999C10.6746 7.19999 9.6001 6.12548 9.6001 4.79999C9.6001 3.47451 10.6746 2.39999 12.0001 2.39999C13.3256 2.39999 14.4001 3.47451 14.4001 4.79999C14.4001 6.12548 13.3256 7.19999 12.0001 7.19999Z" stroke="white" stroke-width="2"/>
<path d="M12.0001 14.4C10.6746 14.4 9.6001 13.3255 9.6001 12C9.6001 10.6745 10.6746 9.59999 12.0001 9.59999C13.3256 9.59999 14.4001 10.6745 14.4001 12C14.4001 13.3255 13.3256 14.4 12.0001 14.4Z" stroke="white" stroke-width="2"/>
<path d="M12.0001 21.6C10.6746 21.6 9.6001 20.5255 9.6001 19.2C9.6001 17.8745 10.6746 16.8 12.0001 16.8C13.3256 16.8 14.4001 17.8745 14.4001 19.2C14.4001 20.5255 13.3256 21.6 12.0001 21.6Z" stroke="white" stroke-width="2"/>
</svg>
