<svg width="24" height="24" viewBox="0 0 24 24" fill="none" xmlns="http://www.w3.org/2000/svg">
<path d="M15.0001 2.4V6C15.0001 6.66274 15.5374 7.2 16.2001 7.2H19.8001M15.0001 2.4H15.6695C16.0075 2.4 16.3291 2.54233 16.5619 2.78728C16.9118 3.15537 17.466 3.72214 18.0001 4.2C18.4187 4.57451 19.0763 5.24664 19.4701 5.65513C19.683 5.87603 19.8001 6.17099 19.8001 6.47783L19.8001 7.2M15.0001 2.4H5.99972M19.8001 7.2L19.7999 21M4.19972 8.4V19.1999C4.19971 20.5254 5.27423 21.5999 6.59971 21.5999H14.3997M20.4001 22.8L3.6001 1.2" stroke="white" stroke-width="2" stroke-linecap="round" stroke-linejoin="round"/>
</svg>
