<svg width="24" height="24" viewBox="0 0 24 24" fill="none" xmlns="http://www.w3.org/2000/svg">
<path d="M15.0001 2.39999V5.99999C15.0001 6.66274 15.5373 7.19999 16.2001 7.19999H19.8001M8.40008 7.19999H10.8001M8.40008 10.8H15.6001M8.40008 14.4H15.6001M18.0001 4.19999C17.466 3.72214 16.9118 3.15537 16.5619 2.78727C16.3291 2.54233 16.0074 2.39999 15.6695 2.39999H6.5998C5.27432 2.39999 4.19981 3.4745 4.1998 4.79998L4.19971 19.1999C4.1997 20.5254 5.27421 21.5999 6.5997 21.5999L17.3997 21.6C18.7252 21.6 19.7997 20.5255 19.7998 19.2L19.8001 6.47783C19.8001 6.17099 19.683 5.87603 19.4701 5.65513C19.0763 5.24664 18.4187 4.57451 18.0001 4.19999Z" stroke="white" stroke-width="2" stroke-linecap="round" stroke-linejoin="round"/>
</svg>
