<svg width="24" height="24" viewBox="0 0 24 24" fill="none" xmlns="http://www.w3.org/2000/svg">
<path d="M10.4996 21.6H4.4996C3.17411 21.6 2.0996 20.5254 2.09961 19.2L2.0997 4.80001C2.09971 3.47453 3.17422 2.40002 4.4997 2.40002H15.3C16.6255 2.40002 17.7 3.47454 17.7 4.80002V9.60002M6.29998 7.20002H13.5M6.29998 10.8H13.5M6.29998 14.4H9.89998M15.3426 20.4L12.9 17.9458M12.9 17.9458L15.2321 15.6M12.9 17.9458H20.1271C21.1062 17.9458 21.9 17.152 21.9 16.1729C21.9 15.1938 21.1062 14.4 20.1271 14.4H17.7" stroke="white" stroke-width="2" stroke-linecap="round" stroke-linejoin="round"/>
</svg>
