<svg width="24" height="24" viewBox="0 0 24 24" fill="none" xmlns="http://www.w3.org/2000/svg">
<path d="M4.2002 6.00002V18C4.2002 19.9882 5.81197 21.6 7.8002 21.6H16.2002C18.1884 21.6 19.8002 19.9882 19.8002 18V6.00002C19.8002 4.0118 18.1884 2.40002 16.2002 2.40002H7.8002C5.81197 2.40002 4.2002 4.0118 4.2002 6.00002Z" stroke="white" stroke-width="2" stroke-linejoin="round"/>
<path d="M13.6102 8.60481C12.5967 8.09806 11.4037 8.09806 10.3902 8.60481L9.0002 9.29983V12.6448C9.0002 13.5498 10.0679 14.5795 12.0002 15.7998C13.9325 14.5795 15.0002 13.7998 15.0002 12.6448C15.0002 11.4898 15.0002 9.29983 15.0002 9.29983L13.6102 8.60481Z" stroke="white" stroke-width="2" stroke-linejoin="round"/>
</svg>
