<svg width="24" height="24" viewBox="0 0 24 24" fill="none" xmlns="http://www.w3.org/2000/svg">
<path d="M15.1028 3.10297L15.8099 2.39586V2.39586L15.1028 3.10297ZM18.4969 6.49708L17.7898 7.20419L18.4969 6.49708ZM9.6927 16.7071C10.0832 17.0977 10.7164 17.0977 11.1069 16.7071C11.4974 16.3166 11.4974 15.6834 11.1069 15.2929L9.6927 16.7071ZM8.39981 14L7.6927 13.2929C7.50516 13.4805 7.39981 13.7348 7.39981 14C7.39981 14.2652 7.50516 14.5196 7.6927 14.7071L8.39981 14ZM11.1069 12.7071C11.4974 12.3166 11.4974 11.6834 11.1069 11.2929C10.7164 10.9024 10.0832 10.9024 9.6927 11.2929L11.1069 12.7071ZM14.3069 11.2929C13.9164 10.9024 13.2832 10.9024 12.8927 11.2929C12.5022 11.6834 12.5022 12.3166 12.8927 12.7071L14.3069 11.2929ZM15.5998 14L16.3069 14.7071C16.4944 14.5196 16.5998 14.2652 16.5998 14C16.5998 13.7348 16.4944 13.4805 16.3069 13.2929L15.5998 14ZM12.8927 15.2929C12.5022 15.6834 12.5022 16.3166 12.8927 16.7071C13.2832 17.0977 13.9164 17.0977 14.3069 16.7071L12.8927 15.2929ZM16.7998 20.6H7.19981V22.6H16.7998V20.6ZM5.7998 19.2V4.80002H3.7998V19.2H5.7998ZM7.19981 3.40002H13.4057V1.40002H7.19981V3.40002ZM18.1998 8.19414V19.2H20.1998V8.19414H18.1998ZM13.4057 3.40002C13.777 3.40002 14.1331 3.54752 14.3956 3.81008L15.8099 2.39586C15.1722 1.75824 14.3074 1.40002 13.4057 1.40002V3.40002ZM7.19981 20.6C6.42661 20.6 5.7998 19.9732 5.7998 19.2H3.7998C3.7998 21.0778 5.32204 22.6 7.19981 22.6V20.6ZM16.7998 22.6C18.6776 22.6 20.1998 21.0778 20.1998 19.2H18.1998C18.1998 19.9732 17.573 20.6 16.7998 20.6V22.6ZM17.7898 7.20419C18.0523 7.46674 18.1998 7.82283 18.1998 8.19414H20.1998C20.1998 7.2924 19.8416 6.4276 19.204 5.78997L17.7898 7.20419ZM5.7998 4.80002C5.7998 4.02683 6.42661 3.40002 7.19981 3.40002V1.40002C5.32204 1.40002 3.7998 2.92226 3.7998 4.80002H5.7998ZM12.1998 2.40002V7.20002H14.1998V2.40002H12.1998ZM14.3998 9.40002H19.1998V7.40002H14.3998V9.40002ZM12.1998 7.20002C12.1998 8.41505 13.1848 9.40002 14.3998 9.40002V7.40002C14.2893 7.40002 14.1998 7.31048 14.1998 7.20002H12.1998ZM14.3956 3.81007L17.7898 7.20419L19.204 5.78997L15.8099 2.39586L14.3956 3.81007ZM11.1069 15.2929L9.10691 13.2929L7.6927 14.7071L9.6927 16.7071L11.1069 15.2929ZM9.10691 14.7071L11.1069 12.7071L9.6927 11.2929L7.6927 13.2929L9.10691 14.7071ZM12.8927 12.7071L14.8927 14.7071L16.3069 13.2929L14.3069 11.2929L12.8927 12.7071ZM14.8927 13.2929L12.8927 15.2929L14.3069 16.7071L16.3069 14.7071L14.8927 13.2929Z" fill="white"/>
</svg>
