<svg width="24" height="24" viewBox="0 0 24 24" fill="none" xmlns="http://www.w3.org/2000/svg">
<path d="M9.0666 20.17C9.61889 20.17 10.0666 19.7223 10.0666 19.17C10.0666 18.6177 9.61889 18.17 9.0666 18.17V20.17ZM4.26718 15.9702L3.26718 15.9702L4.26718 15.9702ZM5.2666 2.39995C5.26658 1.84767 4.81884 1.39997 4.26656 1.39999C3.71427 1.40002 3.26658 1.84775 3.2666 2.40004L5.2666 2.39995ZM9.0666 8.31686C9.61889 8.31686 10.0666 7.86915 10.0666 7.31686C10.0666 6.76458 9.61889 6.31686 9.0666 6.31686V8.31686ZM18.6666 9.86666L18.6666 8.86666L18.6666 9.86666ZM13.8666 9.86664L13.8666 10.8666H13.8666L13.8666 9.86664ZM19.7334 2.39999L20.7334 2.40002C20.7334 2.1348 20.6281 1.88044 20.4405 1.69289C20.253 1.50535 19.9987 1.39999 19.7334 1.39999V2.39999ZM19.7333 8.80002L20.7333 8.80004V8.80004L19.7333 8.80002ZM12.7999 8.79997L11.7999 8.79996V8.79996L12.7999 8.79997ZM12.8 4.53333L12.1356 3.78592C11.9221 3.97569 11.8 4.24769 11.8 4.53332L12.8 4.53333ZM15.1999 2.39999V1.39999C14.955 1.39999 14.7186 1.48987 14.5356 1.65259L15.1999 2.39999ZM18.6666 21.6L18.6666 20.6L18.6666 21.6ZM13.8666 21.6L13.8666 22.6L13.8666 21.6ZM19.7334 14.1333L20.7334 14.1333C20.7334 13.8681 20.6281 13.6138 20.4405 13.4262C20.253 13.2387 19.9987 13.1333 19.7334 13.1333V14.1333ZM19.7333 20.5333L20.7333 20.5334V20.5334L19.7333 20.5333ZM12.7999 20.5333L11.7999 20.5333V20.5333L12.7999 20.5333ZM12.8 16.2667L12.1356 15.5193C11.9221 15.709 11.8 15.981 11.8 16.2667L12.8 16.2667ZM15.1999 14.1333V13.1333C14.955 13.1333 14.7186 13.2232 14.5356 13.3859L15.1999 14.1333ZM9.0666 18.17H7.46718V20.17H9.0666V18.17ZM5.26718 15.9701L5.26681 7.31682L3.26681 7.31691L3.26718 15.9702L5.26718 15.9701ZM5.26681 7.31682L5.2666 2.39995L3.2666 2.40004L3.26681 7.31691L5.26681 7.31682ZM9.0666 6.31686H4.26681V8.31686H9.0666V6.31686ZM7.46718 18.17C6.25219 18.17 5.26724 17.1851 5.26718 15.9701L3.26718 15.9702C3.26728 18.2897 5.14766 20.17 7.46718 20.17V18.17ZM18.6666 8.86666L13.8666 8.86664L13.8666 10.8666L18.6666 10.8667L18.6666 8.86666ZM18.7334 2.39997L18.7333 8.8L20.7333 8.80004L20.7334 2.40002L18.7334 2.39997ZM18.6666 10.8667C19.808 10.8667 20.7333 9.94142 20.7333 8.80004L18.7333 8.79999C18.7333 8.83681 18.7034 8.86666 18.6666 8.86666L18.6666 10.8667ZM11.7999 8.79996C11.7999 9.94135 12.7252 10.8666 13.8666 10.8666L13.8666 8.86664C13.8298 8.86664 13.7999 8.83679 13.7999 8.79997L11.7999 8.79996ZM13.7999 8.79997L13.8 4.53334L11.8 4.53332L11.7999 8.79996L13.7999 8.79997ZM15.1999 3.39999H19.7334V1.39999H15.1999V3.39999ZM14.5356 1.65259L12.1356 3.78592L13.4643 5.28073L15.8643 3.1474L14.5356 1.65259ZM18.6666 20.6L13.8666 20.6L13.8666 22.6L18.6666 22.6L18.6666 20.6ZM18.7334 14.1333L18.7333 20.5333L20.7333 20.5334L20.7334 14.1333L18.7334 14.1333ZM18.6666 22.6C19.808 22.6 20.7333 21.6747 20.7333 20.5334L18.7333 20.5333C18.7333 20.5701 18.7034 20.6 18.6666 20.6L18.6666 22.6ZM11.7999 20.5333C11.7999 21.6747 12.7252 22.6 13.8666 22.6L13.8666 20.6C13.8298 20.6 13.7999 20.5701 13.7999 20.5333L11.7999 20.5333ZM13.7999 20.5333L13.8 16.2667L11.8 16.2667L11.7999 20.5333L13.7999 20.5333ZM15.1999 15.1333H19.7334V13.1333H15.1999V15.1333ZM14.5356 13.3859L12.1356 15.5193L13.4643 17.0141L15.8643 14.8807L14.5356 13.3859Z" fill="white"/>
</svg>
