<svg width="24" height="24" viewBox="0 0 24 24" fill="none" xmlns="http://www.w3.org/2000/svg">
<path d="M10.2002 10.2V9.00002C10.2002 8.00591 11.0061 7.20002 12.0002 7.20002C12.9943 7.20002 13.8002 8.00591 13.8002 9.00002V10.8M4.2002 18V6.00002C4.2002 4.0118 5.81197 2.40002 7.8002 2.40002H16.2002C18.1884 2.40002 19.8002 4.0118 19.8002 6.00002V18C19.8002 19.9882 18.1884 21.6 16.2002 21.6H7.8002C5.81197 21.6 4.2002 19.9882 4.2002 18ZM9.60019 16.8H14.4002C15.0629 16.8 15.6002 16.2628 15.6002 15.6V12C15.6002 11.3373 15.0629 10.8 14.4002 10.8H9.60019C8.93745 10.8 8.4002 11.3373 8.4002 12V15.6C8.4002 16.2628 8.93745 16.8 9.60019 16.8Z" stroke="white" stroke-width="2" stroke-linecap="round" stroke-linejoin="round"/>
</svg>
