<svg width="24" height="24" viewBox="0 0 24 24" fill="none" xmlns="http://www.w3.org/2000/svg">
<path d="M16.5621 2.78727L15.8373 3.4762V3.4762L16.5621 2.78727ZM18.0003 4.19999L18.6671 3.45475V3.45475L18.0003 4.19999ZM19.4703 5.65513L18.7503 6.34917V6.34917L19.4703 5.65513ZM19.8003 6.47783L18.8003 6.4778V6.47783H19.8003ZM4.19999 4.79998L3.19999 4.79997V4.79998H4.19999ZM2.3999 14C1.84762 14 1.3999 14.4477 1.3999 15C1.3999 15.5523 1.84762 16 2.3999 16V14ZM21.5999 16C22.1522 16 22.5999 15.5523 22.5999 15C22.5999 14.4477 22.1522 14 21.5999 14V16ZM3.19999 10.2C3.19999 10.7523 3.64771 11.2 4.19999 11.2C4.75228 11.2 5.19999 10.7523 5.19999 10.2H3.19999ZM18.8003 10.2C18.8003 10.7523 19.248 11.2 19.8003 11.2C20.3525 11.2 20.8003 10.7523 20.8003 10.2H18.8003ZM5.20028 19.2C5.20028 18.6477 4.75256 18.2 4.20028 18.2C3.64799 18.2 3.20028 18.6477 3.20028 19.2H5.20028ZM3.20028 21.6C3.20028 22.1523 3.64799 22.6 4.20028 22.6C4.75256 22.6 5.20028 22.1523 5.20028 21.6H3.20028ZM13.6003 19.2C13.6003 18.6477 13.1526 18.2 12.6003 18.2C12.048 18.2 11.6003 18.6477 11.6003 19.2H13.6003ZM11.6003 21.6C11.6003 22.1523 12.048 22.6 12.6003 22.6C13.1526 22.6 13.6003 22.1523 13.6003 21.6H11.6003ZM22.0003 19.2C22.0003 18.6477 21.5526 18.2 21.0003 18.2C20.448 18.2 20.0003 18.6477 20.0003 19.2H22.0003ZM20.0003 21.6C20.0003 22.1523 20.448 22.6 21.0003 22.6C21.5526 22.6 22.0003 22.1523 22.0003 21.6H20.0003ZM9.40028 19.2C9.40028 18.6477 8.95256 18.2 8.40028 18.2C7.84799 18.2 7.40028 18.6477 7.40028 19.2H9.40028ZM7.40028 20.4C7.40028 20.9523 7.84799 21.4 8.40028 21.4C8.95256 21.4 9.40028 20.9523 9.40028 20.4H7.40028ZM17.8003 19.2C17.8003 18.6477 17.3526 18.2 16.8003 18.2C16.248 18.2 15.8003 18.6477 15.8003 19.2H17.8003ZM15.8003 20.4C15.8003 20.9523 16.248 21.4 16.8003 21.4C17.3526 21.4 17.8003 20.9523 17.8003 20.4H15.8003ZM6.59999 3.39999H15.0003V1.39999H6.59999V3.39999ZM15.0003 3.39999H15.6697V1.39999H15.0003V3.39999ZM15.8373 3.4762C16.1933 3.85075 16.7693 4.44042 17.3335 4.94524L18.6671 3.45475C18.1631 3.00385 17.6307 2.45999 17.2869 2.09834L15.8373 3.4762ZM17.3335 4.94524C17.7199 5.291 18.3521 5.93615 18.7503 6.34917L20.1902 4.96108C19.8008 4.55713 19.1178 3.85802 18.6671 3.45475L17.3335 4.94524ZM20.8003 6.47785C20.8003 5.9165 20.5858 5.37149 20.1902 4.96108L18.7503 6.34917C18.7806 6.38057 18.8003 6.42548 18.8003 6.4778L20.8003 6.47785ZM15.6697 3.39999C15.725 3.39999 15.7873 3.42358 15.8373 3.4762L17.287 2.09834C16.8713 1.66107 16.2902 1.39999 15.6697 1.39999V3.39999ZM6.59999 1.39999C4.72223 1.39999 3.20001 2.92222 3.19999 4.79997L5.19999 4.79999C5.2 4.02679 5.8268 3.39999 6.59999 3.39999V1.39999ZM14.0003 2.39999V5.99999H16.0003V2.39999H14.0003ZM16.2003 8.19999H19.8003V6.19999H16.2003V8.19999ZM14.0003 5.99999C14.0003 7.21502 14.9852 8.19999 16.2003 8.19999V6.19999C16.0898 6.19999 16.0003 6.11045 16.0003 5.99999H14.0003ZM2.3999 16H21.5999V14H2.3999V16ZM3.19999 4.79998V10.2H5.19999V4.79998H3.19999ZM18.8003 6.47783V7.19999H20.8003V6.47783H18.8003ZM18.8003 7.19999V10.2H20.8003V7.19999H18.8003ZM3.20028 19.2V21.6H5.20028V19.2H3.20028ZM11.6003 19.2V21.6H13.6003V19.2H11.6003ZM20.0003 19.2V21.6H22.0003V19.2H20.0003ZM7.40028 19.2V20.4H9.40028V19.2H7.40028ZM15.8003 19.2V20.4H17.8003V19.2H15.8003Z" fill="white"/>
</svg>
