<svg width="24" height="24" viewBox="0 0 24 24" fill="none" xmlns="http://www.w3.org/2000/svg">
<path d="M8.70077 9.91767V13.6059C8.70077 15.4284 10.1782 16.9059 12.0008 16.9059C13.8233 16.9059 15.3008 15.4284 15.3008 13.6059V8.94708C15.3008 7.98221 14.5186 7.20002 13.5537 7.20002C12.5888 7.20002 11.8067 7.98221 11.8067 8.94708V13.4118M6.5998 2.40002H17.4C18.7255 2.40002 19.8 3.47457 19.8 4.80007L19.7998 19.2001C19.7997 20.5255 18.7252 21.6 17.3997 21.6L6.5997 21.6C5.27421 21.6 4.1997 20.5254 4.19971 19.2L4.1998 4.80001C4.19981 3.47453 5.27432 2.40002 6.5998 2.40002Z" stroke="white" stroke-width="2" stroke-linecap="round"/>
</svg>
