<svg width="24" height="24" viewBox="0 0 24 24" fill="none" xmlns="http://www.w3.org/2000/svg">
<path d="M5.72955 6.25888C4.98668 7.45408 4.59986 8.81574 4.59986 10.203C4.59986 10.4805 4.65701 12.2562 4.65701 12.2562C4.65701 13.5922 4.29656 14.907 3.60645 16.068M16.2064 10.203C16.2021 8.39315 15.0064 6.25888 12.525 6.25888C10.0436 6.25888 8.59091 8.29489 8.58651 10.1005V11.1932C8.58651 13.7928 8.28732 16.2814 6.67851 18.3602M9.53598 21.6C11.4964 18.8596 12.547 15.6027 12.547 12.2647V10.0621M14.2943 20.5851C15.0064 19.8 16.2064 16.2 16.2064 13.8M19.4262 18.4839C20.0768 16.3624 20.3933 12.2518 20.3933 10.0407C20.3933 5.83193 16.8855 2.41283 12.547 2.40002H12.525C11.1448 2.40002 9.78653 2.75431 8.58651 3.42447" stroke="white" stroke-width="2" stroke-linecap="round" stroke-linejoin="round"/>
</svg>
