<svg width="24" height="24" viewBox="0 0 24 24" fill="none" xmlns="http://www.w3.org/2000/svg">
<path d="M8.15825 6.5004C7.37423 7.13533 6.74138 7.941 6.30665 8.85762C5.87192 9.77426 5.64649 10.7783 5.64708 11.7953C5.65021 14.2754 5.08739 16.7228 4.00257 18.946M13.359 22.8C14.9616 19.3593 16.0158 13.3496 15.7792 11.7953C15.4866 9.87287 14.5655 8.33671 12.3438 8.33671C9.79815 8.33671 9.02245 10.9233 9.02245 12.0222M22.1753 18.3063C22.5897 16.1614 22.799 13.9809 22.8001 11.7953C22.8001 8.98527 21.6984 6.29027 19.7374 4.30328C17.7764 2.31629 15.1167 1.20001 12.3434 1.20001C9.57015 1.20001 6.91045 2.31629 4.94944 4.30328C2.98843 6.29027 1.88674 8.98521 1.88674 11.7952C1.88784 13.1888 1.6557 14.5725 1.2002 15.8874M6.56623 21.2387C7.62615 19.3958 8.37981 17.3889 8.79705 15.2983M18.8155 15.502C18.9673 14.2727 19.0423 13.0339 19.0398 11.795C19.0398 9.99557 18.3342 8.26986 17.0785 6.99747C15.8228 5.72512 14.1197 5.01017 12.3438 5.01017C12.0641 5.00823 11.7846 5.02442 11.5069 5.05866M18.1194 19.2073C17.9425 19.8884 17.7417 20.5703 17.5297 21.2387M9.81212 22.2963C11.1458 19.8872 12.3489 15.8952 12.3489 11.8321" stroke="white" stroke-width="2" stroke-linecap="round" stroke-linejoin="round"/>
</svg>
