<svg width="24" height="24" viewBox="0 0 24 24" fill="none" xmlns="http://www.w3.org/2000/svg">
<path d="M14.1483 18.3204L12.0933 21.3198C11.7405 21.8283 10.9102 21.6 10.9102 20.9876L10.8998 15.1342C10.8998 14.4596 10.329 13.9199 9.6233 13.9096L5.4408 13.8577C4.93226 13.8473 4.63129 13.318 4.91151 12.9133L6.60319 10.4536M8.35714 7.86934L11.9065 2.68016C12.2594 2.17161 13.0897 2.39995 13.0897 3.01227L13.1 8.86569C13.1 9.54029 13.6709 10.08 14.3766 10.0903L18.5591 10.1422C19.0676 10.1526 19.3686 10.6819 19.0884 11.0866L15.8296 15.84M20.4001 20.3997L3.6001 3.59968" stroke="white" stroke-width="2" stroke-linecap="round" stroke-linejoin="round"/>
</svg>
