<svg width="24" height="24" viewBox="0 0 24 24" fill="none" xmlns="http://www.w3.org/2000/svg">
<path d="M21.5999 9.20002L22.5999 9.19997V9.19997L21.5999 9.20002ZM21.6004 18.7999L20.6004 18.7999V18.7999L21.6004 18.7999ZM2.3999 18.7999L1.3999 18.7998L2.3999 18.7999ZM19.1999 6.80013L19.2 5.80013L19.1999 6.80013ZM9.9742 3.82368L10.7934 3.25022L10.7934 3.25022L9.9742 3.82368ZM9.00103 11.2552L8.55381 10.3608C8.21503 10.5302 8.00103 10.8764 8.00103 11.2552H9.00103ZM12.001 17.7552L11.4671 18.6007C11.7932 18.8067 12.2088 18.8067 12.535 18.6007L12.001 17.7552ZM15.001 11.2552H16.001C16.001 10.8764 15.787 10.5302 15.4482 10.3608L15.001 11.2552ZM10.3911 10.5602L10.8383 11.4546L10.3911 10.5602ZM13.611 10.5602L13.1638 11.4546L13.611 10.5602ZM3.7719 3.79999H8.00804V1.79999H3.7719V3.79999ZM3.40047 6.79999V4.19999H1.40047V6.79999H3.40047ZM3.7719 1.79999C2.44286 1.79999 1.40047 2.89404 1.40047 4.19999H3.40047C3.40047 3.95954 3.5861 3.79999 3.7719 3.79999V1.79999ZM20.5999 9.20007L20.6004 18.7999L22.6004 18.7998L22.5999 9.19997L20.5999 9.20007ZM19.2004 20.2H4.7999V22.2H19.2004V20.2ZM3.3999 18.7999L3.40047 6.80003L1.40047 6.79994L1.3999 18.7998L3.3999 18.7999ZM19.2 5.80013L12.0576 5.79999L12.0576 7.79999L19.1999 7.80013L19.2 5.80013ZM9.15496 4.39714L11.2384 7.37345L12.8768 6.22653L10.7934 3.25022L9.15496 4.39714ZM20.6004 18.7999C20.6004 19.5731 19.9736 20.2 19.2004 20.2V22.2C21.0782 22.2 22.6004 20.6777 22.6004 18.7998L20.6004 18.7999ZM4.7999 20.2C4.02668 20.2 3.39987 19.5731 3.3999 18.7999L1.3999 18.7998C1.39981 20.6777 2.92207 22.2 4.7999 22.2V20.2ZM22.5999 9.19997C22.5998 7.3223 21.0777 5.80017 19.2 5.80013L19.1999 7.80013C19.9731 7.80015 20.5999 8.42691 20.5999 9.20007L22.5999 9.19997ZM8.00804 3.79999C8.46488 3.79999 8.89298 4.02288 9.15496 4.39714L10.7934 3.25022C10.1572 2.3413 9.11751 1.79999 8.00804 1.79999V3.79999ZM9.94384 9.66578L8.55381 10.3608L9.44824 12.1496L10.8383 11.4546L9.94384 9.66578ZM8.00103 11.2552V14.6002H10.001V11.2552H8.00103ZM8.00103 14.6002C8.00103 15.4462 8.49041 16.1712 9.05934 16.7565C9.64873 17.3628 10.4756 17.9746 11.4671 18.6007L12.535 16.9097C11.5942 16.3155 10.921 15.8023 10.4935 15.3625C10.0455 14.9016 10.001 14.6592 10.001 14.6002H8.00103ZM12.535 18.6007C13.4873 17.9993 14.3263 17.4472 14.9209 16.872C15.5429 16.2703 16.001 15.544 16.001 14.6002H14.001C14.001 14.8114 13.9253 15.0524 13.5304 15.4345C13.1081 15.8429 12.4471 16.2908 11.4671 16.9097L12.535 18.6007ZM16.001 14.6002C16.001 14.598 16.001 14.5957 16.001 14.5934C16.001 14.5912 16.001 14.5889 16.001 14.5866C16.001 14.5844 16.001 14.5821 16.001 14.5798C16.001 14.5775 16.001 14.5752 16.001 14.573C16.001 14.5707 16.001 14.5684 16.001 14.5661C16.001 14.5638 16.001 14.5615 16.001 14.5592C16.001 14.5569 16.001 14.5546 16.001 14.5523C16.001 14.55 16.001 14.5477 16.001 14.5453C16.001 14.543 16.001 14.5407 16.001 14.5384C16.001 14.536 16.001 14.5337 16.001 14.5314C16.001 14.5291 16.001 14.5267 16.001 14.5244C16.001 14.522 16.001 14.5197 16.001 14.5173C16.001 14.515 16.001 14.5126 16.001 14.5103C16.001 14.5079 16.001 14.5056 16.001 14.5032C16.001 14.5009 16.001 14.4985 16.001 14.4961C16.001 14.4938 16.001 14.4914 16.001 14.489C16.001 14.4866 16.001 14.4843 16.001 14.4819C16.001 14.4795 16.001 14.4771 16.001 14.4747C16.001 14.4723 16.001 14.4699 16.001 14.4675C16.001 14.4651 16.001 14.4627 16.001 14.4603C16.001 14.4579 16.001 14.4555 16.001 14.4531C16.001 14.4507 16.001 14.4483 16.001 14.4459C16.001 14.4434 16.001 14.441 16.001 14.4386C16.001 14.4362 16.001 14.4337 16.001 14.4313C16.001 14.4289 16.001 14.4264 16.001 14.424C16.001 14.4216 16.001 14.4191 16.001 14.4167C16.001 14.4142 16.001 14.4118 16.001 14.4093C16.001 14.4069 16.001 14.4044 16.001 14.402C16.001 14.3995 16.001 14.3971 16.001 14.3946C16.001 14.3921 16.001 14.3897 16.001 14.3872C16.001 14.3847 16.001 14.3822 16.001 14.3798C16.001 14.3773 16.001 14.3748 16.001 14.3723C16.001 14.3698 16.001 14.3673 16.001 14.3649C16.001 14.3624 16.001 14.3599 16.001 14.3574C16.001 14.3549 16.001 14.3524 16.001 14.3499C16.001 14.3474 16.001 14.3449 16.001 14.3424C16.001 14.3398 16.001 14.3373 16.001 14.3348C16.001 14.3323 16.001 14.3298 16.001 14.3273C16.001 14.3247 16.001 14.3222 16.001 14.3197C16.001 14.3172 16.001 14.3146 16.001 14.3121C16.001 14.3096 16.001 14.307 16.001 14.3045C16.001 14.302 16.001 14.2994 16.001 14.2969C16.001 14.2943 16.001 14.2918 16.001 14.2892C16.001 14.2867 16.001 14.2841 16.001 14.2816C16.001 14.279 16.001 14.2764 16.001 14.2739C16.001 14.2713 16.001 14.2688 16.001 14.2662C16.001 14.2636 16.001 14.261 16.001 14.2585C16.001 14.2559 16.001 14.2533 16.001 14.2507C16.001 14.2482 16.001 14.2456 16.001 14.243C16.001 14.2404 16.001 14.2378 16.001 14.2352C16.001 14.2326 16.001 14.2301 16.001 14.2275C16.001 14.2249 16.001 14.2223 16.001 14.2197C16.001 14.2171 16.001 14.2145 16.001 14.2118C16.001 14.2092 16.001 14.2066 16.001 14.204C16.001 14.2014 16.001 14.1988 16.001 14.1962C16.001 14.1936 16.001 14.1909 16.001 14.1883C16.001 14.1857 16.001 14.1831 16.001 14.1804C16.001 14.1778 16.001 14.1752 16.001 14.1725C16.001 14.1699 16.001 14.1673 16.001 14.1646C16.001 14.162 16.001 14.1594 16.001 14.1567C16.001 14.1541 16.001 14.1514 16.001 14.1488C16.001 14.1461 16.001 14.1435 16.001 14.1408C16.001 14.1382 16.001 14.1355 16.001 14.1329C16.001 14.1302 16.001 14.1275 16.001 14.1249C16.001 14.1222 16.001 14.1196 16.001 14.1169C16.001 14.1142 16.001 14.1115 16.001 14.1089C16.001 14.1062 16.001 14.1035 16.001 14.1009C16.001 14.0982 16.001 14.0955 16.001 14.0928C16.001 14.0901 16.001 14.0874 16.001 14.0848C16.001 14.0821 16.001 14.0794 16.001 14.0767C16.001 14.074 16.001 14.0713 16.001 14.0686C16.001 14.0659 16.001 14.0632 16.001 14.0605C16.001 14.0578 16.001 14.0551 16.001 14.0524C16.001 14.0497 16.001 14.047 16.001 14.0443C16.001 14.0416 16.001 14.0389 16.001 14.0362C16.001 14.0335 16.001 14.0307 16.001 14.028C16.001 14.0253 16.001 14.0226 16.001 14.0199C16.001 14.0171 16.001 14.0144 16.001 14.0117C16.001 14.009 16.001 14.0062 16.001 14.0035C16.001 14.0008 16.001 13.998 16.001 13.9953C16.001 13.9926 16.001 13.9898 16.001 13.9871C16.001 13.9844 16.001 13.9816 16.001 13.9789C16.001 13.9761 16.001 13.9734 16.001 13.9707C16.001 13.9679 16.001 13.9652 16.001 13.9624C16.001 13.9597 16.001 13.9569 16.001 13.9542C16.001 13.9514 16.001 13.9486 16.001 13.9459C16.001 13.9431 16.001 13.9404 16.001 13.9376C16.001 13.9349 16.001 13.9321 16.001 13.9293C16.001 13.9266 16.001 13.9238 16.001 13.921C16.001 13.9183 16.001 13.9155 16.001 13.9127C16.001 13.9099 16.001 13.9072 16.001 13.9044C16.001 13.9016 16.001 13.8988 16.001 13.8961C16.001 13.8933 16.001 13.8905 16.001 13.8877C16.001 13.8849 16.001 13.8822 16.001 13.8794C16.001 13.8766 16.001 13.8738 16.001 13.871C16.001 13.8682 16.001 13.8654 16.001 13.8626C16.001 13.8598 16.001 13.857 16.001 13.8542C16.001 13.8515 16.001 13.8487 16.001 13.8459C16.001 13.8431 16.001 13.8403 16.001 13.8375C16.001 13.8347 16.001 13.8319 16.001 13.829C16.001 13.8262 16.001 13.8234 16.001 13.8206C16.001 13.8178 16.001 13.815 16.001 13.8122C16.001 13.8094 16.001 13.8066 16.001 13.8038C16.001 13.8009 16.001 13.7981 16.001 13.7953C16.001 13.7925 16.001 13.7897 16.001 13.7869C16.001 13.784 16.001 13.7812 16.001 13.7784C16.001 13.7756 16.001 13.7727 16.001 13.7699C16.001 13.7671 16.001 13.7643 16.001 13.7614C16.001 13.7586 16.001 13.7558 16.001 13.7529C16.001 13.7501 16.001 13.7473 16.001 13.7444C16.001 13.7416 16.001 13.7388 16.001 13.7359C16.001 13.7331 16.001 13.7303 16.001 13.7274C16.001 13.7246 16.001 13.7218 16.001 13.7189C16.001 13.7161 16.001 13.7132 16.001 13.7104C16.001 13.7075 16.001 13.7047 16.001 13.7018C16.001 13.699 16.001 13.6962 16.001 13.6933C16.001 13.6905 16.001 13.6876 16.001 13.6848C16.001 13.6819 16.001 13.6791 16.001 13.6762C16.001 13.6733 16.001 13.6705 16.001 13.6676C16.001 13.6648 16.001 13.6619 16.001 13.6591C16.001 13.6562 16.001 13.6534 16.001 13.6505C16.001 13.6476 16.001 13.6448 16.001 13.6419C16.001 13.6391 16.001 13.6362 16.001 13.6333C16.001 13.6305 16.001 13.6276 16.001 13.6247C16.001 13.6219 16.001 13.619 16.001 13.6161C16.001 13.6133 16.001 13.6104 16.001 13.6075C16.001 13.6047 16.001 13.6018 16.001 13.5989C16.001 13.596 16.001 13.5932 16.001 13.5903C16.001 13.5874 16.001 13.5846 16.001 13.5817C16.001 13.5788 16.001 13.5759 16.001 13.5731C16.001 13.5702 16.001 13.5673 16.001 13.5644C16.001 13.5615 16.001 13.5587 16.001 13.5558C16.001 13.5529 16.001 13.55 16.001 13.5471C16.001 13.5443 16.001 13.5414 16.001 13.5385C16.001 13.5356 16.001 13.5327 16.001 13.5298C16.001 13.527 16.001 13.5241 16.001 13.5212C16.001 13.5183 16.001 13.5154 16.001 13.5125C16.001 13.5096 16.001 13.5068 16.001 13.5039C16.001 13.501 16.001 13.4981 16.001 13.4952C16.001 13.4923 16.001 13.4894 16.001 13.4865C16.001 13.4836 16.001 13.4808 16.001 13.4779C16.001 13.475 16.001 13.4721 16.001 13.4692C16.001 13.4663 16.001 13.4634 16.001 13.4605C16.001 13.4576 16.001 13.4547 16.001 13.4518C16.001 13.4489 16.001 13.446 16.001 13.4431C16.001 13.4402 16.001 13.4374 16.001 13.4345C16.001 13.4316 16.001 13.4287 16.001 13.4258C16.001 13.4229 16.001 13.42 16.001 13.4171C16.001 13.4142 16.001 13.4113 16.001 13.4084C16.001 13.4055 16.001 13.4026 16.001 13.3997C16.001 13.3968 16.001 13.3939 16.001 13.391C16.001 13.3881 16.001 13.3852 16.001 13.3823C16.001 13.3794 16.001 13.3765 16.001 13.3736C16.001 13.3707 16.001 13.3678 16.001 13.3649C16.001 13.362 16.001 13.3591 16.001 13.3562C16.001 13.3533 16.001 13.3504 16.001 13.3474C16.001 13.3445 16.001 13.3416 16.001 13.3387C16.001 13.3358 16.001 13.3329 16.001 13.33C16.001 13.3271 16.001 13.3242 16.001 13.3213C16.001 13.3184 16.001 13.3155 16.001 13.3126C16.001 13.3097 16.001 13.3068 16.001 13.3039C16.001 13.301 16.001 13.2981 16.001 13.2952C16.001 13.2923 16.001 13.2894 16.001 13.2865C16.001 13.2836 16.001 13.2807 16.001 13.2778C16.001 13.2748 16.001 13.2719 16.001 13.269C16.001 13.2661 16.001 13.2632 16.001 13.2603C16.001 13.2574 16.001 13.2545 16.001 13.2516C16.001 13.2487 16.001 13.2458 16.001 13.2429C16.001 13.24 16.001 13.2371 16.001 13.2342C16.001 13.2313 16.001 13.2284 16.001 13.2255C16.001 13.2226 16.001 13.2197 16.001 13.2168C16.001 13.2139 16.001 13.211 16.001 13.2081C16.001 13.2051 16.001 13.2022 16.001 13.1993C16.001 13.1964 16.001 13.1935 16.001 13.1906C16.001 13.1877 16.001 13.1848 16.001 13.1819C16.001 13.179 16.001 13.1761 16.001 13.1732C16.001 13.1703 16.001 13.1674 16.001 13.1645C16.001 13.1616 16.001 13.1587 16.001 13.1558C16.001 13.1529 16.001 13.15 16.001 13.1471C16.001 13.1442 16.001 13.1413 16.001 13.1384C16.001 13.1355 16.001 13.1326 16.001 13.1297C16.001 13.1268 16.001 13.1239 16.001 13.121C16.001 13.1181 16.001 13.1152 16.001 13.1123C16.001 13.1094 16.001 13.1066 16.001 13.1037C16.001 13.1008 16.001 13.0979 16.001 13.095C16.001 13.0921 16.001 13.0892 16.001 13.0863C16.001 13.0834 16.001 13.0805 16.001 13.0776C16.001 13.0747 16.001 13.0718 16.001 13.0689C16.001 13.066 16.001 13.0632 16.001 13.0603C16.001 13.0574 16.001 13.0545 16.001 13.0516C16.001 13.0487 16.001 13.0458 16.001 13.0429C16.001 13.04 16.001 13.0372 16.001 13.0343C16.001 13.0314 16.001 13.0285 16.001 13.0256C16.001 13.0227 16.001 13.0198 16.001 13.017C16.001 13.0141 16.001 13.0112 16.001 13.0083C16.001 13.0054 16.001 13.0026 16.001 12.9997C16.001 12.9968 16.001 12.9939 16.001 12.991C16.001 12.9882 16.001 12.9853 16.001 12.9824C16.001 12.9795 16.001 12.9766 16.001 12.9738C16.001 12.9709 16.001 12.968 16.001 12.9651C16.001 12.9623 16.001 12.9594 16.001 12.9565C16.001 12.9537 16.001 12.9508 16.001 12.9479C16.001 12.945 16.001 12.9422 16.001 12.9393C16.001 12.9364 16.001 12.9336 16.001 12.9307C16.001 12.9278 16.001 12.925 16.001 12.9221C16.001 12.9192 16.001 12.9164 16.001 12.9135C16.001 12.9106 16.001 12.9078 16.001 12.9049C16.001 12.9021 16.001 12.8992 16.001 12.8963C16.001 12.8935 16.001 12.8906 16.001 12.8878C16.001 12.8849 16.001 12.8821 16.001 12.8792C16.001 12.8764 16.001 12.8735 16.001 12.8706C16.001 12.8678 16.001 12.8649 16.001 12.8621C16.001 12.8592 16.001 12.8564 16.001 12.8535C16.001 12.8507 16.001 12.8479 16.001 12.845C16.001 12.8422 16.001 12.8393 16.001 12.8365C16.001 12.8336 16.001 12.8308 16.001 12.8279C16.001 12.8251 16.001 12.8223 16.001 12.8194C16.001 12.8166 16.001 12.8138 16.001 12.8109C16.001 12.8081 16.001 12.8053 16.001 12.8024C16.001 12.7996 16.001 12.7968 16.001 12.7939C16.001 12.7911 16.001 12.7883 16.001 12.7854C16.001 12.7826 16.001 12.7798 16.001 12.777C16.001 12.7741 16.001 12.7713 16.001 12.7685C16.001 12.7657 16.001 12.7628 16.001 12.76C16.001 12.7572 16.001 12.7544 16.001 12.7516C16.001 12.7488 16.001 12.7459 16.001 12.7431C16.001 12.7403 16.001 12.7375 16.001 12.7347C16.001 12.7319 16.001 12.7291 16.001 12.7263C16.001 12.7235 16.001 12.7207 16.001 12.7179C16.001 12.7151 16.001 12.7122 16.001 12.7094C16.001 12.7066 16.001 12.7038 16.001 12.701C16.001 12.6983 16.001 12.6955 16.001 12.6927C16.001 12.6899 16.001 12.6871 16.001 12.6843C16.001 12.6815 16.001 12.6787 16.001 12.6759C16.001 12.6731 16.001 12.6703 16.001 12.6676C16.001 12.6648 16.001 12.662 16.001 12.6592C16.001 12.6564 16.001 12.6536 16.001 12.6509C16.001 12.6481 16.001 12.6453 16.001 12.6425C16.001 12.6398 16.001 12.637 16.001 12.6342C16.001 12.6315 16.001 12.6287 16.001 12.6259C16.001 12.6231 16.001 12.6204 16.001 12.6176C16.001 12.6149 16.001 12.6121 16.001 12.6093C16.001 12.6066 16.001 12.6038 16.001 12.6011C16.001 12.5983 16.001 12.5956 16.001 12.5928C16.001 12.59 16.001 12.5873 16.001 12.5846C16.001 12.5818 16.001 12.5791 16.001 12.5763C16.001 12.5736 16.001 12.5708 16.001 12.5681C16.001 12.5653 16.001 12.5626 16.001 12.5599C16.001 12.5571 16.001 12.5544 16.001 12.5517C16.001 12.5489 16.001 12.5462 16.001 12.5435C16.001 12.5407 16.001 12.538 16.001 12.5353C16.001 12.5326 16.001 12.5299 16.001 12.5271C16.001 12.5244 16.001 12.5217 16.001 12.519C16.001 12.5163 16.001 12.5135 16.001 12.5108C16.001 12.5081 16.001 12.5054 16.001 12.5027C16.001 12.5 16.001 12.4973 16.001 12.4946C16.001 12.4919 16.001 12.4892 16.001 12.4865C16.001 12.4838 16.001 12.4811 16.001 12.4784C16.001 12.4757 16.001 12.473 16.001 12.4703C16.001 12.4676 16.001 12.465 16.001 12.4623C16.001 12.4596 16.001 12.4569 16.001 12.4542C16.001 12.4515 16.001 12.4489 16.001 12.4462C16.001 12.4435 16.001 12.4408 16.001 12.4382C16.001 12.4355 16.001 12.4328 16.001 12.4302C16.001 12.4275 16.001 12.4248 16.001 12.4222C16.001 12.4195 16.001 12.4169 16.001 12.4142C16.001 12.4115 16.001 12.4089 16.001 12.4062C16.001 12.4036 16.001 12.4009 16.001 12.3983C16.001 12.3956 16.001 12.393 16.001 12.3904C16.001 12.3877 16.001 12.3851 16.001 12.3824C16.001 12.3798 16.001 12.3772 16.001 12.3745C16.001 12.3719 16.001 12.3693 16.001 12.3667C16.001 12.364 16.001 12.3614 16.001 12.3588C16.001 12.3562 16.001 12.3536 16.001 12.3509C16.001 12.3483 16.001 12.3457 16.001 12.3431C16.001 12.3405 16.001 12.3379 16.001 12.3353C16.001 12.3327 16.001 12.3301 16.001 12.3275C16.001 12.3249 16.001 12.3223 16.001 12.3197C16.001 12.3171 16.001 12.3145 16.001 12.3119C16.001 12.3093 16.001 12.3067 16.001 12.3041C16.001 12.3016 16.001 12.299 16.001 12.2964C16.001 12.2938 16.001 12.2913 16.001 12.2887C16.001 12.2861 16.001 12.2835 16.001 12.281C16.001 12.2784 16.001 12.2758 16.001 12.2733C16.001 12.2707 16.001 12.2682 16.001 12.2656C16.001 12.2631 16.001 12.2605 16.001 12.258C16.001 12.2554 16.001 12.2529 16.001 12.2503C16.001 12.2478 16.001 12.2452 16.001 12.2427C16.001 12.2402 16.001 12.2376 16.001 12.2351C16.001 12.2326 16.001 12.23 16.001 12.2275C16.001 12.225 16.001 12.2225 16.001 12.2199C16.001 12.2174 16.001 12.2149 16.001 12.2124C16.001 12.2099 16.001 12.2074 16.001 12.2049C16.001 12.2024 16.001 12.1999 16.001 12.1974C16.001 12.1949 16.001 12.1924 16.001 12.1899C16.001 12.1874 16.001 12.1849 16.001 12.1824C16.001 12.1799 16.001 12.1774 16.001 12.1749C16.001 12.1725 16.001 12.17 16.001 12.1675C16.001 12.165 16.001 12.1626 16.001 12.1601C16.001 12.1576 16.001 12.1552 16.001 12.1527C16.001 12.1502 16.001 12.1478 16.001 12.1453C16.001 12.1429 16.001 12.1404 16.001 12.138C16.001 12.1355 16.001 12.1331 16.001 12.1306C16.001 12.1282 16.001 12.1257 16.001 12.1233C16.001 12.1209 16.001 12.1184 16.001 12.116C16.001 12.1136 16.001 12.1111 16.001 12.1087C16.001 12.1063 16.001 12.1039 16.001 12.1015C16.001 12.0991 16.001 12.0966 16.001 12.0942C16.001 12.0918 16.001 12.0894 16.001 12.087C16.001 12.0846 16.001 12.0822 16.001 12.0798C16.001 12.0774 16.001 12.075 16.001 12.0727C16.001 12.0703 16.001 12.0679 16.001 12.0655C16.001 12.0631 16.001 12.0607 16.001 12.0584C16.001 12.056 16.001 12.0536 16.001 12.0513C16.001 12.0489 16.001 12.0465 16.001 12.0442C16.001 12.0418 16.001 12.0395 16.001 12.0371C16.001 12.0348 16.001 12.0324 16.001 12.0301C16.001 12.0277 16.001 12.0254 16.001 12.023C16.001 12.0207 16.001 12.0184 16.001 12.016C16.001 12.0137 16.001 12.0114 16.001 12.0091C16.001 12.0067 16.001 12.0044 16.001 12.0021C16.001 11.9998 16.001 11.9975 16.001 11.9952C16.001 11.9929 16.001 11.9906 16.001 11.9883C16.001 11.986 16.001 11.9837 16.001 11.9814C16.001 11.9791 16.001 11.9768 16.001 11.9745C16.001 11.9722 16.001 11.9699 16.001 11.9677C16.001 11.9654 16.001 11.9631 16.001 11.9609C16.001 11.9586 16.001 11.9563 16.001 11.9541C16.001 11.9518 16.001 11.9495 16.001 11.9473C16.001 11.945 16.001 11.9428 16.001 11.9405C16.001 11.9383 16.001 11.9361 16.001 11.9338C16.001 11.9316 16.001 11.9293 16.001 11.9271C16.001 11.9249 16.001 11.9227 16.001 11.9204C16.001 11.9182 16.001 11.916 16.001 11.9138C16.001 11.9116 16.001 11.9094 16.001 11.9072C16.001 11.905 16.001 11.9028 16.001 11.9006C16.001 11.8984 16.001 11.8962 16.001 11.894C16.001 11.8918 16.001 11.8896 16.001 11.8874C16.001 11.8853 16.001 11.8831 16.001 11.8809C16.001 11.8787 16.001 11.8766 16.001 11.8744C16.001 11.8722 16.001 11.8701 16.001 11.8679C16.001 11.8658 16.001 11.8636 16.001 11.8615C16.001 11.8593 16.001 11.8572 16.001 11.8551C16.001 11.8529 16.001 11.8508 16.001 11.8487C16.001 11.8465 16.001 11.8444 16.001 11.8423C16.001 11.8402 16.001 11.838 16.001 11.8359C16.001 11.8338 16.001 11.8317 16.001 11.8296C16.001 11.8275 16.001 11.8254 16.001 11.8233C16.001 11.8212 16.001 11.8191 16.001 11.817C16.001 11.815 16.001 11.8129 16.001 11.8108C16.001 11.8087 16.001 11.8067 16.001 11.8046C16.001 11.8025 16.001 11.8005 16.001 11.7984C16.001 11.7963 16.001 11.7943 16.001 11.7922C16.001 11.7902 16.001 11.7881 16.001 11.7861C16.001 11.7841 16.001 11.782 16.001 11.78C16.001 11.778 16.001 11.7759 16.001 11.7739C16.001 11.7719 16.001 11.7699 16.001 11.7679C16.001 11.7659 16.001 11.7639 16.001 11.7618C16.001 11.7598 16.001 11.7578 16.001 11.7559C16.001 11.7539 16.001 11.7519 16.001 11.7499C16.001 11.7479 16.001 11.7459 16.001 11.7439C16.001 11.742 16.001 11.74 16.001 11.738C16.001 11.7361 16.001 11.7341 16.001 11.7322C16.001 11.7302 16.001 11.7282 16.001 11.7263C16.001 11.7244 16.001 11.7224 16.001 11.7205C16.001 11.7185 16.001 11.7166 16.001 11.7147C16.001 11.7127 16.001 11.7108 16.001 11.7089C16.001 11.707 16.001 11.7051 16.001 11.7032C16.001 11.7013 16.001 11.6994 16.001 11.6975C16.001 11.6956 16.001 11.6937 16.001 11.6918C16.001 11.6899 16.001 11.688 16.001 11.6861C16.001 11.6843 16.001 11.6824 16.001 11.6805C16.001 11.6786 16.001 11.6768 16.001 11.6749C16.001 11.6731 16.001 11.6712 16.001 11.6694C16.001 11.6675 16.001 11.6657 16.001 11.6638C16.001 11.662 16.001 11.6602 16.001 11.6583C16.001 11.6565 16.001 11.6547 16.001 11.6529C16.001 11.6511 16.001 11.6492 16.001 11.6474C16.001 11.6456 16.001 11.6438 16.001 11.642C16.001 11.6402 16.001 11.6384 16.001 11.6366C16.001 11.6349 16.001 11.6331 16.001 11.6313C16.001 11.6295 16.001 11.6278 16.001 11.626C16.001 11.6242 16.001 11.6225 16.001 11.6207C16.001 11.619 16.001 11.6172 16.001 11.6155C16.001 11.6137 16.001 11.612 16.001 11.6102C16.001 11.6085 16.001 11.6068 16.001 11.605C16.001 11.6033 16.001 11.6016 16.001 11.5999C16.001 11.5982 16.001 11.5965 16.001 11.5948C16.001 11.5931 16.001 11.5914 16.001 11.5897C16.001 11.588 16.001 11.5863 16.001 11.5846C16.001 11.5829 16.001 11.5813 16.001 11.5796C16.001 11.5779 16.001 11.5763 16.001 11.5746C16.001 11.5729 16.001 11.5713 16.001 11.5696C16.001 11.568 16.001 11.5663 16.001 11.5647C16.001 11.5631 16.001 11.5614 16.001 11.5598C16.001 11.5582 16.001 11.5566 16.001 11.555C16.001 11.5533 16.001 11.5517 16.001 11.5501C16.001 11.5485 16.001 11.5469 16.001 11.5453C16.001 11.5437 16.001 11.5422 16.001 11.5406C16.001 11.539 16.001 11.5374 16.001 11.5358C16.001 11.5343 16.001 11.5327 16.001 11.5312C16.001 11.5296 16.001 11.528 16.001 11.5265C16.001 11.5249 16.001 11.5234 16.001 11.5219C16.001 11.5203 16.001 11.5188 16.001 11.5173C16.001 11.5158 16.001 11.5142 16.001 11.5127C16.001 11.5112 16.001 11.5097 16.001 11.5082C16.001 11.5067 16.001 11.5052 16.001 11.5037C16.001 11.5022 16.001 11.5007 16.001 11.4993C16.001 11.4978 16.001 11.4963 16.001 11.4949C16.001 11.4934 16.001 11.4919 16.001 11.4905C16.001 11.489 16.001 11.4876 16.001 11.4861C16.001 11.4847 16.001 11.4832 16.001 11.4818C16.001 11.4804 16.001 11.479 16.001 11.4775C16.001 11.4761 16.001 11.4747 16.001 11.4733C16.001 11.4719 16.001 11.4705 16.001 11.4691C16.001 11.4677 16.001 11.4663 16.001 11.4649C16.001 11.4636 16.001 11.4622 16.001 11.4608C16.001 11.4594 16.001 11.4581 16.001 11.4567C16.001 11.4554 16.001 11.454 16.001 11.4527C16.001 11.4513 16.001 11.45 16.001 11.4486C16.001 11.4473 16.001 11.446 16.001 11.4447C16.001 11.4433 16.001 11.442 16.001 11.4407C16.001 11.4394 16.001 11.4381 16.001 11.4368C16.001 11.4355 16.001 11.4342 16.001 11.4329C16.001 11.4316 16.001 11.4304 16.001 11.4291C16.001 11.4278 16.001 11.4266 16.001 11.4253C16.001 11.424 16.001 11.4228 16.001 11.4215C16.001 11.4203 16.001 11.4191 16.001 11.4178C16.001 11.4166 16.001 11.4154 16.001 11.4141C16.001 11.4129 16.001 11.4117 16.001 11.4105C16.001 11.4093 16.001 11.4081 16.001 11.4069C16.001 11.4057 16.001 11.4045 16.001 11.4033C16.001 11.4021 16.001 11.401 16.001 11.3998C16.001 11.3986 16.001 11.3975 16.001 11.3963C16.001 11.3951 16.001 11.394 16.001 11.3928C16.001 11.3917 16.001 11.3906 16.001 11.3894C16.001 11.3883 16.001 11.3872 16.001 11.3861C16.001 11.3849 16.001 11.3838 16.001 11.3827C16.001 11.3816 16.001 11.3805 16.001 11.3794C16.001 11.3783 16.001 11.3773 16.001 11.3762C16.001 11.3751 16.001 11.374 16.001 11.373C16.001 11.3719 16.001 11.3708 16.001 11.3698C16.001 11.3687 16.001 11.3677 16.001 11.3667C16.001 11.3656 16.001 11.3646 16.001 11.3636C16.001 11.3625 16.001 11.3615 16.001 11.3605C16.001 11.3595 16.001 11.3585 16.001 11.3575C16.001 11.3565 16.001 11.3555 16.001 11.3545C16.001 11.3535 16.001 11.3525 16.001 11.3516C16.001 11.3506 16.001 11.3496 16.001 11.3487C16.001 11.3477 16.001 11.3468 16.001 11.3458C16.001 11.3449 16.001 11.344 16.001 11.343C16.001 11.3421 16.001 11.3412 16.001 11.3403C16.001 11.3393 16.001 11.3384 16.001 11.3375C16.001 11.3366 16.001 11.3357 16.001 11.3348C16.001 11.334 16.001 11.3331 16.001 11.3322C16.001 11.3313 16.001 11.3305 16.001 11.3296C16.001 11.3287 16.001 11.3279 16.001 11.327C16.001 11.3262 16.001 11.3254 16.001 11.3245C16.001 11.3237 16.001 11.3229 16.001 11.322C16.001 11.3212 16.001 11.3204 16.001 11.3196C16.001 11.3188 16.001 11.318 16.001 11.3172C16.001 11.3164 16.001 11.3156 16.001 11.3149C16.001 11.3141 16.001 11.3133 16.001 11.3126C16.001 11.3118 16.001 11.3111 16.001 11.3103C16.001 11.3096 16.001 11.3088 16.001 11.3081C16.001 11.3074 16.001 11.3066 16.001 11.3059C16.001 11.3052 16.001 11.3045 16.001 11.3038C16.001 11.3031 16.001 11.3024 16.001 11.3017C16.001 11.301 16.001 11.3003 16.001 11.2997C16.001 11.299 16.001 11.2983 16.001 11.2977C16.001 11.297 16.001 11.2963 16.001 11.2957C16.001 11.2951 16.001 11.2944 16.001 11.2938C16.001 11.2932 16.001 11.2925 16.001 11.2919C16.001 11.2913 16.001 11.2907 16.001 11.2901C16.001 11.2895 16.001 11.2889 16.001 11.2883C16.001 11.2877 16.001 11.2872 16.001 11.2866C16.001 11.286 16.001 11.2854 16.001 11.2849C16.001 11.2843 16.001 11.2838 16.001 11.2832C16.001 11.2827 16.001 11.2822 16.001 11.2817C16.001 11.2811 16.001 11.2806 16.001 11.2801C16.001 11.2796 16.001 11.2791 16.001 11.2786C16.001 11.2781 16.001 11.2776 16.001 11.2771C16.001 11.2766 16.001 11.2762 16.001 11.2757C16.001 11.2752 16.001 11.2748 16.001 11.2743C16.001 11.2739 16.001 11.2735 16.001 11.273C16.001 11.2726 16.001 11.2722 16.001 11.2717C16.001 11.2713 16.001 11.2709 16.001 11.2705C16.001 11.2701 16.001 11.2697 16.001 11.2693C16.001 11.2689 16.001 11.2686 16.001 11.2682C16.001 11.2678 16.001 11.2675 16.001 11.2671C16.001 11.2667 16.001 11.2664 16.001 11.2661C16.001 11.2657 16.001 11.2654 16.001 11.2651C16.001 11.2647 16.001 11.2644 16.001 11.2641C16.001 11.2638 16.001 11.2635 16.001 11.2632C16.001 11.2629 16.001 11.2626 16.001 11.2623C16.001 11.2621 16.001 11.2618 16.001 11.2615C16.001 11.2613 16.001 11.261 16.001 11.2608C16.001 11.2605 16.001 11.2603 16.001 11.2601C16.001 11.2598 16.001 11.2596 16.001 11.2594C16.001 11.2592 16.001 11.259 16.001 11.2588C16.001 11.2586 16.001 11.2584 16.001 11.2582C16.001 11.258 16.001 11.2579 16.001 11.2577C16.001 11.2575 16.001 11.2574 16.001 11.2572C16.001 11.2571 16.001 11.2569 16.001 11.2568C16.001 11.2567 16.001 11.2566 16.001 11.2564C16.001 11.2563 16.001 11.2562 16.001 11.2561C16.001 11.256 16.001 11.2559 16.001 11.2558C16.001 11.2558 16.001 11.2557 16.001 11.2556C16.001 11.2556 16.001 11.2555 16.001 11.2554C16.001 11.2554 16.001 11.2554 16.001 11.2553C16.001 11.2553 16.001 11.2553 16.001 11.2552C16.001 11.2552 16.001 11.2552 15.001 11.2552C14.001 11.2552 14.001 11.2552 14.001 11.2552C14.001 11.2553 14.001 11.2553 14.001 11.2553C14.001 11.2554 14.001 11.2554 14.001 11.2554C14.001 11.2555 14.001 11.2556 14.001 11.2556C14.001 11.2557 14.001 11.2558 14.001 11.2558C14.001 11.2559 14.001 11.256 14.001 11.2561C14.001 11.2562 14.001 11.2563 14.001 11.2564C14.001 11.2566 14.001 11.2567 14.001 11.2568C14.001 11.2569 14.001 11.2571 14.001 11.2572C14.001 11.2574 14.001 11.2575 14.001 11.2577C14.001 11.2579 14.001 11.258 14.001 11.2582C14.001 11.2584 14.001 11.2586 14.001 11.2588C14.001 11.259 14.001 11.2592 14.001 11.2594C14.001 11.2596 14.001 11.2598 14.001 11.2601C14.001 11.2603 14.001 11.2605 14.001 11.2608C14.001 11.261 14.001 11.2613 14.001 11.2615C14.001 11.2618 14.001 11.2621 14.001 11.2623C14.001 11.2626 14.001 11.2629 14.001 11.2632C14.001 11.2635 14.001 11.2638 14.001 11.2641C14.001 11.2644 14.001 11.2647 14.001 11.2651C14.001 11.2654 14.001 11.2657 14.001 11.2661C14.001 11.2664 14.001 11.2667 14.001 11.2671C14.001 11.2675 14.001 11.2678 14.001 11.2682C14.001 11.2686 14.001 11.2689 14.001 11.2693C14.001 11.2697 14.001 11.2701 14.001 11.2705C14.001 11.2709 14.001 11.2713 14.001 11.2717C14.001 11.2722 14.001 11.2726 14.001 11.273C14.001 11.2735 14.001 11.2739 14.001 11.2743C14.001 11.2748 14.001 11.2752 14.001 11.2757C14.001 11.2762 14.001 11.2766 14.001 11.2771C14.001 11.2776 14.001 11.2781 14.001 11.2786C14.001 11.2791 14.001 11.2796 14.001 11.2801C14.001 11.2806 14.001 11.2811 14.001 11.2817C14.001 11.2822 14.001 11.2827 14.001 11.2832C14.001 11.2838 14.001 11.2843 14.001 11.2849C14.001 11.2854 14.001 11.286 14.001 11.2866C14.001 11.2872 14.001 11.2877 14.001 11.2883C14.001 11.2889 14.001 11.2895 14.001 11.2901C14.001 11.2907 14.001 11.2913 14.001 11.2919C14.001 11.2925 14.001 11.2932 14.001 11.2938C14.001 11.2944 14.001 11.2951 14.001 11.2957C14.001 11.2963 14.001 11.297 14.001 11.2977C14.001 11.2983 14.001 11.299 14.001 11.2997C14.001 11.3003 14.001 11.301 14.001 11.3017C14.001 11.3024 14.001 11.3031 14.001 11.3038C14.001 11.3045 14.001 11.3052 14.001 11.3059C14.001 11.3066 14.001 11.3074 14.001 11.3081C14.001 11.3088 14.001 11.3096 14.001 11.3103C14.001 11.3111 14.001 11.3118 14.001 11.3126C14.001 11.3133 14.001 11.3141 14.001 11.3149C14.001 11.3156 14.001 11.3164 14.001 11.3172C14.001 11.318 14.001 11.3188 14.001 11.3196C14.001 11.3204 14.001 11.3212 14.001 11.322C14.001 11.3229 14.001 11.3237 14.001 11.3245C14.001 11.3254 14.001 11.3262 14.001 11.327C14.001 11.3279 14.001 11.3287 14.001 11.3296C14.001 11.3305 14.001 11.3313 14.001 11.3322C14.001 11.3331 14.001 11.334 14.001 11.3348C14.001 11.3357 14.001 11.3366 14.001 11.3375C14.001 11.3384 14.001 11.3393 14.001 11.3403C14.001 11.3412 14.001 11.3421 14.001 11.343C14.001 11.344 14.001 11.3449 14.001 11.3458C14.001 11.3468 14.001 11.3477 14.001 11.3487C14.001 11.3496 14.001 11.3506 14.001 11.3516C14.001 11.3525 14.001 11.3535 14.001 11.3545C14.001 11.3555 14.001 11.3565 14.001 11.3575C14.001 11.3585 14.001 11.3595 14.001 11.3605C14.001 11.3615 14.001 11.3625 14.001 11.3636C14.001 11.3646 14.001 11.3656 14.001 11.3667C14.001 11.3677 14.001 11.3687 14.001 11.3698C14.001 11.3708 14.001 11.3719 14.001 11.373C14.001 11.374 14.001 11.3751 14.001 11.3762C14.001 11.3773 14.001 11.3783 14.001 11.3794C14.001 11.3805 14.001 11.3816 14.001 11.3827C14.001 11.3838 14.001 11.3849 14.001 11.3861C14.001 11.3872 14.001 11.3883 14.001 11.3894C14.001 11.3906 14.001 11.3917 14.001 11.3928C14.001 11.394 14.001 11.3951 14.001 11.3963C14.001 11.3975 14.001 11.3986 14.001 11.3998C14.001 11.401 14.001 11.4021 14.001 11.4033C14.001 11.4045 14.001 11.4057 14.001 11.4069C14.001 11.4081 14.001 11.4093 14.001 11.4105C14.001 11.4117 14.001 11.4129 14.001 11.4141C14.001 11.4154 14.001 11.4166 14.001 11.4178C14.001 11.4191 14.001 11.4203 14.001 11.4215C14.001 11.4228 14.001 11.424 14.001 11.4253C14.001 11.4266 14.001 11.4278 14.001 11.4291C14.001 11.4304 14.001 11.4316 14.001 11.4329C14.001 11.4342 14.001 11.4355 14.001 11.4368C14.001 11.4381 14.001 11.4394 14.001 11.4407C14.001 11.442 14.001 11.4433 14.001 11.4447C14.001 11.446 14.001 11.4473 14.001 11.4486C14.001 11.45 14.001 11.4513 14.001 11.4527C14.001 11.454 14.001 11.4554 14.001 11.4567C14.001 11.4581 14.001 11.4594 14.001 11.4608C14.001 11.4622 14.001 11.4636 14.001 11.4649C14.001 11.4663 14.001 11.4677 14.001 11.4691C14.001 11.4705 14.001 11.4719 14.001 11.4733C14.001 11.4747 14.001 11.4761 14.001 11.4775C14.001 11.479 14.001 11.4804 14.001 11.4818C14.001 11.4832 14.001 11.4847 14.001 11.4861C14.001 11.4876 14.001 11.489 14.001 11.4905C14.001 11.4919 14.001 11.4934 14.001 11.4949C14.001 11.4963 14.001 11.4978 14.001 11.4993C14.001 11.5007 14.001 11.5022 14.001 11.5037C14.001 11.5052 14.001 11.5067 14.001 11.5082C14.001 11.5097 14.001 11.5112 14.001 11.5127C14.001 11.5142 14.001 11.5158 14.001 11.5173C14.001 11.5188 14.001 11.5203 14.001 11.5219C14.001 11.5234 14.001 11.5249 14.001 11.5265C14.001 11.528 14.001 11.5296 14.001 11.5312C14.001 11.5327 14.001 11.5343 14.001 11.5358C14.001 11.5374 14.001 11.539 14.001 11.5406C14.001 11.5422 14.001 11.5437 14.001 11.5453C14.001 11.5469 14.001 11.5485 14.001 11.5501C14.001 11.5517 14.001 11.5533 14.001 11.555C14.001 11.5566 14.001 11.5582 14.001 11.5598C14.001 11.5614 14.001 11.5631 14.001 11.5647C14.001 11.5663 14.001 11.568 14.001 11.5696C14.001 11.5713 14.001 11.5729 14.001 11.5746C14.001 11.5763 14.001 11.5779 14.001 11.5796C14.001 11.5813 14.001 11.5829 14.001 11.5846C14.001 11.5863 14.001 11.588 14.001 11.5897C14.001 11.5914 14.001 11.5931 14.001 11.5948C14.001 11.5965 14.001 11.5982 14.001 11.5999C14.001 11.6016 14.001 11.6033 14.001 11.605C14.001 11.6068 14.001 11.6085 14.001 11.6102C14.001 11.612 14.001 11.6137 14.001 11.6155C14.001 11.6172 14.001 11.619 14.001 11.6207C14.001 11.6225 14.001 11.6242 14.001 11.626C14.001 11.6278 14.001 11.6295 14.001 11.6313C14.001 11.6331 14.001 11.6349 14.001 11.6366C14.001 11.6384 14.001 11.6402 14.001 11.642C14.001 11.6438 14.001 11.6456 14.001 11.6474C14.001 11.6492 14.001 11.6511 14.001 11.6529C14.001 11.6547 14.001 11.6565 14.001 11.6583C14.001 11.6602 14.001 11.662 14.001 11.6638C14.001 11.6657 14.001 11.6675 14.001 11.6694C14.001 11.6712 14.001 11.6731 14.001 11.6749C14.001 11.6768 14.001 11.6786 14.001 11.6805C14.001 11.6824 14.001 11.6843 14.001 11.6861C14.001 11.688 14.001 11.6899 14.001 11.6918C14.001 11.6937 14.001 11.6956 14.001 11.6975C14.001 11.6994 14.001 11.7013 14.001 11.7032C14.001 11.7051 14.001 11.707 14.001 11.7089C14.001 11.7108 14.001 11.7127 14.001 11.7147C14.001 11.7166 14.001 11.7185 14.001 11.7205C14.001 11.7224 14.001 11.7244 14.001 11.7263C14.001 11.7282 14.001 11.7302 14.001 11.7322C14.001 11.7341 14.001 11.7361 14.001 11.738C14.001 11.74 14.001 11.742 14.001 11.7439C14.001 11.7459 14.001 11.7479 14.001 11.7499C14.001 11.7519 14.001 11.7539 14.001 11.7559C14.001 11.7578 14.001 11.7598 14.001 11.7618C14.001 11.7639 14.001 11.7659 14.001 11.7679C14.001 11.7699 14.001 11.7719 14.001 11.7739C14.001 11.7759 14.001 11.778 14.001 11.78C14.001 11.782 14.001 11.7841 14.001 11.7861C14.001 11.7881 14.001 11.7902 14.001 11.7922C14.001 11.7943 14.001 11.7963 14.001 11.7984C14.001 11.8005 14.001 11.8025 14.001 11.8046C14.001 11.8067 14.001 11.8087 14.001 11.8108C14.001 11.8129 14.001 11.815 14.001 11.817C14.001 11.8191 14.001 11.8212 14.001 11.8233C14.001 11.8254 14.001 11.8275 14.001 11.8296C14.001 11.8317 14.001 11.8338 14.001 11.8359C14.001 11.838 14.001 11.8402 14.001 11.8423C14.001 11.8444 14.001 11.8465 14.001 11.8487C14.001 11.8508 14.001 11.8529 14.001 11.8551C14.001 11.8572 14.001 11.8593 14.001 11.8615C14.001 11.8636 14.001 11.8658 14.001 11.8679C14.001 11.8701 14.001 11.8722 14.001 11.8744C14.001 11.8766 14.001 11.8787 14.001 11.8809C14.001 11.8831 14.001 11.8853 14.001 11.8874C14.001 11.8896 14.001 11.8918 14.001 11.894C14.001 11.8962 14.001 11.8984 14.001 11.9006C14.001 11.9028 14.001 11.905 14.001 11.9072C14.001 11.9094 14.001 11.9116 14.001 11.9138C14.001 11.916 14.001 11.9182 14.001 11.9204C14.001 11.9227 14.001 11.9249 14.001 11.9271C14.001 11.9293 14.001 11.9316 14.001 11.9338C14.001 11.9361 14.001 11.9383 14.001 11.9405C14.001 11.9428 14.001 11.945 14.001 11.9473C14.001 11.9495 14.001 11.9518 14.001 11.9541C14.001 11.9563 14.001 11.9586 14.001 11.9609C14.001 11.9631 14.001 11.9654 14.001 11.9677C14.001 11.9699 14.001 11.9722 14.001 11.9745C14.001 11.9768 14.001 11.9791 14.001 11.9814C14.001 11.9837 14.001 11.986 14.001 11.9883C14.001 11.9906 14.001 11.9929 14.001 11.9952C14.001 11.9975 14.001 11.9998 14.001 12.0021C14.001 12.0044 14.001 12.0067 14.001 12.0091C14.001 12.0114 14.001 12.0137 14.001 12.016C14.001 12.0184 14.001 12.0207 14.001 12.023C14.001 12.0254 14.001 12.0277 14.001 12.0301C14.001 12.0324 14.001 12.0348 14.001 12.0371C14.001 12.0395 14.001 12.0418 14.001 12.0442C14.001 12.0465 14.001 12.0489 14.001 12.0513C14.001 12.0536 14.001 12.056 14.001 12.0584C14.001 12.0607 14.001 12.0631 14.001 12.0655C14.001 12.0679 14.001 12.0703 14.001 12.0727C14.001 12.075 14.001 12.0774 14.001 12.0798C14.001 12.0822 14.001 12.0846 14.001 12.087C14.001 12.0894 14.001 12.0918 14.001 12.0942C14.001 12.0966 14.001 12.0991 14.001 12.1015C14.001 12.1039 14.001 12.1063 14.001 12.1087C14.001 12.1111 14.001 12.1136 14.001 12.116C14.001 12.1184 14.001 12.1209 14.001 12.1233C14.001 12.1257 14.001 12.1282 14.001 12.1306C14.001 12.1331 14.001 12.1355 14.001 12.138C14.001 12.1404 14.001 12.1429 14.001 12.1453C14.001 12.1478 14.001 12.1502 14.001 12.1527C14.001 12.1552 14.001 12.1576 14.001 12.1601C14.001 12.1626 14.001 12.165 14.001 12.1675C14.001 12.17 14.001 12.1725 14.001 12.1749C14.001 12.1774 14.001 12.1799 14.001 12.1824C14.001 12.1849 14.001 12.1874 14.001 12.1899C14.001 12.1924 14.001 12.1949 14.001 12.1974C14.001 12.1999 14.001 12.2024 14.001 12.2049C14.001 12.2074 14.001 12.2099 14.001 12.2124C14.001 12.2149 14.001 12.2174 14.001 12.2199C14.001 12.2225 14.001 12.225 14.001 12.2275C14.001 12.23 14.001 12.2326 14.001 12.2351C14.001 12.2376 14.001 12.2402 14.001 12.2427C14.001 12.2452 14.001 12.2478 14.001 12.2503C14.001 12.2529 14.001 12.2554 14.001 12.258C14.001 12.2605 14.001 12.2631 14.001 12.2656C14.001 12.2682 14.001 12.2707 14.001 12.2733C14.001 12.2758 14.001 12.2784 14.001 12.281C14.001 12.2835 14.001 12.2861 14.001 12.2887C14.001 12.2913 14.001 12.2938 14.001 12.2964C14.001 12.299 14.001 12.3016 14.001 12.3041C14.001 12.3067 14.001 12.3093 14.001 12.3119C14.001 12.3145 14.001 12.3171 14.001 12.3197C14.001 12.3223 14.001 12.3249 14.001 12.3275C14.001 12.3301 14.001 12.3327 14.001 12.3353C14.001 12.3379 14.001 12.3405 14.001 12.3431C14.001 12.3457 14.001 12.3483 14.001 12.3509C14.001 12.3536 14.001 12.3562 14.001 12.3588C14.001 12.3614 14.001 12.364 14.001 12.3667C14.001 12.3693 14.001 12.3719 14.001 12.3745C14.001 12.3772 14.001 12.3798 14.001 12.3824C14.001 12.3851 14.001 12.3877 14.001 12.3904C14.001 12.393 14.001 12.3956 14.001 12.3983C14.001 12.4009 14.001 12.4036 14.001 12.4062C14.001 12.4089 14.001 12.4115 14.001 12.4142C14.001 12.4169 14.001 12.4195 14.001 12.4222C14.001 12.4248 14.001 12.4275 14.001 12.4302C14.001 12.4328 14.001 12.4355 14.001 12.4382C14.001 12.4408 14.001 12.4435 14.001 12.4462C14.001 12.4489 14.001 12.4515 14.001 12.4542C14.001 12.4569 14.001 12.4596 14.001 12.4623C14.001 12.465 14.001 12.4676 14.001 12.4703C14.001 12.473 14.001 12.4757 14.001 12.4784C14.001 12.4811 14.001 12.4838 14.001 12.4865C14.001 12.4892 14.001 12.4919 14.001 12.4946C14.001 12.4973 14.001 12.5 14.001 12.5027C14.001 12.5054 14.001 12.5081 14.001 12.5108C14.001 12.5135 14.001 12.5163 14.001 12.519C14.001 12.5217 14.001 12.5244 14.001 12.5271C14.001 12.5299 14.001 12.5326 14.001 12.5353C14.001 12.538 14.001 12.5407 14.001 12.5435C14.001 12.5462 14.001 12.5489 14.001 12.5517C14.001 12.5544 14.001 12.5571 14.001 12.5599C14.001 12.5626 14.001 12.5653 14.001 12.5681C14.001 12.5708 14.001 12.5736 14.001 12.5763C14.001 12.5791 14.001 12.5818 14.001 12.5846C14.001 12.5873 14.001 12.59 14.001 12.5928C14.001 12.5956 14.001 12.5983 14.001 12.6011C14.001 12.6038 14.001 12.6066 14.001 12.6093C14.001 12.6121 14.001 12.6149 14.001 12.6176C14.001 12.6204 14.001 12.6231 14.001 12.6259C14.001 12.6287 14.001 12.6315 14.001 12.6342C14.001 12.637 14.001 12.6398 14.001 12.6425C14.001 12.6453 14.001 12.6481 14.001 12.6509C14.001 12.6536 14.001 12.6564 14.001 12.6592C14.001 12.662 14.001 12.6648 14.001 12.6676C14.001 12.6703 14.001 12.6731 14.001 12.6759C14.001 12.6787 14.001 12.6815 14.001 12.6843C14.001 12.6871 14.001 12.6899 14.001 12.6927C14.001 12.6955 14.001 12.6983 14.001 12.701C14.001 12.7038 14.001 12.7066 14.001 12.7094C14.001 12.7122 14.001 12.7151 14.001 12.7179C14.001 12.7207 14.001 12.7235 14.001 12.7263C14.001 12.7291 14.001 12.7319 14.001 12.7347C14.001 12.7375 14.001 12.7403 14.001 12.7431C14.001 12.7459 14.001 12.7488 14.001 12.7516C14.001 12.7544 14.001 12.7572 14.001 12.76C14.001 12.7628 14.001 12.7657 14.001 12.7685C14.001 12.7713 14.001 12.7741 14.001 12.777C14.001 12.7798 14.001 12.7826 14.001 12.7854C14.001 12.7883 14.001 12.7911 14.001 12.7939C14.001 12.7968 14.001 12.7996 14.001 12.8024C14.001 12.8053 14.001 12.8081 14.001 12.8109C14.001 12.8138 14.001 12.8166 14.001 12.8194C14.001 12.8223 14.001 12.8251 14.001 12.8279C14.001 12.8308 14.001 12.8336 14.001 12.8365C14.001 12.8393 14.001 12.8422 14.001 12.845C14.001 12.8479 14.001 12.8507 14.001 12.8535C14.001 12.8564 14.001 12.8592 14.001 12.8621C14.001 12.8649 14.001 12.8678 14.001 12.8706C14.001 12.8735 14.001 12.8764 14.001 12.8792C14.001 12.8821 14.001 12.8849 14.001 12.8878C14.001 12.8906 14.001 12.8935 14.001 12.8963C14.001 12.8992 14.001 12.9021 14.001 12.9049C14.001 12.9078 14.001 12.9106 14.001 12.9135C14.001 12.9164 14.001 12.9192 14.001 12.9221C14.001 12.925 14.001 12.9278 14.001 12.9307C14.001 12.9336 14.001 12.9364 14.001 12.9393C14.001 12.9422 14.001 12.945 14.001 12.9479C14.001 12.9508 14.001 12.9537 14.001 12.9565C14.001 12.9594 14.001 12.9623 14.001 12.9651C14.001 12.968 14.001 12.9709 14.001 12.9738C14.001 12.9766 14.001 12.9795 14.001 12.9824C14.001 12.9853 14.001 12.9882 14.001 12.991C14.001 12.9939 14.001 12.9968 14.001 12.9997C14.001 13.0026 14.001 13.0054 14.001 13.0083C14.001 13.0112 14.001 13.0141 14.001 13.017C14.001 13.0198 14.001 13.0227 14.001 13.0256C14.001 13.0285 14.001 13.0314 14.001 13.0343C14.001 13.0372 14.001 13.04 14.001 13.0429C14.001 13.0458 14.001 13.0487 14.001 13.0516C14.001 13.0545 14.001 13.0574 14.001 13.0603C14.001 13.0632 14.001 13.066 14.001 13.0689C14.001 13.0718 14.001 13.0747 14.001 13.0776C14.001 13.0805 14.001 13.0834 14.001 13.0863C14.001 13.0892 14.001 13.0921 14.001 13.095C14.001 13.0979 14.001 13.1008 14.001 13.1037C14.001 13.1066 14.001 13.1094 14.001 13.1123C14.001 13.1152 14.001 13.1181 14.001 13.121C14.001 13.1239 14.001 13.1268 14.001 13.1297C14.001 13.1326 14.001 13.1355 14.001 13.1384C14.001 13.1413 14.001 13.1442 14.001 13.1471C14.001 13.15 14.001 13.1529 14.001 13.1558C14.001 13.1587 14.001 13.1616 14.001 13.1645C14.001 13.1674 14.001 13.1703 14.001 13.1732C14.001 13.1761 14.001 13.179 14.001 13.1819C14.001 13.1848 14.001 13.1877 14.001 13.1906C14.001 13.1935 14.001 13.1964 14.001 13.1993C14.001 13.2022 14.001 13.2051 14.001 13.2081C14.001 13.211 14.001 13.2139 14.001 13.2168C14.001 13.2197 14.001 13.2226 14.001 13.2255C14.001 13.2284 14.001 13.2313 14.001 13.2342C14.001 13.2371 14.001 13.24 14.001 13.2429C14.001 13.2458 14.001 13.2487 14.001 13.2516C14.001 13.2545 14.001 13.2574 14.001 13.2603C14.001 13.2632 14.001 13.2661 14.001 13.269C14.001 13.2719 14.001 13.2748 14.001 13.2778C14.001 13.2807 14.001 13.2836 14.001 13.2865C14.001 13.2894 14.001 13.2923 14.001 13.2952C14.001 13.2981 14.001 13.301 14.001 13.3039C14.001 13.3068 14.001 13.3097 14.001 13.3126C14.001 13.3155 14.001 13.3184 14.001 13.3213C14.001 13.3242 14.001 13.3271 14.001 13.33C14.001 13.3329 14.001 13.3358 14.001 13.3387C14.001 13.3416 14.001 13.3445 14.001 13.3474C14.001 13.3504 14.001 13.3533 14.001 13.3562C14.001 13.3591 14.001 13.362 14.001 13.3649C14.001 13.3678 14.001 13.3707 14.001 13.3736C14.001 13.3765 14.001 13.3794 14.001 13.3823C14.001 13.3852 14.001 13.3881 14.001 13.391C14.001 13.3939 14.001 13.3968 14.001 13.3997C14.001 13.4026 14.001 13.4055 14.001 13.4084C14.001 13.4113 14.001 13.4142 14.001 13.4171C14.001 13.42 14.001 13.4229 14.001 13.4258C14.001 13.4287 14.001 13.4316 14.001 13.4345C14.001 13.4374 14.001 13.4402 14.001 13.4431C14.001 13.446 14.001 13.4489 14.001 13.4518C14.001 13.4547 14.001 13.4576 14.001 13.4605C14.001 13.4634 14.001 13.4663 14.001 13.4692C14.001 13.4721 14.001 13.475 14.001 13.4779C14.001 13.4808 14.001 13.4836 14.001 13.4865C14.001 13.4894 14.001 13.4923 14.001 13.4952C14.001 13.4981 14.001 13.501 14.001 13.5039C14.001 13.5068 14.001 13.5096 14.001 13.5125C14.001 13.5154 14.001 13.5183 14.001 13.5212C14.001 13.5241 14.001 13.527 14.001 13.5298C14.001 13.5327 14.001 13.5356 14.001 13.5385C14.001 13.5414 14.001 13.5443 14.001 13.5471C14.001 13.55 14.001 13.5529 14.001 13.5558C14.001 13.5587 14.001 13.5615 14.001 13.5644C14.001 13.5673 14.001 13.5702 14.001 13.5731C14.001 13.5759 14.001 13.5788 14.001 13.5817C14.001 13.5846 14.001 13.5874 14.001 13.5903C14.001 13.5932 14.001 13.596 14.001 13.5989C14.001 13.6018 14.001 13.6047 14.001 13.6075C14.001 13.6104 14.001 13.6133 14.001 13.6161C14.001 13.619 14.001 13.6219 14.001 13.6247C14.001 13.6276 14.001 13.6305 14.001 13.6333C14.001 13.6362 14.001 13.6391 14.001 13.6419C14.001 13.6448 14.001 13.6476 14.001 13.6505C14.001 13.6534 14.001 13.6562 14.001 13.6591C14.001 13.6619 14.001 13.6648 14.001 13.6676C14.001 13.6705 14.001 13.6733 14.001 13.6762C14.001 13.6791 14.001 13.6819 14.001 13.6848C14.001 13.6876 14.001 13.6905 14.001 13.6933C14.001 13.6962 14.001 13.699 14.001 13.7018C14.001 13.7047 14.001 13.7075 14.001 13.7104C14.001 13.7132 14.001 13.7161 14.001 13.7189C14.001 13.7218 14.001 13.7246 14.001 13.7274C14.001 13.7303 14.001 13.7331 14.001 13.7359C14.001 13.7388 14.001 13.7416 14.001 13.7444C14.001 13.7473 14.001 13.7501 14.001 13.7529C14.001 13.7558 14.001 13.7586 14.001 13.7614C14.001 13.7643 14.001 13.7671 14.001 13.7699C14.001 13.7727 14.001 13.7756 14.001 13.7784C14.001 13.7812 14.001 13.784 14.001 13.7869C14.001 13.7897 14.001 13.7925 14.001 13.7953C14.001 13.7981 14.001 13.8009 14.001 13.8038C14.001 13.8066 14.001 13.8094 14.001 13.8122C14.001 13.815 14.001 13.8178 14.001 13.8206C14.001 13.8234 14.001 13.8262 14.001 13.829C14.001 13.8319 14.001 13.8347 14.001 13.8375C14.001 13.8403 14.001 13.8431 14.001 13.8459C14.001 13.8487 14.001 13.8515 14.001 13.8542C14.001 13.857 14.001 13.8598 14.001 13.8626C14.001 13.8654 14.001 13.8682 14.001 13.871C14.001 13.8738 14.001 13.8766 14.001 13.8794C14.001 13.8822 14.001 13.8849 14.001 13.8877C14.001 13.8905 14.001 13.8933 14.001 13.8961C14.001 13.8988 14.001 13.9016 14.001 13.9044C14.001 13.9072 14.001 13.9099 14.001 13.9127C14.001 13.9155 14.001 13.9183 14.001 13.921C14.001 13.9238 14.001 13.9266 14.001 13.9293C14.001 13.9321 14.001 13.9349 14.001 13.9376C14.001 13.9404 14.001 13.9431 14.001 13.9459C14.001 13.9486 14.001 13.9514 14.001 13.9542C14.001 13.9569 14.001 13.9597 14.001 13.9624C14.001 13.9652 14.001 13.9679 14.001 13.9707C14.001 13.9734 14.001 13.9761 14.001 13.9789C14.001 13.9816 14.001 13.9844 14.001 13.9871C14.001 13.9898 14.001 13.9926 14.001 13.9953C14.001 13.998 14.001 14.0008 14.001 14.0035C14.001 14.0062 14.001 14.009 14.001 14.0117C14.001 14.0144 14.001 14.0171 14.001 14.0199C14.001 14.0226 14.001 14.0253 14.001 14.028C14.001 14.0307 14.001 14.0335 14.001 14.0362C14.001 14.0389 14.001 14.0416 14.001 14.0443C14.001 14.047 14.001 14.0497 14.001 14.0524C14.001 14.0551 14.001 14.0578 14.001 14.0605C14.001 14.0632 14.001 14.0659 14.001 14.0686C14.001 14.0713 14.001 14.074 14.001 14.0767C14.001 14.0794 14.001 14.0821 14.001 14.0848C14.001 14.0874 14.001 14.0901 14.001 14.0928C14.001 14.0955 14.001 14.0982 14.001 14.1009C14.001 14.1035 14.001 14.1062 14.001 14.1089C14.001 14.1115 14.001 14.1142 14.001 14.1169C14.001 14.1196 14.001 14.1222 14.001 14.1249C14.001 14.1275 14.001 14.1302 14.001 14.1329C14.001 14.1355 14.001 14.1382 14.001 14.1408C14.001 14.1435 14.001 14.1461 14.001 14.1488C14.001 14.1514 14.001 14.1541 14.001 14.1567C14.001 14.1594 14.001 14.162 14.001 14.1646C14.001 14.1673 14.001 14.1699 14.001 14.1725C14.001 14.1752 14.001 14.1778 14.001 14.1804C14.001 14.1831 14.001 14.1857 14.001 14.1883C14.001 14.1909 14.001 14.1936 14.001 14.1962C14.001 14.1988 14.001 14.2014 14.001 14.204C14.001 14.2066 14.001 14.2092 14.001 14.2118C14.001 14.2145 14.001 14.2171 14.001 14.2197C14.001 14.2223 14.001 14.2249 14.001 14.2275C14.001 14.2301 14.001 14.2326 14.001 14.2352C14.001 14.2378 14.001 14.2404 14.001 14.243C14.001 14.2456 14.001 14.2482 14.001 14.2507C14.001 14.2533 14.001 14.2559 14.001 14.2585C14.001 14.261 14.001 14.2636 14.001 14.2662C14.001 14.2688 14.001 14.2713 14.001 14.2739C14.001 14.2764 14.001 14.279 14.001 14.2816C14.001 14.2841 14.001 14.2867 14.001 14.2892C14.001 14.2918 14.001 14.2943 14.001 14.2969C14.001 14.2994 14.001 14.302 14.001 14.3045C14.001 14.307 14.001 14.3096 14.001 14.3121C14.001 14.3146 14.001 14.3172 14.001 14.3197C14.001 14.3222 14.001 14.3247 14.001 14.3273C14.001 14.3298 14.001 14.3323 14.001 14.3348C14.001 14.3373 14.001 14.3398 14.001 14.3424C14.001 14.3449 14.001 14.3474 14.001 14.3499C14.001 14.3524 14.001 14.3549 14.001 14.3574C14.001 14.3599 14.001 14.3624 14.001 14.3649C14.001 14.3673 14.001 14.3698 14.001 14.3723C14.001 14.3748 14.001 14.3773 14.001 14.3798C14.001 14.3822 14.001 14.3847 14.001 14.3872C14.001 14.3897 14.001 14.3921 14.001 14.3946C14.001 14.3971 14.001 14.3995 14.001 14.402C14.001 14.4044 14.001 14.4069 14.001 14.4093C14.001 14.4118 14.001 14.4142 14.001 14.4167C14.001 14.4191 14.001 14.4216 14.001 14.424C14.001 14.4264 14.001 14.4289 14.001 14.4313C14.001 14.4337 14.001 14.4362 14.001 14.4386C14.001 14.441 14.001 14.4434 14.001 14.4459C14.001 14.4483 14.001 14.4507 14.001 14.4531C14.001 14.4555 14.001 14.4579 14.001 14.4603C14.001 14.4627 14.001 14.4651 14.001 14.4675C14.001 14.4699 14.001 14.4723 14.001 14.4747C14.001 14.4771 14.001 14.4795 14.001 14.4819C14.001 14.4843 14.001 14.4866 14.001 14.489C14.001 14.4914 14.001 14.4938 14.001 14.4961C14.001 14.4985 14.001 14.5009 14.001 14.5032C14.001 14.5056 14.001 14.5079 14.001 14.5103C14.001 14.5126 14.001 14.515 14.001 14.5173C14.001 14.5197 14.001 14.522 14.001 14.5244C14.001 14.5267 14.001 14.5291 14.001 14.5314C14.001 14.5337 14.001 14.536 14.001 14.5384C14.001 14.5407 14.001 14.543 14.001 14.5453C14.001 14.5477 14.001 14.55 14.001 14.5523C14.001 14.5546 14.001 14.5569 14.001 14.5592C14.001 14.5615 14.001 14.5638 14.001 14.5661C14.001 14.5684 14.001 14.5707 14.001 14.573C14.001 14.5752 14.001 14.5775 14.001 14.5798C14.001 14.5821 14.001 14.5844 14.001 14.5866C14.001 14.5889 14.001 14.5912 14.001 14.5934C14.001 14.5957 14.001 14.598 14.001 14.6002H16.001ZM15.4482 10.3608L14.0582 9.66578L13.1638 11.4546L14.5538 12.1496L15.4482 10.3608ZM10.8383 11.4546C11.5702 11.0886 12.4318 11.0886 13.1638 11.4546L14.0582 9.66578C12.7632 9.01827 11.2389 9.01826 9.94384 9.66578L10.8383 11.4546ZM12.0576 5.79999H2.40047V7.79999H12.0576V5.79999Z" fill="white"/>
</svg>
