<svg width="24" height="24" viewBox="0 0 24 24" fill="none" xmlns="http://www.w3.org/2000/svg">
<path d="M9.69279 16.5073C10.0833 16.8978 10.7165 16.8978 11.107 16.5073C11.4975 16.1167 11.4975 15.4836 11.107 15.093L9.69279 16.5073ZM8.3999 13.8001L7.69279 13.093C7.30227 13.4836 7.30227 14.1167 7.69279 14.5073L8.3999 13.8001ZM11.107 12.5073C11.4975 12.1167 11.4975 11.4836 11.107 11.093C10.7165 10.7025 10.0833 10.7025 9.69279 11.093L11.107 12.5073ZM14.307 11.093C13.9165 10.7025 13.2833 10.7025 12.8928 11.093C12.5023 11.4836 12.5023 12.1167 12.8928 12.5073L14.307 11.093ZM15.5999 13.8001L16.307 14.5073C16.6975 14.1167 16.6975 13.4836 16.307 13.093L15.5999 13.8001ZM12.8928 15.093C12.5023 15.4836 12.5023 16.1167 12.8928 16.5073C13.2833 16.8978 13.9165 16.8978 14.307 16.5073L12.8928 15.093ZM3.77133 5.19995H9.25704V3.19995H3.77133V5.19995ZM9.62847 5.59995V7.99995H11.6285V5.59995H9.62847ZM9.62847 7.99995V8.19995H11.6285V7.99995H9.62847ZM9.25704 5.19995C9.44284 5.19995 9.62847 5.3595 9.62847 5.59995H11.6285C11.6285 4.29401 10.5861 3.19995 9.25704 3.19995V5.19995ZM3.77133 3.19995C2.44229 3.19995 1.3999 4.29401 1.3999 5.59995H3.3999C3.3999 5.3595 3.58553 5.19995 3.77133 5.19995V3.19995ZM2.3999 8.99995H10.6285V6.99995H2.3999V8.99995ZM10.6285 8.99995H20.2285V6.99995H10.6285V8.99995ZM20.5999 9.39995V18.4H22.5999V9.39995H20.5999ZM20.2285 18.8H3.77133V20.7999H20.2285V18.8ZM3.3999 18.4V7.99995H1.3999V18.4H3.3999ZM3.77133 18.8C3.58554 18.8 3.3999 18.6404 3.3999 18.4H1.3999C1.3999 19.7059 2.44229 20.7999 3.77133 20.7999V18.8ZM20.5999 18.4C20.5999 18.6404 20.4143 18.8 20.2285 18.8V20.7999C21.5575 20.7999 22.5999 19.7059 22.5999 18.4H20.5999ZM20.2285 8.99995C20.4143 8.99995 20.5999 9.1595 20.5999 9.39995H22.5999C22.5999 8.09401 21.5575 6.99995 20.2285 6.99995V8.99995ZM11.107 15.093L9.10701 13.093L7.69279 14.5073L9.69279 16.5073L11.107 15.093ZM9.10701 14.5073L11.107 12.5073L9.69279 11.093L7.69279 13.093L9.10701 14.5073ZM12.8928 12.5073L14.8928 14.5073L16.307 13.093L14.307 11.093L12.8928 12.5073ZM14.8928 13.093L12.8928 15.093L14.307 16.5073L16.307 14.5073L14.8928 13.093ZM3.3999 7.99995V5.59995H1.3999V7.99995H3.3999Z" fill="white"/>
</svg>
