<svg width="24" height="24" viewBox="0 0 24 24" fill="none" xmlns="http://www.w3.org/2000/svg">
<path d="M16.5175 10.5H20.5332C21.1223 10.5 21.5999 10.9776 21.5999 11.5667V17.798V18.1C21.5999 19.2046 20.7045 20.1 19.5999 20.1H4.7999M2.3999 4.96666V18C2.3999 19.1598 3.3401 20.1 4.4999 20.1V20.1C5.6597 20.1 6.5999 19.1598 6.5999 18V11.5667C6.5999 10.9776 7.07746 10.5 7.66657 10.5H19.4666V7.97843C19.4666 7.38932 18.989 6.91176 18.3999 6.91176H11.3725L9.7425 4.38797C9.54603 4.08375 9.20861 3.89999 8.84646 3.89999H3.46657C2.87747 3.89999 2.3999 4.37756 2.3999 4.96666Z" stroke="white" stroke-width="2" stroke-linecap="round" stroke-linejoin="round"/>
</svg>
