<svg width="24" height="24" viewBox="0 0 24 24" fill="none" xmlns="http://www.w3.org/2000/svg">
<path d="M12 16.8L12 13.4059M12 13.4059L12 10.0118M12 13.4059L8.60587 13.4059M12 13.4059L15.3941 13.4059M2.40093 17.541L2.40102 8.41669C2.40102 7.50277 2.40068 6.20103 2.40039 5.25849C2.40019 4.59557 2.93752 4.05879 3.60044 4.05879H9.31865L12.0837 7.01243H20.4C21.0627 7.01243 21.6 7.54971 21.6 8.21247L21.5997 17.5411C21.5996 18.8666 20.5251 19.9411 19.1997 19.9411L4.80092 19.941C3.47543 19.941 2.40091 18.8665 2.40093 17.541Z" stroke="white" stroke-width="2" stroke-linecap="round" stroke-linejoin="round"/>
</svg>
