<svg width="24" height="24" viewBox="0 0 24 24" fill="none" xmlns="http://www.w3.org/2000/svg">
<path d="M12.0837 19.941H4.80093C3.47543 19.941 2.40091 18.8665 2.40093 17.541L2.40102 8.41667C2.40102 7.50275 2.40068 6.20102 2.40039 5.25847C2.40019 4.59555 2.93752 4.05878 3.60044 4.05878H9.31865L12.0837 7.01241H20.4C21.0627 7.01241 21.6 7.54967 21.6 8.21241V11.4M19.8 18.6L21 19.8M20.4 16.2C20.4 17.8568 19.0568 19.2 17.4 19.2C15.7431 19.2 14.4 17.8568 14.4 16.2C14.4 14.5431 15.7431 13.2 17.4 13.2C19.0568 13.2 20.4 14.5431 20.4 16.2Z" stroke="white" stroke-width="2" stroke-linecap="round" stroke-linejoin="round"/>
</svg>
