<svg width="24" height="24" viewBox="0 0 24 24" fill="none" xmlns="http://www.w3.org/2000/svg">
<path d="M1.40627 15.9674C1.34406 16.5161 1.7385 17.0114 2.28727 17.0736C2.83604 17.1358 3.33134 16.7414 3.39354 16.1926L1.40627 15.9674ZM3.5199 6.19915L2.8772 5.43303C2.68077 5.59782 2.55514 5.83176 2.52627 6.08652L3.5199 6.19915ZM6.4026 5.08612C6.82572 4.73116 6.88097 4.10041 6.52602 3.6773C6.17107 3.25418 5.54032 3.19893 5.1172 3.55388L6.4026 5.08612ZM20.6063 16.1926C20.6685 16.7414 21.1638 17.1358 21.7125 17.0736C22.2613 17.0114 22.6557 16.5161 22.5935 15.9674L20.6063 16.1926ZM20.4799 6.19915L21.4735 6.08652C21.4447 5.83176 21.319 5.59782 21.1226 5.43303L20.4799 6.19915ZM18.8826 3.55388C18.4595 3.19893 17.8287 3.25418 17.4738 3.6773C17.1188 4.10041 17.1741 4.73116 17.5972 5.08612L18.8826 3.55388ZM8.1199 16.32C8.1199 17.6234 7.06329 18.68 5.7599 18.68V20.68C8.16786 20.68 10.1199 18.728 10.1199 16.32H8.1199ZM5.7599 18.68C4.45651 18.68 3.3999 17.6234 3.3999 16.32H1.3999C1.3999 18.728 3.35194 20.68 5.7599 20.68V18.68ZM3.3999 16.32C3.3999 15.0166 4.45651 13.96 5.7599 13.96V11.96C3.35194 11.96 1.3999 13.912 1.3999 16.32H3.3999ZM5.7599 13.96C7.06329 13.96 8.1199 15.0166 8.1199 16.32H10.1199C10.1199 13.912 8.16786 11.96 5.7599 11.96V13.96ZM9.95504 16.1007C10.3646 15.3927 11.1276 14.92 11.9999 14.92V12.92C10.3848 12.92 8.97618 13.7987 8.22383 15.0993L9.95504 16.1007ZM11.9999 14.92C12.8722 14.92 13.6352 15.3927 14.0448 16.1007L15.776 15.0993C15.0237 13.7987 13.615 12.92 11.9999 12.92V14.92ZM20.5999 16.32C20.5999 17.6234 19.5433 18.68 18.2399 18.68V20.68C20.6479 20.68 22.5999 18.728 22.5999 16.32H20.5999ZM18.2399 18.68C16.9365 18.68 15.8799 17.6234 15.8799 16.32H13.8799C13.8799 18.728 15.8319 20.68 18.2399 20.68V18.68ZM15.8799 16.32C15.8799 15.0166 16.9365 13.96 18.2399 13.96V11.96C15.8319 11.96 13.8799 13.912 13.8799 16.32H15.8799ZM18.2399 13.96C19.5433 13.96 20.5999 15.0166 20.5999 16.32H22.5999C22.5999 13.912 20.6479 11.96 18.2399 11.96V13.96ZM3.39354 16.1926L4.51354 6.31178L2.52627 6.08652L1.40627 15.9674L3.39354 16.1926ZM4.1626 6.96527L6.4026 5.08612L5.1172 3.55388L2.8772 5.43303L4.1626 6.96527ZM22.5935 15.9674L21.4735 6.08652L19.4863 6.31178L20.6063 16.1926L22.5935 15.9674ZM21.1226 5.43303L18.8826 3.55388L17.5972 5.08612L19.8372 6.96527L21.1226 5.43303Z" fill="white"/>
</svg>
