<svg width="24" height="25" viewBox="0 0 24 25" fill="none" xmlns="http://www.w3.org/2000/svg">
<path d="M1.40627 15.9969C1.34406 16.5457 1.7385 17.041 2.28727 17.1032C2.83604 17.1654 3.33134 16.7709 3.39354 16.2222L1.40627 15.9969ZM3.5199 6.2287L2.8772 5.46258C2.68077 5.62737 2.55514 5.8613 2.52627 6.11607L3.5199 6.2287ZM6.4026 5.11567C6.82572 4.76071 6.88097 4.12996 6.52602 3.70685C6.17107 3.28373 5.54032 3.22848 5.1172 3.58343L6.4026 5.11567ZM20.6063 16.2222C20.6685 16.7709 21.1638 17.1654 21.7125 17.1032C22.2613 17.041 22.6557 16.5457 22.5935 15.9969L20.6063 16.2222ZM20.4799 6.2287L21.4735 6.11607C21.4447 5.8613 21.319 5.62737 21.1226 5.46258L20.4799 6.2287ZM18.8826 3.58343C18.4595 3.22848 17.8287 3.28373 17.4738 3.70685C17.1188 4.12996 17.1741 4.76071 17.5972 5.11567L18.8826 3.58343ZM8.1199 16.3495C8.1199 17.6529 7.06329 18.7095 5.7599 18.7095V20.7095C8.16786 20.7095 10.1199 18.7575 10.1199 16.3495H8.1199ZM5.7599 18.7095C4.45651 18.7095 3.3999 17.6529 3.3999 16.3495H1.3999C1.3999 18.7575 3.35194 20.7095 5.7599 20.7095V18.7095ZM3.3999 16.3495C3.3999 15.0462 4.45651 13.9895 5.7599 13.9895V11.9895C3.35194 11.9895 1.3999 13.9416 1.3999 16.3495H3.3999ZM5.7599 13.9895C7.06329 13.9895 8.1199 15.0462 8.1199 16.3495H10.1199C10.1199 13.9416 8.16786 11.9895 5.7599 11.9895V13.9895ZM9.95504 16.1303C10.3646 15.4223 11.1276 14.9495 11.9999 14.9495V12.9495C10.3848 12.9495 8.97618 13.8282 8.22383 15.1288L9.95504 16.1303ZM11.9999 14.9495C12.8722 14.9495 13.6352 15.4223 14.0448 16.1303L15.776 15.1288C15.0237 13.8282 13.615 12.9495 11.9999 12.9495V14.9495ZM20.5999 16.3495C20.5999 17.6529 19.5433 18.7095 18.2399 18.7095V20.7095C20.6479 20.7095 22.5999 18.7575 22.5999 16.3495H20.5999ZM18.2399 18.7095C16.9365 18.7095 15.8799 17.6529 15.8799 16.3495H13.8799C13.8799 18.7575 15.8319 20.7095 18.2399 20.7095V18.7095ZM15.8799 16.3495C15.8799 15.0462 16.9365 13.9895 18.2399 13.9895V11.9895C15.8319 11.9895 13.8799 13.9416 13.8799 16.3495H15.8799ZM18.2399 13.9895C19.5433 13.9895 20.5999 15.0462 20.5999 16.3495H22.5999C22.5999 13.9416 20.6479 11.9895 18.2399 11.9895V13.9895ZM3.39354 16.2222L4.51354 6.34133L2.52627 6.11607L1.40627 15.9969L3.39354 16.2222ZM4.1626 6.99481L6.4026 5.11567L5.1172 3.58343L2.8772 5.46258L4.1626 6.99481ZM22.5935 15.9969L21.4735 6.11607L19.4863 6.34133L20.6063 16.2222L22.5935 15.9969ZM21.1226 5.46258L18.8826 3.58343L17.5972 5.11567L19.8372 6.99482L21.1226 5.46258Z" fill="white"/>
</svg>
