<svg width="24" height="25" viewBox="0 0 24 25" fill="none" xmlns="http://www.w3.org/2000/svg">
<path d="M8.1199 12.0296C8.1199 13.3329 7.06329 14.3896 5.7599 14.3896V16.3896C8.16786 16.3896 10.1199 14.4375 10.1199 12.0296H8.1199ZM5.7599 14.3896C4.45651 14.3896 3.3999 13.3329 3.3999 12.0296H1.3999C1.3999 14.4375 3.35194 16.3896 5.7599 16.3896V14.3896ZM3.3999 12.0296C3.3999 10.7262 4.45651 9.66956 5.7599 9.66956V7.66956C3.35194 7.66956 1.3999 9.62159 1.3999 12.0296H3.3999ZM5.7599 9.66956C7.06329 9.66956 8.1199 10.7262 8.1199 12.0296H10.1199C10.1199 9.62159 8.16786 7.66956 5.7599 7.66956V9.66956ZM9.95504 11.8103C10.3646 11.1023 11.1277 10.6296 11.9999 10.6296V8.62956C10.3848 8.62956 8.97618 9.50823 8.22383 10.8088L9.95504 11.8103ZM11.9999 10.6296C12.8722 10.6296 13.6352 11.1023 14.0448 11.8103L15.776 10.8088C15.0237 9.50823 13.615 8.62956 11.9999 8.62956V10.6296ZM20.5999 12.0296C20.5999 13.3329 19.5433 14.3896 18.2399 14.3896V16.3896C20.6479 16.3896 22.5999 14.4375 22.5999 12.0296H20.5999ZM18.2399 14.3896C16.9365 14.3896 15.8799 13.3329 15.8799 12.0296H13.8799C13.8799 14.4375 15.8319 16.3896 18.2399 16.3896V14.3896ZM15.8799 12.0296C15.8799 10.7262 16.9365 9.66956 18.2399 9.66956V7.66956C15.8319 7.66956 13.8799 9.62159 13.8799 12.0296H15.8799ZM18.2399 9.66956C19.5433 9.66956 20.5999 10.7262 20.5999 12.0296H22.5999C22.5999 9.62159 20.6479 7.66956 18.2399 7.66956V9.66956Z" fill="white"/>
</svg>
