<svg width="24" height="25" viewBox="0 0 24 25" fill="none" xmlns="http://www.w3.org/2000/svg">
<path d="M3.52197 17.4295L4.68788 16.1828C6.36055 17.8762 8.68373 18.536 11.252 18.536C16.3474 18.536 20.478 14.4054 20.478 9.31005C20.478 6.78297 19.462 4.49319 17.8161 2.82693L18.9817 1.82953M11.7505 18.536V22.2295M11.7505 22.2295H6.26483M11.7505 22.2295H16.9869M16.722 9.02953C16.722 12.3432 14.0357 15.0295 10.722 15.0295C7.40826 15.0295 4.72197 12.3432 4.72197 9.02953C4.72197 5.71582 7.40826 3.02953 10.722 3.02953C14.0357 3.02953 16.722 5.71582 16.722 9.02953Z" stroke="white" stroke-width="2" stroke-linecap="round" stroke-linejoin="round"/>
</svg>
