<svg width="24" height="25" viewBox="0 0 24 25" fill="none" xmlns="http://www.w3.org/2000/svg">
<path d="M18.4475 18.2834L17.939 17.4223L18.4475 18.2834ZM18.939 17.4223H17.939H18.939ZM10.9657 21.433L10.4292 22.277L10.9657 21.433ZM13.0555 21.4673L13.564 22.3284L13.0555 21.4673ZM1.90419 8.16633L1.39226 7.3073L1.90419 8.16633ZM1.90419 9.02536L1.39226 9.88439L1.90419 9.02536ZM12.512 14.7368L13.024 15.5958L12.512 14.7368ZM11.4882 14.7368L12.0001 13.8778L11.4882 14.7368ZM22.096 8.16633L22.6079 7.3073L22.096 8.16633ZM22.096 9.02536L21.5841 8.16633L22.096 9.02536ZM6.01768 18.2878L6.55413 17.4439L6.01768 18.2878ZM12.512 2.45486L12.0001 3.31389L12.512 2.45486ZM11.4882 2.45486L12.0001 3.31389L11.4882 2.45486ZM23.2001 8.5792C23.2001 8.02691 22.7524 7.5792 22.2001 7.5792C21.6478 7.5792 21.2001 8.02691 21.2001 8.5792H23.2001ZM21.2001 13.9792C21.2001 14.5315 21.6478 14.9792 22.2001 14.9792C22.7524 14.9792 23.2001 14.5315 23.2001 13.9792H21.2001ZM12.0001 3.31389L21.5841 9.02536L22.6079 7.3073L13.024 1.59583L12.0001 3.31389ZM21.5841 8.16633L12.0001 13.8778L13.024 15.5958L22.6079 9.88439L21.5841 8.16633ZM2.41612 9.02536L12.0001 3.31389L10.9762 1.59583L1.39226 7.3073L2.41612 9.02536ZM12.0001 13.8778L6.06606 10.3415L5.0422 12.0595L10.9762 15.5958L12.0001 13.8778ZM6.06606 10.3415L2.41612 8.16633L1.39226 9.88439L5.0422 12.0595L6.06606 10.3415ZM4.55413 11.2005V17.4439H6.55413V11.2005H4.55413ZM5.48123 19.1317L10.4292 22.277L11.5021 20.5891L6.55413 17.4439L5.48123 19.1317ZM13.564 22.3284L18.956 19.1445L17.939 17.4223L12.5471 20.6063L13.564 22.3284ZM19.939 17.4223L19.939 11.2005H17.939L17.939 17.4223H19.939ZM18.956 19.1445C19.5652 18.7847 19.939 18.1298 19.939 17.4223H17.939L18.956 19.1445ZM10.4292 22.277C11.3814 22.8822 12.5925 22.9021 13.564 22.3284L12.5471 20.6063C12.2232 20.7975 11.8195 20.7909 11.5021 20.5891L10.4292 22.277ZM1.39226 7.3073C0.416118 7.88902 0.416123 9.30267 1.39226 9.88439L2.41612 8.16633C2.7415 8.36023 2.7415 8.83145 2.41612 9.02536L1.39226 7.3073ZM12.0001 13.8778L12.0001 13.8778L10.9762 15.5958C11.6071 15.9718 12.3931 15.9718 13.024 15.5958L12.0001 13.8778ZM21.5841 9.02536C21.2587 8.83145 21.2587 8.36024 21.5841 8.16633L22.6079 9.88439C23.5841 9.30266 23.5841 7.88902 22.6079 7.3073L21.5841 9.02536ZM4.55413 17.4439C4.55413 18.128 4.90384 18.7647 5.48123 19.1317L6.55413 17.4439V17.4439H4.55413ZM13.024 1.59583C12.3931 1.21991 11.6071 1.21991 10.9762 1.59583L12.0001 3.31389L12.0001 3.31389L13.024 1.59583ZM21.2001 8.5792V13.9792H23.2001V8.5792H21.2001Z" fill="white"/>
</svg>
