<svg width="24" height="25" viewBox="0 0 24 25" fill="none" xmlns="http://www.w3.org/2000/svg">
<path d="M5.43098 11.9976L11.365 15.5339C11.6804 15.7219 12.0735 15.7219 12.3889 15.5339L21.9729 9.82248C22.2982 9.62858 22.2982 9.15736 21.9729 8.96345L12.3889 3.25199C12.0735 3.06402 11.6804 3.06402 11.365 3.25199L1.78104 8.96345C1.45566 9.15736 1.45566 9.62858 1.78104 9.82248L5.43098 11.9976ZM5.43098 11.9976L5.43098 18.241C5.43098 18.5831 5.60584 18.9014 5.89453 19.0849L10.8425 22.2302C11.4773 22.6337 12.2847 22.6469 12.9324 22.2645L18.3244 19.0805C18.629 18.9006 18.8159 18.5732 18.8159 18.2194L18.8159 11.9976" stroke="white" stroke-width="2"/>
</svg>
