<svg width="24" height="24" viewBox="0 0 24 24" fill="none" xmlns="http://www.w3.org/2000/svg">
<path d="M2.3999 3.60002C2.3999 2.93728 2.93716 2.40002 3.5999 2.40002H5.9999C6.66264 2.40002 7.1999 2.93728 7.1999 3.60002V6.00002C7.1999 6.66277 6.66264 7.20002 5.9999 7.20002H3.5999C2.93716 7.20002 2.3999 6.66277 2.3999 6.00002V3.60002Z" stroke="white" stroke-width="2"/>
<path d="M9.5999 3.60002C9.5999 2.93728 10.1372 2.40002 10.7999 2.40002H13.1999C13.8626 2.40002 14.3999 2.93728 14.3999 3.60002V6.00002C14.3999 6.66277 13.8626 7.20002 13.1999 7.20002H10.7999C10.1372 7.20002 9.5999 6.66277 9.5999 6.00002V3.60002Z" stroke="white" stroke-width="2"/>
<path d="M16.7999 3.60002C16.7999 2.93728 17.3372 2.40002 17.9999 2.40002H20.3999C21.0626 2.40002 21.5999 2.93728 21.5999 3.60002V6.00002C21.5999 6.66277 21.0626 7.20002 20.3999 7.20002H17.9999C17.3372 7.20002 16.7999 6.66277 16.7999 6.00002V3.60002Z" stroke="white" stroke-width="2"/>
<path d="M2.3999 10.8C2.3999 10.1373 2.93716 9.60002 3.5999 9.60002H5.9999C6.66264 9.60002 7.1999 10.1373 7.1999 10.8V13.2C7.1999 13.8628 6.66264 14.4 5.9999 14.4H3.5999C2.93716 14.4 2.3999 13.8628 2.3999 13.2V10.8Z" stroke="white" stroke-width="2"/>
<path d="M9.5999 10.8C9.5999 10.1373 10.1372 9.60002 10.7999 9.60002H13.1999C13.8626 9.60002 14.3999 10.1373 14.3999 10.8V13.2C14.3999 13.8628 13.8626 14.4 13.1999 14.4H10.7999C10.1372 14.4 9.5999 13.8628 9.5999 13.2V10.8Z" stroke="white" stroke-width="2"/>
<path d="M16.7999 10.8C16.7999 10.1373 17.3372 9.60002 17.9999 9.60002H20.3999C21.0626 9.60002 21.5999 10.1373 21.5999 10.8V13.2C21.5999 13.8628 21.0626 14.4 20.3999 14.4H17.9999C17.3372 14.4 16.7999 13.8628 16.7999 13.2V10.8Z" stroke="white" stroke-width="2"/>
<path d="M2.3999 18C2.3999 17.3373 2.93716 16.8 3.5999 16.8H5.9999C6.66264 16.8 7.1999 17.3373 7.1999 18V20.4C7.1999 21.0628 6.66264 21.6 5.9999 21.6H3.5999C2.93716 21.6 2.3999 21.0628 2.3999 20.4V18Z" stroke="white" stroke-width="2"/>
<path d="M9.5999 18C9.5999 17.3373 10.1372 16.8 10.7999 16.8H13.1999C13.8626 16.8 14.3999 17.3373 14.3999 18V20.4C14.3999 21.0628 13.8626 21.6 13.1999 21.6H10.7999C10.1372 21.6 9.5999 21.0628 9.5999 20.4V18Z" stroke="white" stroke-width="2"/>
<path d="M16.7999 18C16.7999 17.3373 17.3372 16.8 17.9999 16.8H20.3999C21.0626 16.8 21.5999 17.3373 21.5999 18V20.4C21.5999 21.0628 21.0626 21.6 20.3999 21.6H17.9999C17.3372 21.6 16.7999 21.0628 16.7999 20.4V18Z" stroke="white" stroke-width="2"/>
</svg>
