<svg width="24" height="24" viewBox="0 0 24 24" fill="none" xmlns="http://www.w3.org/2000/svg">
<path d="M8.26133 16.7998V11.8152M8.26133 16.7998H6.59979M8.26133 16.7998H9.92287M8.26133 11.8152V6.83061M8.26133 11.8152H15.7383M8.26133 6.83061H6.59979M8.26133 6.83061H9.92287M15.7383 11.8152V16.7998M15.7383 11.8152V6.83061M15.7383 16.7998H14.0767M15.7383 16.7998H17.3998M15.7383 6.83061H14.0767M15.7383 6.83061H17.3998M4.7999 21.6H19.1999C20.5254 21.6 21.5999 20.5255 21.5999 19.2V4.80002C21.5999 3.47454 20.5254 2.40002 19.1999 2.40002H4.7999C3.47442 2.40002 2.3999 3.47454 2.3999 4.80002V19.2C2.3999 20.5255 3.47442 21.6 4.7999 21.6Z" stroke="white" stroke-width="2" stroke-linecap="round" stroke-linejoin="round"/>
</svg>
