<svg width="24" height="24" viewBox="0 0 24 24" fill="none" xmlns="http://www.w3.org/2000/svg">
<path d="M3 14.3548H7.17801M3 14.3548L7.1196 14.3537C7.13918 14.3537 7.15866 14.3541 7.17801 14.3548M3 14.3548L3 18.24C3 18.7702 3.53726 19.2 4.2 19.2H7.12C7.78274 19.2 8.32 18.7702 8.32 18.24V15.3137C8.32 14.7991 7.81379 14.379 7.17801 14.3548M3 14.3548L3 9.50823M7.17801 14.3548H12.776C13.4387 14.3548 13.976 13.925 13.976 13.3948V10.4682C13.976 9.93803 13.4387 9.50823 12.776 9.50823M3 9.50823H12.776M3 9.50823L3 5.76C3 5.22981 3.53726 4.8 4.2 4.8L19.8 4.8C20.4627 4.8 21 5.22981 21 5.76V8.54823C21 9.07842 20.4627 9.50823 19.8 9.50823L12.776 9.50823M3 21.6V2.4" stroke="white" stroke-width="2" stroke-linecap="round" stroke-linejoin="round"/>
</svg>
