<svg width="24" height="24" viewBox="0 0 24 24" fill="none" xmlns="http://www.w3.org/2000/svg">
<path d="M2.91211 14.3548H14.2901M2.91211 14.3548L14.2317 14.3537C14.2513 14.3537 14.2708 14.3541 14.2901 14.3548M2.91211 14.3548L2.91211 18.24C2.91211 18.7702 3.44937 19.2 4.11211 19.2H14.2321C14.8949 19.2 15.4321 18.7702 15.4321 18.24V15.3137C15.4321 14.7991 14.9259 14.379 14.2901 14.3548M2.91211 14.3548L2.91211 9.50822M14.2901 14.3548H19.8881C20.5509 14.3548 21.0881 13.925 21.0881 13.3948V10.4682C21.0881 9.93803 20.5509 9.50822 19.8881 9.50822M2.91211 9.50822H19.8881M2.91211 9.50822L2.91211 5.75999C2.91211 5.2298 3.44937 4.79999 4.11211 4.79999L8.91211 4.79999C9.57485 4.79999 10.1121 5.2298 10.1121 5.75999V8.54822C10.1121 9.07841 9.57485 9.50822 8.91211 9.50822L19.8881 9.50822M2.91211 21.6V2.39999" stroke="white" stroke-width="2" stroke-linecap="round" stroke-linejoin="round"/>
</svg>
