<svg width="24" height="24" viewBox="0 0 24 24" fill="none" xmlns="http://www.w3.org/2000/svg">
<path d="M2.3999 20.4L1.61903 19.7753C1.3789 20.0755 1.33208 20.4867 1.4986 20.8332C1.66512 21.1796 2.0155 21.4 2.3999 21.4V20.4ZM7.6799 13.8L8.46077 13.1753C8.271 12.9381 7.98369 12.8 7.6799 12.8C7.37612 12.8 7.0888 12.9381 6.89903 13.1753L7.6799 13.8ZM9.5999 16.2L8.81903 16.8247C9.0088 17.0619 9.29612 17.2 9.5999 17.2C9.90369 17.2 10.191 17.0619 10.3808 16.8247L9.5999 16.2ZM13.9199 10.8L14.7008 10.1753C14.511 9.93807 14.2237 9.79998 13.9199 9.79998C13.6161 9.79998 13.3288 9.93807 13.139 10.1753L13.9199 10.8ZM21.5999 20.4V21.4C21.9843 21.4 22.3347 21.1796 22.5012 20.8332C22.6677 20.4867 22.6209 20.0755 22.3808 19.7753L21.5999 20.4ZM7.3999 5.39998C7.3999 5.8418 7.04173 6.19998 6.5999 6.19998V8.19998C8.1463 8.19998 9.3999 6.94637 9.3999 5.39998H7.3999ZM6.5999 6.19998C6.15807 6.19998 5.7999 5.8418 5.7999 5.39998H3.7999C3.7999 6.94637 5.0535 8.19998 6.5999 8.19998V6.19998ZM5.7999 5.39998C5.7999 4.95815 6.15807 4.59998 6.5999 4.59998V2.59998C5.0535 2.59998 3.7999 3.85358 3.7999 5.39998H5.7999ZM6.5999 4.59998C7.04173 4.59998 7.3999 4.95815 7.3999 5.39998H9.3999C9.3999 3.85358 8.1463 2.59998 6.5999 2.59998V4.59998ZM3.18077 21.0247L8.46077 14.4247L6.89903 13.1753L1.61903 19.7753L3.18077 21.0247ZM6.89903 14.4247L8.81903 16.8247L10.3808 15.5753L8.46077 13.1753L6.89903 14.4247ZM10.3808 16.8247L14.7008 11.4247L13.139 10.1753L8.81903 15.5753L10.3808 16.8247ZM13.139 11.4247L20.819 21.0247L22.3808 19.7753L14.7008 10.1753L13.139 11.4247ZM21.5999 19.4H2.3999V21.4H21.5999V19.4Z" fill="white"/>
</svg>
