<svg width="24" height="24" viewBox="0 0 24 24" fill="none" xmlns="http://www.w3.org/2000/svg">
<path d="M5.69714 20.5L14.7557 11.9743L19.0186 16.2371M5.69714 20.5H16.3543C18.12 20.5 19.5514 19.0686 19.5514 17.3029V11.9743M5.69714 20.5C3.93141 20.5 2.5 19.0686 2.5 17.3029V6.64572C2.5 4.87999 3.93141 3.44858 5.69714 3.44858H12.6243M15.4714 6.64572H21.5M8.89428 8.24429C8.89428 9.12716 8.17858 9.84286 7.29571 9.84286C6.41285 9.84286 5.69714 9.12716 5.69714 8.24429C5.69714 7.36143 6.41285 6.64572 7.29571 6.64572C8.17858 6.64572 8.89428 7.36143 8.89428 8.24429Z" stroke="white" stroke-width="2" stroke-linecap="round" stroke-linejoin="round"/>
</svg>
