<svg width="24" height="24" viewBox="0 0 24 24" fill="none" xmlns="http://www.w3.org/2000/svg">
<path d="M19.3999 15.6C19.3999 16.1523 19.8476 16.6 20.3999 16.6C20.9522 16.6 21.3999 16.1523 21.3999 15.6H19.3999ZM2.5999 15.6C2.5999 16.1523 3.04762 16.6 3.5999 16.6C4.15219 16.6 4.5999 16.1523 4.5999 15.6H2.5999ZM5.6999 5.2H18.2999V3.2H5.6999V5.2ZM19.3999 6.23077V15.6H21.3999V6.23077H19.3999ZM4.5999 15.6V6.23077H2.5999V15.6H4.5999ZM18.2999 5.2C18.9393 5.2 19.3999 5.69282 19.3999 6.23077H21.3999C21.3999 4.52559 19.9801 3.2 18.2999 3.2V5.2ZM5.6999 3.2C4.01968 3.2 2.5999 4.52558 2.5999 6.23077H4.5999C4.5999 5.69282 5.06053 5.2 5.6999 5.2V3.2ZM3.5999 17.2H20.3999V15.2H3.5999V17.2ZM20.5999 17.4V18.6H22.5999V17.4H20.5999ZM20.3999 18.8H3.5999V20.8H20.3999V18.8ZM3.3999 18.6V17.4H1.3999V18.6H3.3999ZM3.5999 18.8C3.48945 18.8 3.3999 18.7105 3.3999 18.6H1.3999C1.3999 19.815 2.38488 20.8 3.5999 20.8V18.8ZM20.5999 18.6C20.5999 18.7105 20.5104 18.8 20.3999 18.8V20.8C21.6149 20.8 22.5999 19.815 22.5999 18.6H20.5999ZM20.3999 17.2C20.5104 17.2 20.5999 17.2895 20.5999 17.4H22.5999C22.5999 16.185 21.6149 15.2 20.3999 15.2V17.2ZM3.5999 15.2C2.38488 15.2 1.3999 16.185 1.3999 17.4H3.3999C3.3999 17.2895 3.48945 17.2 3.5999 17.2V15.2Z" fill="white"/>
</svg>
