<svg width="24" height="24" viewBox="0 0 24 24" fill="none" xmlns="http://www.w3.org/2000/svg">
<path d="M11.1999 2.40002C11.1999 1.84774 10.7522 1.40002 10.1999 1.40002C9.64762 1.40002 9.1999 1.84774 9.1999 2.40002H11.1999ZM9.1999 21.6C9.1999 22.1523 9.64762 22.6 10.1999 22.6C10.7522 22.6 11.1999 22.1523 11.1999 21.6H9.1999ZM5.9999 3.40002H17.9999V1.40002H5.9999V3.40002ZM20.5999 6.00002V18H22.5999V6.00002H20.5999ZM17.9999 20.6H5.9999V22.6H17.9999V20.6ZM3.3999 18V6.00002H1.3999V18H3.3999ZM5.9999 20.6C4.56396 20.6 3.3999 19.436 3.3999 18H1.3999C1.3999 20.5405 3.45939 22.6 5.9999 22.6V20.6ZM20.5999 18C20.5999 19.436 19.4358 20.6 17.9999 20.6V22.6C20.5404 22.6 22.5999 20.5405 22.5999 18H20.5999ZM17.9999 3.40002C19.4358 3.40002 20.5999 4.56408 20.5999 6.00002H22.5999C22.5999 3.45951 20.5404 1.40002 17.9999 1.40002V3.40002ZM5.9999 1.40002C3.45939 1.40002 1.3999 3.45951 1.3999 6.00002H3.3999C3.3999 4.56408 4.56396 3.40002 5.9999 3.40002V1.40002ZM9.1999 2.40002V21.6H11.1999V2.40002H9.1999ZM10.1999 13H20.9999V11H10.1999V13Z" fill="white"/>
</svg>
