<svg width="24" height="24" viewBox="0 0 24 24" fill="none" xmlns="http://www.w3.org/2000/svg">
<path d="M6.5998 8.80002V7.88574C6.5998 4.84683 9.00838 2.40002 11.9998 2.40002C14.9912 2.40002 17.3998 4.84683 17.3998 7.88574V8.80002M6.5998 8.80002C5.6098 8.80002 4.7998 9.62288 4.7998 10.6286V19.7714C4.7998 20.7772 5.6098 21.6 6.5998 21.6H17.3998C18.3898 21.6 19.1998 20.7772 19.1998 19.7714V10.6286C19.1998 9.62288 18.3898 8.80002 17.3998 8.80002M6.5998 8.80002H17.3998M11.9998 13.3715C12.9898 13.3715 13.7998 14.1943 13.7998 15.2C13.7998 16.2057 12.9898 17.0286 11.9998 17.0286C11.0098 17.0286 10.1998 16.2057 10.1998 15.2C10.1998 14.1943 11.0098 13.3715 11.9998 13.3715Z" stroke="white" stroke-width="2"/>
</svg>
