<svg width="24" height="24" viewBox="0 0 24 24" fill="none" xmlns="http://www.w3.org/2000/svg">
<path d="M11.9999 14.4L11.3437 15.1546C11.72 15.4818 12.2798 15.4818 12.6561 15.1546L11.9999 14.4ZM6.87308 15.2543C7.40436 15.1034 7.71274 14.5504 7.56186 14.0192C7.41099 13.4879 6.858 13.1795 6.32672 13.3304L6.87308 15.2543ZM17.6731 13.3304C17.1418 13.1795 16.5888 13.4879 16.4379 14.0192C16.2871 14.5504 16.5954 15.1034 17.1267 15.2543L17.6731 13.3304ZM15.7999 7.09565C15.7999 7.64022 15.5846 8.3164 15.1704 9.08165C14.7635 9.83352 14.2084 10.592 13.6328 11.2802C13.06 11.965 12.4844 12.5597 12.0506 12.9841C11.8343 13.1956 11.6549 13.3634 11.5306 13.4772C11.4686 13.5341 11.4204 13.5774 11.3884 13.6058C11.3725 13.6201 11.3606 13.6306 11.353 13.6372C11.3492 13.6406 11.3465 13.6429 11.345 13.6443C11.3442 13.645 11.3437 13.6454 11.3435 13.6456C11.3434 13.6457 11.3434 13.6457 11.3434 13.6457C11.3434 13.6457 11.3435 13.6456 11.3435 13.6456C11.3436 13.6455 11.3437 13.6454 11.9999 14.4C12.6561 15.1546 12.6562 15.1545 12.6564 15.1543C12.6565 15.1542 12.6567 15.1541 12.6568 15.1539C12.6572 15.1536 12.6576 15.1533 12.6581 15.1529C12.659 15.152 12.6602 15.151 12.6618 15.1496C12.6648 15.147 12.669 15.1433 12.6743 15.1386C12.6849 15.1293 12.7 15.116 12.7192 15.0989C12.7575 15.0647 12.8125 15.0152 12.8817 14.9519C13.0199 14.8252 13.2155 14.6424 13.4492 14.4137C13.9154 13.9576 14.5398 13.3132 15.167 12.5633C15.7914 11.8167 16.4363 10.9447 16.9294 10.0336C17.4152 9.13576 17.7999 8.11629 17.7999 7.09565H15.7999ZM11.9999 14.4C12.6561 13.6454 12.6562 13.6455 12.6563 13.6456C12.6563 13.6456 12.6564 13.6457 12.6564 13.6457C12.6564 13.6457 12.6564 13.6457 12.6563 13.6456C12.6561 13.6454 12.6556 13.645 12.6548 13.6443C12.6533 13.6429 12.6506 13.6406 12.6468 13.6372C12.6392 13.6306 12.6273 13.6201 12.6114 13.6058C12.5794 13.5774 12.5312 13.5341 12.4692 13.4772C12.3449 13.3634 12.1655 13.1956 11.9492 12.9841C11.5154 12.5597 10.9398 11.965 10.367 11.2802C9.79141 10.592 9.23627 9.83352 8.82938 9.08165C8.41524 8.3164 8.1999 7.64022 8.1999 7.09565H6.1999C6.1999 8.11629 6.58457 9.13576 7.07043 10.0336C7.56354 10.9447 8.20839 11.8167 8.83283 12.5633C9.46004 13.3132 10.0844 13.9576 10.5506 14.4137C10.7843 14.6424 10.9799 14.8252 11.1181 14.9519C11.1873 15.0152 11.2423 15.0647 11.2806 15.0989C11.2998 15.116 11.3149 15.1293 11.3255 15.1386C11.3308 15.1433 11.335 15.147 11.338 15.1496C11.3396 15.151 11.3408 15.152 11.3417 15.1529C11.3422 15.1533 11.3426 15.1536 11.343 15.1539C11.3431 15.1541 11.3433 15.1542 11.3434 15.1543C11.3436 15.1545 11.3437 15.1546 11.9999 14.4ZM8.1999 7.09565C8.1999 5.0752 9.88039 3.39999 11.9999 3.39999V1.39999C8.81749 1.39999 6.1999 3.92942 6.1999 7.09565H8.1999ZM11.9999 3.39999C14.1194 3.39999 15.7999 5.0752 15.7999 7.09565H17.7999C17.7999 3.92942 15.1823 1.39999 11.9999 1.39999V3.39999ZM20.5999 17.6C20.5999 17.8039 20.5049 18.0887 20.1437 18.4446C19.7789 18.8039 19.1998 19.1736 18.4035 19.5053C16.8153 20.1671 14.5518 20.6 11.9999 20.6V22.6C14.7499 22.6 17.2865 22.1374 19.1727 21.3515C20.1137 20.9594 20.9405 20.4671 21.5473 19.8694C22.1576 19.2681 22.5999 18.5006 22.5999 17.6H20.5999ZM11.9999 20.6C9.44796 20.6 7.18453 20.1671 5.59629 19.5053C4.79999 19.1736 4.22087 18.8039 3.8561 18.4446C3.49486 18.0887 3.3999 17.8039 3.3999 17.6H1.3999C1.3999 18.5006 1.8422 19.2681 2.45253 19.8694C3.05934 20.4671 3.88611 20.9594 4.82706 21.3515C6.71334 22.1374 9.2499 22.6 11.9999 22.6V20.6ZM3.3999 17.6C3.3999 17.349 3.55094 16.9618 4.15965 16.4926C4.75833 16.0312 5.67851 15.5935 6.87308 15.2543L6.32672 13.3304C4.98597 13.7111 3.80615 14.2399 2.93866 14.9086C2.0812 15.5695 1.3999 16.4761 1.3999 17.6H3.3999ZM17.1267 15.2543C18.3213 15.5935 19.2415 16.0312 19.8402 16.4926C20.4489 16.9618 20.5999 17.349 20.5999 17.6H22.5999C22.5999 16.4761 21.9186 15.5695 21.0611 14.9086C20.1936 14.2399 19.0138 13.7111 17.6731 13.3304L17.1267 15.2543Z" fill="white"/>
</svg>
