<svg width="24" height="24" viewBox="0 0 24 24" fill="none" xmlns="http://www.w3.org/2000/svg">
<path d="M3.0001 7.19999L21.0001 7.19999M3.0001 16.8L21.0001 16.8M12.0001 2.39999L12.0001 21.6M16.8001 2.39999L16.8001 7.19999M16.8001 16.8L16.8001 21.6M7.2001 2.39999L7.2001 7.19999M7.2001 16.8L7.2001 21.6M5.99999 2.39999L18.0001 2.4C19.9883 2.4 21.6001 4.01177 21.6001 6L21.6001 18C21.6001 19.9882 19.9883 21.6 18.0001 21.6L5.99999 21.6C4.01176 21.6 2.39999 19.9882 2.39999 18L2.39999 5.99999C2.39999 4.01177 4.01176 2.39999 5.99999 2.39999Z" stroke="white" stroke-width="2" stroke-linecap="round" stroke-linejoin="round"/>
</svg>
