<svg width="24" height="24" viewBox="0 0 24 24" fill="none" xmlns="http://www.w3.org/2000/svg">
<path d="M22.5989 12.6C22.5989 12.0478 22.1512 11.6 21.5989 11.6C21.0466 11.6 20.5989 12.0478 20.5989 12.6H22.5989ZM20.7834 16.478L19.8688 16.0737C19.7931 16.2449 19.767 16.434 19.7935 16.6194L20.7834 16.478ZM16.6978 20.9734L16.9404 20.0033C16.6925 19.9413 16.4303 19.9766 16.2076 20.1018L16.6978 20.9734ZM21.6007 22.1991L21.3582 23.1693C21.6812 23.25 22.0232 23.1647 22.2705 22.9417C22.5177 22.7187 22.6378 22.3873 22.5907 22.0577L21.6007 22.1991ZM10.3853 4.151C10.9279 4.04807 11.2843 3.52476 11.1814 2.98215C11.0785 2.43955 10.5552 2.08311 10.0126 2.18604L10.3853 4.151ZM20.5989 12.6C20.5989 13.8382 20.3379 15.0127 19.8688 16.0737L21.698 16.8824C22.2776 15.5715 22.5989 14.122 22.5989 12.6H20.5989ZM11.9989 21.2001C7.24928 21.2001 3.39893 17.3497 3.39893 12.6H1.39893C1.39893 18.4543 6.14471 23.2001 11.9989 23.2001V21.2001ZM16.2076 20.1018C14.9645 20.8009 13.5298 21.2001 11.9989 21.2001V23.2001C13.882 23.2001 15.6533 22.7081 17.188 21.845L16.2076 20.1018ZM21.8433 21.229L16.9404 20.0033L16.4553 21.9436L21.3582 23.1693L21.8433 21.229ZM19.7935 16.6194L20.6108 22.3406L22.5907 22.0577L21.7734 16.3366L19.7935 16.6194ZM3.39893 12.6C3.39893 8.40265 6.40697 4.90567 10.3853 4.151L10.0126 2.18604C5.10779 3.11645 1.39893 7.42405 1.39893 12.6H3.39893ZM20.5989 5.40005C20.5989 6.83599 19.4349 8.00005 17.9989 8.00005V10C20.5394 10 22.5989 7.94056 22.5989 5.40005H20.5989ZM17.9989 8.00005C16.563 8.00005 15.3989 6.83599 15.3989 5.40005H13.3989C13.3989 7.94056 15.4584 10 17.9989 10V8.00005ZM15.3989 5.40005C15.3989 3.96411 16.563 2.80005 17.9989 2.80005V0.800049C15.4584 0.800049 13.3989 2.85954 13.3989 5.40005H15.3989ZM17.9989 2.80005C19.4349 2.80005 20.5989 3.96411 20.5989 5.40005H22.5989C22.5989 2.85954 20.5394 0.800049 17.9989 0.800049V2.80005Z" fill="white"/>
</svg>
