<svg width="24" height="24" viewBox="0 0 24 24" fill="none" xmlns="http://www.w3.org/2000/svg">
<path d="M4.39795 11.1771C4.66378 13.0036 5.57833 14.6734 6.9743 15.8809C8.37026 17.0884 10.1543 17.7529 12.0001 17.7529M12.0001 17.7529C13.8458 17.7529 15.6298 17.0884 17.0258 15.8809C18.4218 14.6734 19.3363 13.0036 19.6022 11.1771M12.0001 17.7529V21.6M12.0011 2.39999C11.1282 2.39999 10.291 2.74677 9.67376 3.36403C9.05649 3.98129 8.70972 4.81848 8.70972 5.69142V10.08C8.70972 10.9529 9.05649 11.7901 9.67376 12.4074C10.291 13.0246 11.1282 13.3714 12.0011 13.3714C12.8741 13.3714 13.7113 13.0246 14.3285 12.4074C14.9458 11.7901 15.2926 10.9529 15.2926 10.08V5.69142C15.2926 4.81848 14.9458 3.98129 14.3285 3.36403C13.7113 2.74677 12.8741 2.39999 12.0011 2.39999Z" stroke="white" stroke-width="2" stroke-linecap="round" stroke-linejoin="round"/>
</svg>
