<svg width="24" height="24" viewBox="0 0 24 24" fill="none" xmlns="http://www.w3.org/2000/svg">
<path d="M9.17561 3.36404C9.79288 2.74678 10.6301 2.4 11.503 2.4C12.3759 2.4 13.2131 2.74678 13.8304 3.36404C14.4477 3.9813 14.7944 4.81849 14.7944 5.69143V9M3.8998 11.1771C4.16563 13.0036 5.08019 14.6734 6.47615 15.8809C7.87212 17.0884 9.65616 17.7529 11.5019 17.7529M11.5019 17.7529C13.3477 17.7529 15.1317 17.0884 16.5277 15.8809C17.9236 14.6734 18.8382 13.0036 19.104 11.1771M11.5019 17.7529V21.6M8.21158 7.8V10.08C8.21158 10.9529 8.55835 11.7901 9.17561 12.4074C9.79288 13.0247 10.6301 13.3714 11.503 13.3714C12.0615 13.3714 12.6054 13.2295 13.0864 12.9656M3.2998 2.4L20.6998 19.8" stroke="white" stroke-width="2" stroke-linecap="round" stroke-linejoin="round"/>
</svg>
