<svg width="24" height="24" viewBox="0 0 24 24" fill="none" xmlns="http://www.w3.org/2000/svg">
<path d="M7.7921 6.51618V12.0044C7.7921 13.0961 8.22576 14.1431 8.9977 14.915C9.76963 15.6869 10.8166 16.1206 11.9083 16.1206C13 16.1206 14.0469 15.6869 14.8189 14.915C15.034 14.6999 15.2228 14.4634 15.3833 14.2105M2.3999 13.3765C2.73234 15.6607 3.87606 17.7488 5.62182 19.2589C7.36758 20.7689 9.59866 21.6 11.9069 21.6C14.2152 21.6 16.4462 20.7689 18.192 19.2589C19.9378 17.7488 21.0815 15.6607 21.4139 13.3765M16.0245 9V6.51618C16.0245 5.4245 15.5908 4.37753 14.8189 3.6056C14.0469 2.83367 13 2.4 11.9083 2.4C11.1472 2.4 10.4079 2.61077 9.7683 3M4.1999 2.4L21.5999 19.8" stroke="white" stroke-width="2" stroke-linecap="round" stroke-linejoin="round"/>
</svg>
