<svg width="24" height="24" viewBox="0 0 24 24" fill="none" xmlns="http://www.w3.org/2000/svg">
<path d="M9.58587 16.818C9.29209 16.1782 8.0888 15.2441 7.78938 15.1093C7.10444 14.7265 6.30815 14.5731 5.52401 14.673C4.73987 14.773 4.0117 15.1206 3.45241 15.6619C2.89313 16.2033 2.53399 16.9082 2.43069 17.6673C2.32739 18.4265 2.4857 19.1973 2.88107 19.8605C3.27645 20.5236 3.88679 21.0419 4.61745 21.335C5.34811 21.6281 6.15825 21.6797 6.92224 21.4816C7.68623 21.2836 8.36137 20.847 8.84297 20.2397C9.32456 19.6323 9.5857 18.8881 9.58588 18.1224V5.91015C9.58588 5.44266 9.90976 5.03756 10.3658 4.93467L21.5999 2.4L21.5998 15.64M21.5998 15.64L21.5999 16.9446C21.5997 17.7103 21.3386 18.4545 20.857 19.0619C20.3754 19.6692 19.7003 20.1058 18.9363 20.3038C18.1723 20.5019 17.3621 20.4503 16.6315 20.1572C15.9008 19.8641 15.2905 19.3458 14.8951 18.6827C14.4997 18.0195 14.3414 17.2486 14.4447 16.4895C14.548 15.7304 14.9072 15.0255 15.4664 14.4841C16.0257 13.9427 16.7539 13.5951 17.538 13.4952C18.3222 13.3953 19.1185 13.5487 19.8034 13.9315C20.1028 14.0663 21.3058 15.0002 21.5998 15.64Z" stroke="white" stroke-width="2" stroke-linecap="round" stroke-linejoin="round"/>
</svg>
