<svg width="18" height="19" viewBox="0 0 18 19" fill="none" xmlns="http://www.w3.org/2000/svg">
<g filter="url(#filter0_d_1_14309)">
<path d="M5.38001 9.22862C5.28001 8.85862 5.18001 8.37862 4.97001 7.67862C4.76001 6.97862 4.63001 6.81862 4.50001 6.44862C4.37001 6.07862 4.20001 5.72862 4.00001 5.26862C3.81681 4.79867 3.66318 4.31773 3.54001 3.82862C3.45677 3.41642 3.55919 2.98848 3.82001 2.65862C4.17887 2.30844 4.69669 2.17517 5.18001 2.30862C5.55866 2.47421 5.87908 2.74935 6.10001 3.09862C6.39505 3.57029 6.63654 4.0734 6.82001 4.59862C7.10175 5.31825 7.30623 6.06578 7.43001 6.82862L7.52001 7.27862C7.52001 7.27862 7.52001 6.15862 7.52001 6.11862C7.52001 5.11862 7.46001 4.29862 7.52001 3.17862C7.52001 3.04862 7.58001 2.58862 7.60001 2.45862C7.62586 2.02858 7.88213 1.6461 8.27001 1.45862C8.71529 1.25883 9.22473 1.25883 9.67001 1.45862C10.0686 1.63705 10.3347 2.02263 10.36 2.45862C10.36 2.56862 10.45 3.45862 10.45 3.56862C10.45 4.56862 10.45 5.20862 10.45 5.73862C10.45 5.96862 10.45 7.36862 10.45 7.20862C10.4736 5.88908 10.5872 4.57268 10.79 3.26862C10.9085 2.86006 11.196 2.52163 11.58 2.33862C12.0549 2.15156 12.5945 2.24405 12.98 2.57862C13.2682 2.89491 13.4378 3.30131 13.46 3.72862C13.46 4.13862 13.46 4.62862 13.46 4.97862C13.46 5.84862 13.46 6.29862 13.46 7.09862C13.46 7.09862 13.46 7.39862 13.46 7.27862C13.55 6.99862 13.65 6.73862 13.73 6.53862C13.81 6.33862 13.97 5.92862 14.09 5.67862C14.2121 5.44028 14.3491 5.20983 14.5 4.98862C14.6568 4.73435 14.8919 4.53784 15.17 4.42862C15.4205 4.3318 15.6993 4.33977 15.9439 4.45074C16.1884 4.56172 16.378 4.76636 16.47 5.01862C16.5295 5.38287 16.5295 5.75437 16.47 6.11862C16.4033 6.67805 16.2862 7.2303 16.12 7.76862C15.99 8.21862 15.85 8.99862 15.78 9.36862C15.71 9.73862 15.55 10.7486 15.42 11.1886C15.2275 11.7135 14.9615 12.2084 14.63 12.6586C14.1448 13.1989 13.7437 13.809 13.44 14.4686C13.3653 14.7965 13.3317 15.1324 13.34 15.4686C13.3384 15.7793 13.3788 16.0888 13.46 16.3886C13.0512 16.4322 12.6389 16.4322 12.23 16.3886C11.84 16.3286 11.36 15.5486 11.23 15.3086C11.1657 15.1797 11.034 15.0983 10.89 15.0983C10.746 15.0983 10.6143 15.1797 10.55 15.3086C10.32 15.6886 9.84001 16.3786 9.50001 16.4186C8.83001 16.4986 7.45001 16.4186 6.36001 16.4186C6.36001 16.4186 6.55001 15.4186 6.13001 15.0586C5.71001 14.6986 5.30001 14.2786 4.99001 13.9986L4.16001 13.0786C3.88001 12.7186 3.53001 11.9886 2.92001 11.0786C2.57001 10.5786 1.92001 9.98862 1.64001 9.49862C1.40493 9.10094 1.33664 8.62645 1.45001 8.17862C1.61981 7.58398 2.21067 7.21307 2.82001 7.31862C3.28351 7.34916 3.72193 7.54008 4.06001 7.85862C4.32772 8.09025 4.57837 8.3409 4.81001 8.60862C4.97001 8.79862 5.01001 8.88862 5.19001 9.11862C5.37001 9.34862 5.49001 9.57862 5.40001 9.23862" fill="white"/>
<path d="M5.38001 9.22862C5.28001 8.85862 5.18001 8.37862 4.97001 7.67862C4.76001 6.97862 4.63001 6.81862 4.50001 6.44862C4.37001 6.07862 4.20001 5.72862 4.00001 5.26862C3.81681 4.79867 3.66318 4.31773 3.54001 3.82862C3.45677 3.41642 3.55919 2.98848 3.82001 2.65862C4.17887 2.30844 4.69669 2.17517 5.18001 2.30862C5.55866 2.47421 5.87908 2.74935 6.10001 3.09862C6.39505 3.57028 6.63654 4.0734 6.82001 4.59862C7.10175 5.31825 7.30623 6.06578 7.43001 6.82862L7.52001 7.27862C7.52001 7.27862 7.52001 6.15862 7.52001 6.11862C7.52001 5.11862 7.46001 4.29862 7.52001 3.17862C7.52001 3.04862 7.58001 2.58862 7.60001 2.45862C7.62586 2.02858 7.88213 1.6461 8.27001 1.45862C8.71529 1.25883 9.22473 1.25883 9.67001 1.45862C10.0686 1.63705 10.3347 2.02263 10.36 2.45862C10.36 2.56862 10.45 3.45862 10.45 3.56862C10.45 4.56862 10.45 5.20862 10.45 5.73862C10.45 5.96862 10.45 7.36862 10.45 7.20862C10.4736 5.88908 10.5872 4.57268 10.79 3.26862C10.9085 2.86006 11.196 2.52163 11.58 2.33862C12.0549 2.15156 12.5945 2.24405 12.98 2.57862C13.2682 2.89491 13.4378 3.30131 13.46 3.72862C13.46 4.13862 13.46 4.62862 13.46 4.97862C13.46 5.84862 13.46 6.29862 13.46 7.09862C13.46 7.09862 13.46 7.39862 13.46 7.27862C13.55 6.99862 13.65 6.73862 13.73 6.53862C13.81 6.33862 13.97 5.92862 14.09 5.67862C14.2121 5.44028 14.3491 5.20983 14.5 4.98862C14.6568 4.73435 14.8919 4.53784 15.17 4.42862C15.4205 4.3318 15.6993 4.33977 15.9439 4.45074C16.1884 4.56172 16.378 4.76636 16.47 5.01862C16.5295 5.38287 16.5295 5.75437 16.47 6.11862C16.4033 6.67805 16.2862 7.2303 16.12 7.76862C15.99 8.21862 15.85 8.99862 15.78 9.36862C15.71 9.73862 15.55 10.7486 15.42 11.1886C15.2275 11.7135 14.9615 12.2084 14.63 12.6586C14.1448 13.1989 13.7437 13.809 13.44 14.4686C13.3653 14.7965 13.3317 15.1324 13.34 15.4686C13.3384 15.7793 13.3788 16.0888 13.46 16.3886C13.0512 16.4322 12.6389 16.4322 12.23 16.3886C11.84 16.3286 11.36 15.5486 11.23 15.3086C11.1657 15.1797 11.034 15.0983 10.89 15.0983C10.746 15.0983 10.6143 15.1797 10.55 15.3086C10.32 15.6886 9.84001 16.3786 9.50001 16.4186C8.83001 16.4986 7.45001 16.4186 6.36001 16.4186C6.36001 16.4186 6.55001 15.4186 6.13001 15.0586C5.71001 14.6986 5.30001 14.2786 4.99001 13.9986L4.16001 13.0786C3.88001 12.7186 3.53001 11.9886 2.92001 11.0786C2.57001 10.5786 1.92001 9.98862 1.64001 9.49862C1.40493 9.10094 1.33664 8.62645 1.45001 8.17862C1.61981 7.58398 2.21067 7.21307 2.82001 7.31862C3.28351 7.34916 3.72193 7.54008 4.06001 7.85862C4.32772 8.09025 4.57837 8.3409 4.81001 8.60862C4.97001 8.79862 5.01001 8.88862 5.19001 9.11862C5.37001 9.34862 5.49001 9.57862 5.40001 9.23862" stroke="#0A090B" stroke-width="0.75" stroke-linecap="round" stroke-linejoin="round"/>
<path d="M12.75 13.3895V9.93771C12.75 9.73109 12.5821 9.5636 12.375 9.5636C12.1679 9.5636 12 9.73109 12 9.93771V13.3895C12 13.5961 12.1679 13.7636 12.375 13.7636C12.5821 13.7636 12.75 13.5961 12.75 13.3895Z" fill="#0A090B"/>
<path d="M10.76 13.3893L10.75 9.93575C10.7494 9.72962 10.581 9.56301 10.3739 9.5636C10.1668 9.56419 9.9994 9.73177 10 9.9379L10.01 13.3915C10.0106 13.5976 10.179 13.7642 10.3861 13.7636C10.5932 13.763 10.7606 13.5954 10.76 13.3893Z" fill="#0A090B"/>
<path d="M8.00489 9.9385L8.02489 13.3831C8.0261 13.5917 8.19497 13.7598 8.40208 13.7586C8.60918 13.7574 8.77609 13.5873 8.77488 13.3787L8.75488 9.93408C8.75367 9.72549 8.58479 9.55738 8.37769 9.5586C8.17059 9.55982 8.00368 9.72991 8.00489 9.9385Z" fill="#0A090B"/>
</g>
<defs>
<filter id="filter0_d_1_14309" x="0.221484" y="0.933777" width="17.4682" height="17.6954" filterUnits="userSpaceOnUse" color-interpolation-filters="sRGB">
<feFlood flood-opacity="0" result="BackgroundImageFix"/>
<feColorMatrix in="SourceAlpha" type="matrix" values="0 0 0 0 0 0 0 0 0 0 0 0 0 0 0 0 0 0 127 0" result="hardAlpha"/>
<feOffset dy="1"/>
<feGaussianBlur stdDeviation="0.4"/>
<feColorMatrix type="matrix" values="0 0 0 0 0 0 0 0 0 0 0 0 0 0 0 0 0 0 0.5 0"/>
<feBlend mode="normal" in2="BackgroundImageFix" result="effect1_dropShadow_1_14309"/>
<feBlend mode="normal" in="SourceGraphic" in2="effect1_dropShadow_1_14309" result="shape"/>
</filter>
</defs>
</svg>
