<svg width="24" height="24" viewBox="0 0 24 24" fill="none" xmlns="http://www.w3.org/2000/svg">
<path d="M9.5998 16.8H14.3998M6.79981 21.6H17.1998C18.3044 21.6 19.1998 20.7046 19.1998 19.6V4.39999C19.1998 3.29542 18.3044 2.39999 17.1998 2.39999H6.7998C5.69524 2.39999 4.7998 3.29542 4.7998 4.39999V19.6C4.7998 20.7046 5.69524 21.6 6.79981 21.6ZM14.3998 8.39999C14.3998 9.72548 13.3253 10.8 11.9998 10.8C10.6743 10.8 9.5998 9.72548 9.5998 8.39999C9.5998 7.07451 10.6743 5.99999 11.9998 5.99999C13.3253 5.99999 14.3998 7.07451 14.3998 8.39999Z" stroke="white" stroke-width="2" stroke-linecap="round" stroke-linejoin="round"/>
</svg>
