<svg width="24" height="24" viewBox="0 0 24 24" fill="none" xmlns="http://www.w3.org/2000/svg">
<path d="M19.5824 13.8977C19.7671 13.3772 19.4949 12.8055 18.9744 12.6208C18.4539 12.4361 17.8823 12.7084 17.6976 13.2288L19.5824 13.8977ZM16.6065 19.2939L17.549 19.6283L16.6065 19.2939ZM15.2351 20.4813L15.4312 21.4619L15.2351 20.4813ZM3.26387 22.8756L2.27974 22.6981C2.221 23.0238 2.32725 23.3575 2.5635 23.5894C2.79976 23.8212 3.13542 23.9211 3.45998 23.8561L3.26387 22.8756ZM5.44849 10.7608L6.43262 10.9383L5.44849 10.7608ZM6.70882 9.33297L7.0071 10.2875H7.0071L6.70882 9.33297ZM12.8744 8.4539C13.4016 8.28917 13.6954 7.72829 13.5307 7.20115C13.3659 6.674 12.805 6.38021 12.2779 6.54494L12.8744 8.4539ZM2.77333 21.9519C2.3828 22.3424 2.3828 22.9756 2.77333 23.3661C3.16385 23.7566 3.79701 23.7566 4.18754 23.3661L2.77333 21.9519ZM9.38511 18.1685C9.77563 17.778 9.77563 17.1448 9.38511 16.7543C8.99458 16.3638 8.36142 16.3638 7.97089 16.7543L9.38511 18.1685ZM22.105 9.23195L22.8122 8.52484L22.105 9.23195ZM22.105 10.9645L22.8122 11.6716L22.105 10.9645ZM15.175 4.03438L14.4678 3.32727L15.175 4.03438ZM16.9075 4.03438L16.2004 4.74149L16.9075 4.03438ZM13.0093 7.93256L12.3022 8.63966L13.0093 7.93256ZM13.0093 6.20003L13.7164 6.90714L13.0093 6.20003ZM18.2069 13.1301L18.914 12.423L18.2069 13.1301ZM19.9394 13.1301L19.2323 12.423L19.9394 13.1301ZM2.84438 6.60025C2.84438 7.15254 3.29209 7.60025 3.84438 7.60025C4.39666 7.60025 4.84438 7.15254 4.84438 6.60025L2.84438 6.60025ZM4.84438 1.31189C4.84438 0.759605 4.39666 0.31189 3.84438 0.31189C3.29209 0.31189 2.84438 0.759605 2.84438 1.31189L4.84438 1.31189ZM1.2002 2.95607C0.64791 2.95607 0.200195 3.40379 0.200195 3.95607C0.200195 4.50836 0.647911 4.95607 1.2002 4.95607L1.2002 2.95607ZM6.48856 4.95607C7.04084 4.95607 7.48856 4.50836 7.48856 3.95607C7.48856 3.40379 7.04084 2.95607 6.48856 2.95607V4.95607ZM17.6976 13.2288L15.6641 18.9595L17.549 19.6283L19.5824 13.8977L17.6976 13.2288ZM15.039 19.5007L3.06775 21.895L3.45998 23.8561L15.4312 21.4619L15.039 19.5007ZM4.24799 23.053L6.43262 10.9383L4.46436 10.5834L2.27974 22.6981L4.24799 23.053ZM7.0071 10.2875L12.8744 8.4539L12.2779 6.54494L6.41055 8.37849L7.0071 10.2875ZM6.43262 10.9383C6.48798 10.6313 6.70935 10.3805 7.0071 10.2875L6.41055 8.37849C5.40186 8.69371 4.65191 9.54334 4.46436 10.5834L6.43262 10.9383ZM15.6641 18.9595C15.5655 19.2373 15.3281 19.4429 15.039 19.5007L15.4312 21.4619C16.4107 21.266 17.215 20.5696 17.549 19.6283L15.6641 18.9595ZM4.18754 23.3661L9.38511 18.1685L7.97089 16.7543L2.77333 21.9519L4.18754 23.3661ZM18.914 12.423L13.7164 7.22545L12.3022 8.63966L17.4998 13.8372L18.914 12.423ZM13.7164 6.90714L15.8821 4.74149L14.4678 3.32727L12.3022 5.49293L13.7164 6.90714ZM16.2004 4.74149L21.3979 9.93905L22.8122 8.52484L17.6146 3.32727L16.2004 4.74149ZM21.3979 10.2574L19.2323 12.423L20.6465 13.8372L22.8122 11.6716L21.3979 10.2574ZM21.3979 9.93905C21.4858 10.027 21.4858 10.1695 21.3979 10.2574L22.8122 11.6716C23.6811 10.8026 23.6811 9.39379 22.8122 8.52484L21.3979 9.93905ZM15.8821 4.74149C15.97 4.65359 16.1125 4.65359 16.2004 4.74149L17.6146 3.32727C16.7456 2.45832 15.3368 2.45833 14.4678 3.32727L15.8821 4.74149ZM13.7164 7.22545C13.6285 7.13755 13.6285 6.99504 13.7164 6.90714L12.3022 5.49293C11.4333 6.36187 11.4332 7.77071 12.3022 8.63966L13.7164 7.22545ZM17.4998 13.8372C18.3687 14.7062 19.7776 14.7062 20.6465 13.8372L19.2323 12.423C19.1444 12.5109 19.0019 12.5109 18.914 12.423L17.4998 13.8372ZM9.81824 14.2704C10.3846 13.704 11.3027 13.704 11.8691 14.2704L13.2833 12.8561C11.9359 11.5088 9.75139 11.5088 8.40402 12.8561L9.81824 14.2704ZM11.8691 14.2704C12.4354 14.8367 12.4354 15.7549 11.8691 16.3212L13.2833 17.7354C14.6307 16.388 14.6307 14.2035 13.2833 12.8561L11.8691 14.2704ZM11.8691 16.3212C11.3027 16.8875 10.3846 16.8875 9.81824 16.3212L8.40402 17.7354C9.75139 19.0828 11.9359 19.0828 13.2833 17.7354L11.8691 16.3212ZM9.81824 16.3212C9.25191 15.7549 9.25191 14.8367 9.81824 14.2704L8.40402 12.8561C7.05665 14.2035 7.05665 16.388 8.40402 17.7354L9.81824 16.3212ZM4.84438 6.60025L4.84438 3.95607L2.84438 3.95607L2.84438 6.60025L4.84438 6.60025ZM4.84438 3.95607L4.84438 1.31189L2.84438 1.31189L2.84438 3.95607L4.84438 3.95607ZM1.2002 4.95607L3.84438 4.95607L3.84438 2.95607L1.2002 2.95607L1.2002 4.95607ZM3.84438 4.95607L6.48856 4.95607V2.95607L3.84438 2.95607L3.84438 4.95607Z" fill="white"/>
</svg>
