<svg width="24" height="24" viewBox="0 0 24 24" fill="none" xmlns="http://www.w3.org/2000/svg">
<path d="M17.2959 9.89187L13.404 6M13.404 6L16.8413 2.5592M13.404 6L22.2471 6M19.7889 19.1792C19.7889 19.1792 18.597 20.3499 18.3049 20.6931C17.8291 21.2009 17.2684 21.4407 16.5335 21.4407C16.4628 21.4407 16.3874 21.4407 16.3168 21.436C14.9175 21.3467 13.6172 20.8013 12.642 20.3358C9.97545 19.0476 7.63397 17.2187 5.68824 14.9008C4.08171 12.9684 3.00755 11.1818 2.29616 9.26355C1.85801 8.09285 1.69783 7.18074 1.7685 6.32035C1.81561 5.77026 2.02762 5.31421 2.41865 4.92398L4.02518 3.32073C4.25603 3.10446 4.50101 2.98692 4.74128 2.98692C5.03809 2.98692 5.27836 3.16558 5.42912 3.31603C5.43383 3.32073 5.43854 3.32544 5.44325 3.33014C5.73064 3.59813 6.00389 3.87552 6.29127 4.17172C6.43732 4.32217 6.58808 4.47263 6.73884 4.62778L8.025 5.91131C8.52439 6.40968 8.52439 6.87044 8.025 7.36881C7.88838 7.50515 7.75646 7.6415 7.61984 7.77314C7.2241 8.17748 7.53498 7.86724 7.1251 8.23396C7.11568 8.24337 7.10625 8.24807 7.10154 8.25747C6.69638 8.66181 6.77176 9.05674 6.85656 9.32473C6.86127 9.33884 6.86598 9.35294 6.87069 9.36705C7.20519 10.1757 7.67631 10.9374 8.39242 11.8448L8.39713 11.8495C9.69743 13.448 11.0684 14.694 12.5807 15.6484C12.7739 15.7706 12.9717 15.8694 13.1602 15.9634C13.3298 16.048 13.49 16.1279 13.6266 16.2126C13.6454 16.222 13.6643 16.2361 13.6831 16.2455C13.8433 16.3254 13.9941 16.363 14.1495 16.363C14.5406 16.363 14.7855 16.1185 14.8656 16.0386L15.7891 15.117C15.9493 14.9572 16.2037 14.7644 16.5005 14.7644C16.7926 14.7644 17.0329 14.9478 17.1789 15.1076C17.1836 15.1123 17.1836 15.1123 17.1883 15.117L19.7842 17.7076C20.2695 18.1872 19.7889 19.1792 19.7889 19.1792Z" stroke="white" stroke-width="2" stroke-linecap="round" stroke-linejoin="round"/>
</svg>
