<svg width="26" height="24" viewBox="0 0 26 24" fill="none" xmlns="http://www.w3.org/2000/svg">
<path d="M16.3605 17.9999L12.7605 21.5999M12.7605 21.5999L9.31974 18.1627M12.7605 21.5999V12.7568M1.83267 9.51103C1.83277 8.72817 1.82841 7.80963 1.80866 7.56419C1.78607 6.86867 2.01295 6.30269 2.53264 5.783C3.58521 4.85676 6.06559 3.81258 6.06559 3.81258C6.06559 3.81258 9.31974 2.39995 12.7618 2.40002C16.1459 2.4001 19.351 3.47286 21.2105 4.32624C22.3481 4.84423 23.1063 5.37593 23.6648 6.03428C24.0204 6.45657 24.193 6.92896 24.1924 7.48139L24.173 9.59283C24.1668 10.2584 23.6202 10.7918 22.9547 10.7816L19.9435 10.7356C19.288 10.7256 18.7618 10.1913 18.7618 9.53575V8.30162C18.7618 8.0113 18.555 7.76323 18.2684 7.71665C17.1985 7.54274 14.6121 7.16063 12.7605 7.20003C11.118 7.23497 8.85146 7.5638 7.85992 7.71931C7.57112 7.7646 7.36182 8.01381 7.36182 8.30615V9.51755C7.36182 10.1803 6.82456 10.7176 6.16181 10.7176L3.03626 10.7175C2.37085 10.7175 1.83258 10.1764 1.83267 9.51103Z" stroke="white" stroke-width="2" stroke-linecap="round" stroke-linejoin="round"/>
</svg>
