<svg width="17" height="19" viewBox="0 0 17 19" fill="none" xmlns="http://www.w3.org/2000/svg">
<g filter="url(#filter0_d_1_14298)">
<path d="M4.26987 12.8932C3.98987 12.5332 3.63987 11.8032 3.02987 10.8932C2.67987 10.3932 1.81987 9.44321 1.55987 8.95321C1.37244 8.65544 1.31806 8.29286 1.40987 7.95321C1.56683 7.30742 2.17943 6.87903 2.83987 6.95321C3.35067 7.05582 3.8201 7.30618 4.18987 7.67321C4.44805 7.91638 4.68554 8.18063 4.89987 8.46321C5.05987 8.66321 5.09987 8.74321 5.27987 8.97321C5.45987 9.20321 5.57987 9.43321 5.48987 9.09321C5.41987 8.59321 5.29987 7.75321 5.12987 7.00321C4.99987 6.43321 4.96987 6.34321 4.84987 5.91321C4.72987 5.48321 4.65987 5.12321 4.52987 4.63321C4.41104 4.15178 4.31758 3.66444 4.24987 3.17321C4.12383 2.54491 4.21553 1.89242 4.50987 1.32321C4.85927 0.994578 5.3718 0.907841 5.80987 1.10321C6.25047 1.42855 6.57897 1.88286 6.74987 2.40321C7.01194 3.0436 7.18683 3.71627 7.26987 4.40321C7.42987 5.40321 7.73987 6.86321 7.74987 7.16321C7.74987 6.79321 7.67987 6.01321 7.74987 5.66321C7.81923 5.29833 8.07283 4.99552 8.41987 4.86321C8.71768 4.77183 9.03272 4.75129 9.33987 4.80321C9.64991 4.86802 9.92454 5.04635 10.1099 5.30321C10.3416 5.8866 10.4701 6.50581 10.4899 7.13321C10.5167 6.5838 10.6107 6.03974 10.7699 5.51321C10.937 5.27776 11.181 5.108 11.4599 5.03321C11.7905 4.97276 12.1293 4.97276 12.4599 5.03321C12.731 5.12384 12.9681 5.29472 13.1399 5.52321C13.3516 6.05355 13.4798 6.61355 13.5199 7.18321C13.5199 7.32321 13.5899 6.79321 13.8099 6.44321C13.9242 6.10381 14.2109 5.85118 14.562 5.78048C14.9131 5.70979 15.2752 5.83178 15.512 6.10048C15.7488 6.36919 15.8242 6.74381 15.7099 7.08321C15.7099 7.73321 15.7099 7.70321 15.7099 8.14321C15.7099 8.58321 15.7099 8.97321 15.7099 9.34321C15.6734 9.92839 15.5932 10.51 15.4699 11.0832C15.2958 11.5903 15.0536 12.0714 14.7499 12.5132C14.2643 13.0532 13.8631 13.6634 13.5599 14.3232C13.4846 14.651 13.451 14.987 13.4599 15.3232C13.4589 15.6338 13.4992 15.9432 13.5799 16.2432C13.171 16.2864 12.7587 16.2864 12.3499 16.2432C11.9599 16.1832 11.4799 15.4032 11.3499 15.1632C11.2856 15.0343 11.1539 14.9529 11.0099 14.9529C10.8658 14.9529 10.7342 15.0343 10.6699 15.1632C10.4499 15.5432 9.95987 16.2332 9.61987 16.2732C8.94987 16.3532 7.56987 16.2732 6.47987 16.2732C6.47987 16.2732 6.65987 15.2732 6.24987 14.9132C5.83987 14.5532 5.41987 14.1332 5.10987 13.8532L4.26987 12.8932Z" fill="white"/>
<path fill-rule="evenodd" clip-rule="evenodd" d="M4.26987 12.8932C3.98987 12.5332 3.63987 11.8032 3.02987 10.8932C2.67987 10.3932 1.81987 9.44321 1.55987 8.95321C1.37244 8.65544 1.31806 8.29286 1.40987 7.95321C1.56683 7.30742 2.17943 6.87903 2.83987 6.95321C3.35067 7.05582 3.8201 7.30618 4.18987 7.67321C4.44805 7.91638 4.68554 8.18063 4.89987 8.46321C5.05987 8.66321 5.09987 8.74321 5.27987 8.97321C5.45987 9.20321 5.57987 9.43321 5.48987 9.09321C5.41987 8.59321 5.29987 7.75321 5.12987 7.00321C4.99987 6.43321 4.96987 6.34321 4.84987 5.91321C4.72987 5.48321 4.65987 5.12321 4.52987 4.63321C4.41104 4.15178 4.31758 3.66444 4.24987 3.17321C4.12383 2.54491 4.21553 1.89242 4.50987 1.32321C4.85927 0.994578 5.3718 0.907841 5.80987 1.10321C6.25047 1.42855 6.57897 1.88286 6.74987 2.40321C7.01194 3.0436 7.18683 3.71627 7.26987 4.40321C7.42987 5.40321 7.73987 6.86321 7.74987 7.16321C7.74987 6.79321 7.67987 6.01321 7.74987 5.66321C7.81923 5.29833 8.07283 4.99552 8.41987 4.86321C8.71768 4.77183 9.03272 4.75129 9.33987 4.80321C9.64991 4.86802 9.92454 5.04635 10.1099 5.30321C10.3416 5.8866 10.4701 6.50581 10.4899 7.13321C10.5167 6.5838 10.6107 6.03974 10.7699 5.51321C10.937 5.27776 11.181 5.108 11.4599 5.03321C11.7905 4.97276 12.1293 4.97276 12.4599 5.03321C12.731 5.12384 12.9681 5.29472 13.1399 5.52321C13.3516 6.05355 13.4798 6.61355 13.5199 7.18321C13.5199 7.32321 13.5899 6.79321 13.8099 6.44321C13.9242 6.10381 14.2109 5.85118 14.562 5.78048C14.9131 5.70979 15.2752 5.83178 15.512 6.10048C15.7488 6.36919 15.8242 6.74381 15.7099 7.08321C15.7099 7.73321 15.7099 7.70321 15.7099 8.14321C15.7099 8.58321 15.7099 8.97321 15.7099 9.34321C15.6734 9.92839 15.5932 10.51 15.4699 11.0832C15.2958 11.5903 15.0536 12.0714 14.7499 12.5132C14.2643 13.0532 13.8631 13.6634 13.5599 14.3232C13.4846 14.651 13.451 14.987 13.4599 15.3232C13.4589 15.6338 13.4992 15.9432 13.5799 16.2432C13.171 16.2864 12.7587 16.2864 12.3499 16.2432C11.9599 16.1832 11.4799 15.4032 11.3499 15.1632C11.2856 15.0343 11.1539 14.9529 11.0099 14.9529C10.8658 14.9529 10.7342 15.0343 10.6699 15.1632C10.4499 15.5432 9.95987 16.2332 9.61987 16.2732C8.94987 16.3532 7.56987 16.2732 6.47987 16.2732C6.47987 16.2732 6.65987 15.2732 6.24987 14.9132C5.83987 14.5532 5.41987 14.1332 5.10987 13.8532L4.26987 12.8932Z" stroke="white" stroke-width="0.75" stroke-linecap="round" stroke-linejoin="round"/>
<path d="M12.75 13.4391V9.98733C12.75 9.78071 12.5821 9.61322 12.375 9.61322C12.1679 9.61322 12 9.78071 12 9.98733V13.4391C12 13.6457 12.1679 13.8132 12.375 13.8132C12.5821 13.8132 12.75 13.6457 12.75 13.4391Z" fill="white"/>
<path d="M10.77 13.4378L10.75 9.98429C10.7488 9.77817 10.5799 9.61204 10.3728 9.61323C10.1657 9.61441 9.99881 9.78247 10 9.98859L10.02 13.4421C10.0212 13.6483 10.1901 13.8144 10.3972 13.8132C10.6043 13.812 10.7712 13.644 10.77 13.4378Z" fill="white"/>
<path d="M8.00001 9.99221L8.02001 13.4386C8.02121 13.6467 8.19008 13.8144 8.39719 13.8132C8.60429 13.812 8.7712 13.6423 8.76999 13.4342L8.74999 9.98782C8.74879 9.77972 8.57992 9.61201 8.37281 9.61323C8.16571 9.61444 7.9988 9.78412 8.00001 9.99221Z" fill="white"/>
</g>
<defs>
<filter id="filter0_d_1_14298" x="0.191211" y="0.625" width="16.746" height="17.8588" filterUnits="userSpaceOnUse" color-interpolation-filters="sRGB">
<feFlood flood-opacity="0" result="BackgroundImageFix"/>
<feColorMatrix in="SourceAlpha" type="matrix" values="0 0 0 0 0 0 0 0 0 0 0 0 0 0 0 0 0 0 127 0" result="hardAlpha"/>
<feOffset dy="1"/>
<feGaussianBlur stdDeviation="0.4"/>
<feColorMatrix type="matrix" values="0 0 0 0 0 0 0 0 0 0 0 0 0 0 0 0 0 0 0.5 0"/>
<feBlend mode="normal" in2="BackgroundImageFix" result="effect1_dropShadow_1_14298"/>
<feBlend mode="normal" in="SourceGraphic" in2="effect1_dropShadow_1_14298" result="shape"/>
</filter>
</defs>
</svg>
