<svg width="24" height="24" viewBox="0 0 24 24" fill="none" xmlns="http://www.w3.org/2000/svg">
<path d="M4.7999 9.3953L21.5999 16.8001M21.5999 7.20015L4.7999 14.605M5.9999 9.60015C4.01168 9.60015 2.3999 7.98837 2.3999 6.00015C2.3999 4.01192 4.01168 2.40015 5.9999 2.40015C7.98813 2.40015 9.5999 4.01192 9.5999 6.00015C9.5999 7.98837 7.98813 9.60015 5.9999 9.60015ZM5.9999 21.6001C4.01168 21.6001 2.3999 19.9884 2.3999 18.0001C2.3999 16.0119 4.01168 14.4001 5.9999 14.4001C7.98813 14.4001 9.5999 16.0119 9.5999 18.0001C9.5999 19.9884 7.98813 21.6001 5.9999 21.6001Z" stroke="white" stroke-width="2" stroke-linecap="round" stroke-linejoin="round"/>
</svg>
