<svg width="24" height="24" viewBox="0 0 24 24" fill="none" xmlns="http://www.w3.org/2000/svg">
<path d="M4.7998 5.78757L4.35259 4.89314C4.01381 5.06253 3.7998 5.40879 3.7998 5.78757H4.7998ZM11.9998 21.3876L11.4658 22.2331C11.792 22.4391 12.2076 22.4391 12.5338 22.2331L11.9998 21.3876ZM19.1998 5.78757H20.1998C20.1998 5.40879 19.9858 5.06253 19.647 4.89314L19.1998 5.78757ZM10.3898 2.99255L9.94262 2.09812L10.3898 2.99255ZM13.6098 2.99255L14.057 2.09812L13.6098 2.99255ZM14.6998 11.8877C15.2521 11.8877 15.6998 11.44 15.6998 10.8877C15.6998 10.3354 15.2521 9.88771 14.6998 9.88771V11.8877ZM9.29981 9.88771C8.74752 9.88771 8.29981 10.3354 8.29981 10.8877C8.29981 11.44 8.74752 11.8877 9.29981 11.8877V9.88771ZM10.9998 13.5876C10.9998 14.1399 11.4475 14.5876 11.9998 14.5876C12.5521 14.5876 12.9998 14.1399 12.9998 13.5876H10.9998ZM12.9998 8.18757C12.9998 7.63528 12.5521 7.18757 11.9998 7.18757C11.4475 7.18757 10.9998 7.63528 10.9998 8.18757H12.9998ZM9.94262 2.09812L4.35259 4.89314L5.24702 6.68199L10.837 3.88698L9.94262 2.09812ZM3.7998 5.78757V13.8156H5.7998V5.78757H3.7998ZM3.7998 13.8156C3.7998 15.295 4.66287 16.6972 5.94365 18.0148C7.24487 19.3534 9.12171 20.7527 11.4658 22.2331L12.5338 20.5421C10.2403 19.0937 8.51714 17.7929 7.37776 16.6208C6.21794 15.4276 5.7998 14.5081 5.7998 13.8156H3.7998ZM12.5338 22.2331C14.8387 20.7774 16.7277 19.5253 18.0342 18.2615C19.368 16.9713 20.1998 15.5679 20.1998 13.8156H18.1998C18.1998 14.8352 17.7504 15.7534 16.6436 16.824C15.5095 17.921 13.7985 19.0689 11.4658 20.5421L12.5338 22.2331ZM20.1998 13.8156C20.1998 13.8102 20.1998 13.8047 20.1998 13.7993C20.1998 13.7939 20.1998 13.7884 20.1998 13.783C20.1998 13.7775 20.1998 13.7721 20.1998 13.7666C20.1998 13.7611 20.1998 13.7556 20.1998 13.7501C20.1998 13.7447 20.1998 13.7392 20.1998 13.7337C20.1998 13.7281 20.1998 13.7226 20.1998 13.7171C20.1998 13.7116 20.1998 13.706 20.1998 13.7005C20.1998 13.695 20.1998 13.6894 20.1998 13.6838C20.1998 13.6783 20.1998 13.6727 20.1998 13.6671C20.1998 13.6615 20.1998 13.656 20.1998 13.6504C20.1998 13.6448 20.1998 13.6392 20.1998 13.6335C20.1998 13.6279 20.1998 13.6223 20.1998 13.6167C20.1998 13.611 20.1998 13.6054 20.1998 13.5997C20.1998 13.5941 20.1998 13.5884 20.1998 13.5828C20.1998 13.5771 20.1998 13.5714 20.1998 13.5657C20.1998 13.56 20.1998 13.5544 20.1998 13.5486C20.1998 13.5429 20.1998 13.5372 20.1998 13.5315C20.1998 13.5258 20.1998 13.5201 20.1998 13.5143C20.1998 13.5086 20.1998 13.5029 20.1998 13.4971C20.1998 13.4913 20.1998 13.4856 20.1998 13.4798C20.1998 13.474 20.1998 13.4683 20.1998 13.4625C20.1998 13.4567 20.1998 13.4509 20.1998 13.4451C20.1998 13.4393 20.1998 13.4335 20.1998 13.4277C20.1998 13.4218 20.1998 13.416 20.1998 13.4102C20.1998 13.4043 20.1998 13.3985 20.1998 13.3926C20.1998 13.3868 20.1998 13.3809 20.1998 13.3751C20.1998 13.3692 20.1998 13.3633 20.1998 13.3574C20.1998 13.3516 20.1998 13.3457 20.1998 13.3398C20.1998 13.3339 20.1998 13.328 20.1998 13.322C20.1998 13.3161 20.1998 13.3102 20.1998 13.3043C20.1998 13.2983 20.1998 13.2924 20.1998 13.2865C20.1998 13.2805 20.1998 13.2746 20.1998 13.2686C20.1998 13.2626 20.1998 13.2567 20.1998 13.2507C20.1998 13.2447 20.1998 13.2387 20.1998 13.2327C20.1998 13.2267 20.1998 13.2207 20.1998 13.2147C20.1998 13.2087 20.1998 13.2027 20.1998 13.1967C20.1998 13.1907 20.1998 13.1846 20.1998 13.1786C20.1998 13.1726 20.1998 13.1665 20.1998 13.1605C20.1998 13.1544 20.1998 13.1484 20.1998 13.1423C20.1998 13.1362 20.1998 13.1302 20.1998 13.1241C20.1998 13.118 20.1998 13.1119 20.1998 13.1058C20.1998 13.0997 20.1998 13.0936 20.1998 13.0875C20.1998 13.0814 20.1998 13.0753 20.1998 13.0692C20.1998 13.0631 20.1998 13.0569 20.1998 13.0508C20.1998 13.0447 20.1998 13.0385 20.1998 13.0324C20.1998 13.0262 20.1998 13.0201 20.1998 13.0139C20.1998 13.0077 20.1998 13.0016 20.1998 12.9954C20.1998 12.9892 20.1998 12.983 20.1998 12.9768C20.1998 12.9706 20.1998 12.9644 20.1998 12.9582C20.1998 12.952 20.1998 12.9458 20.1998 12.9396C20.1998 12.9334 20.1998 12.9272 20.1998 12.9209C20.1998 12.9147 20.1998 12.9085 20.1998 12.9022C20.1998 12.896 20.1998 12.8897 20.1998 12.8835C20.1998 12.8772 20.1998 12.8709 20.1998 12.8647C20.1998 12.8584 20.1998 12.8521 20.1998 12.8458C20.1998 12.8396 20.1998 12.8333 20.1998 12.827C20.1998 12.8207 20.1998 12.8144 20.1998 12.8081C20.1998 12.8018 20.1998 12.7955 20.1998 12.7891C20.1998 12.7828 20.1998 12.7765 20.1998 12.7702C20.1998 12.7638 20.1998 12.7575 20.1998 12.7512C20.1998 12.7448 20.1998 12.7385 20.1998 12.7321C20.1998 12.7257 20.1998 12.7194 20.1998 12.713C20.1998 12.7067 20.1998 12.7003 20.1998 12.6939C20.1998 12.6875 20.1998 12.6811 20.1998 12.6747C20.1998 12.6684 20.1998 12.662 20.1998 12.6556C20.1998 12.6492 20.1998 12.6427 20.1998 12.6363C20.1998 12.6299 20.1998 12.6235 20.1998 12.6171C20.1998 12.6107 20.1998 12.6042 20.1998 12.5978C20.1998 12.5913 20.1998 12.5849 20.1998 12.5785C20.1998 12.572 20.1998 12.5656 20.1998 12.5591C20.1998 12.5526 20.1998 12.5462 20.1998 12.5397C20.1998 12.5332 20.1998 12.5268 20.1998 12.5203C20.1998 12.5138 20.1998 12.5073 20.1998 12.5008C20.1998 12.4943 20.1998 12.4878 20.1998 12.4813C20.1998 12.4748 20.1998 12.4683 20.1998 12.4618C20.1998 12.4553 20.1998 12.4488 20.1998 12.4423C20.1998 12.4358 20.1998 12.4292 20.1998 12.4227C20.1998 12.4162 20.1998 12.4096 20.1998 12.4031C20.1998 12.3966 20.1998 12.39 20.1998 12.3835C20.1998 12.3769 20.1998 12.3703 20.1998 12.3638C20.1998 12.3572 20.1998 12.3507 20.1998 12.3441C20.1998 12.3375 20.1998 12.3309 20.1998 12.3244C20.1998 12.3178 20.1998 12.3112 20.1998 12.3046C20.1998 12.298 20.1998 12.2914 20.1998 12.2848C20.1998 12.2782 20.1998 12.2716 20.1998 12.265C20.1998 12.2584 20.1998 12.2518 20.1998 12.2452C20.1998 12.2386 20.1998 12.2319 20.1998 12.2253C20.1998 12.2187 20.1998 12.212 20.1998 12.2054C20.1998 12.1988 20.1998 12.1921 20.1998 12.1855C20.1998 12.1789 20.1998 12.1722 20.1998 12.1655C20.1998 12.1589 20.1998 12.1522 20.1998 12.1456C20.1998 12.1389 20.1998 12.1323 20.1998 12.1256C20.1998 12.1189 20.1998 12.1122 20.1998 12.1056C20.1998 12.0989 20.1998 12.0922 20.1998 12.0855C20.1998 12.0788 20.1998 12.0721 20.1998 12.0654C20.1998 12.0588 20.1998 12.0521 20.1998 12.0454C20.1998 12.0387 20.1998 12.0319 20.1998 12.0252C20.1998 12.0185 20.1998 12.0118 20.1998 12.0051C20.1998 11.9984 20.1998 11.9917 20.1998 11.9849C20.1998 11.9782 20.1998 11.9715 20.1998 11.9647C20.1998 11.958 20.1998 11.9513 20.1998 11.9445C20.1998 11.9378 20.1998 11.9311 20.1998 11.9243C20.1998 11.9176 20.1998 11.9108 20.1998 11.9041C20.1998 11.8973 20.1998 11.8905 20.1998 11.8838C20.1998 11.877 20.1998 11.8703 20.1998 11.8635C20.1998 11.8567 20.1998 11.8499 20.1998 11.8432C20.1998 11.8364 20.1998 11.8296 20.1998 11.8228C20.1998 11.8161 20.1998 11.8093 20.1998 11.8025C20.1998 11.7957 20.1998 11.7889 20.1998 11.7821C20.1998 11.7753 20.1998 11.7685 20.1998 11.7617C20.1998 11.7549 20.1998 11.7481 20.1998 11.7413C20.1998 11.7345 20.1998 11.7277 20.1998 11.7209C20.1998 11.7141 20.1998 11.7072 20.1998 11.7004C20.1998 11.6936 20.1998 11.6868 20.1998 11.68C20.1998 11.6731 20.1998 11.6663 20.1998 11.6595C20.1998 11.6526 20.1998 11.6458 20.1998 11.639C20.1998 11.6321 20.1998 11.6253 20.1998 11.6185C20.1998 11.6116 20.1998 11.6048 20.1998 11.5979C20.1998 11.5911 20.1998 11.5842 20.1998 11.5774C20.1998 11.5705 20.1998 11.5637 20.1998 11.5568C20.1998 11.5499 20.1998 11.5431 20.1998 11.5362C20.1998 11.5294 20.1998 11.5225 20.1998 11.5156C20.1998 11.5088 20.1998 11.5019 20.1998 11.495C20.1998 11.4881 20.1998 11.4813 20.1998 11.4744C20.1998 11.4675 20.1998 11.4606 20.1998 11.4538C20.1998 11.4469 20.1998 11.44 20.1998 11.4331C20.1998 11.4262 20.1998 11.4193 20.1998 11.4124C20.1998 11.4055 20.1998 11.3986 20.1998 11.3918C20.1998 11.3849 20.1998 11.378 20.1998 11.3711C20.1998 11.3642 20.1998 11.3573 20.1998 11.3504C20.1998 11.3435 20.1998 11.3366 20.1998 11.3296C20.1998 11.3227 20.1998 11.3158 20.1998 11.3089C20.1998 11.302 20.1998 11.2951 20.1998 11.2882C20.1998 11.2813 20.1998 11.2743 20.1998 11.2674C20.1998 11.2605 20.1998 11.2536 20.1998 11.2467C20.1998 11.2397 20.1998 11.2328 20.1998 11.2259C20.1998 11.219 20.1998 11.212 20.1998 11.2051C20.1998 11.1982 20.1998 11.1913 20.1998 11.1843C20.1998 11.1774 20.1998 11.1705 20.1998 11.1635C20.1998 11.1566 20.1998 11.1497 20.1998 11.1427C20.1998 11.1358 20.1998 11.1289 20.1998 11.1219C20.1998 11.115 20.1998 11.108 20.1998 11.1011C20.1998 11.0941 20.1998 11.0872 20.1998 11.0803C20.1998 11.0733 20.1998 11.0664 20.1998 11.0594C20.1998 11.0525 20.1998 11.0455 20.1998 11.0386C20.1998 11.0316 20.1998 11.0247 20.1998 11.0177C20.1998 11.0108 20.1998 11.0038 20.1998 10.9969C20.1998 10.9899 20.1998 10.983 20.1998 10.976C20.1998 10.969 20.1998 10.9621 20.1998 10.9551C20.1998 10.9482 20.1998 10.9412 20.1998 10.9343C20.1998 10.9273 20.1998 10.9203 20.1998 10.9134C20.1998 10.9064 20.1998 10.8995 20.1998 10.8925C20.1998 10.8855 20.1998 10.8786 20.1998 10.8716C20.1998 10.8646 20.1998 10.8577 20.1998 10.8507C20.1998 10.8437 20.1998 10.8368 20.1998 10.8298C20.1998 10.8228 20.1998 10.8159 20.1998 10.8089C20.1998 10.8019 20.1998 10.795 20.1998 10.788C20.1998 10.781 20.1998 10.7741 20.1998 10.7671C20.1998 10.7601 20.1998 10.7532 20.1998 10.7462C20.1998 10.7392 20.1998 10.7323 20.1998 10.7253C20.1998 10.7183 20.1998 10.7113 20.1998 10.7044C20.1998 10.6974 20.1998 10.6904 20.1998 10.6835C20.1998 10.6765 20.1998 10.6695 20.1998 10.6626C20.1998 10.6556 20.1998 10.6486 20.1998 10.6416C20.1998 10.6347 20.1998 10.6277 20.1998 10.6207C20.1998 10.6138 20.1998 10.6068 20.1998 10.5998C20.1998 10.5928 20.1998 10.5859 20.1998 10.5789C20.1998 10.5719 20.1998 10.565 20.1998 10.558C20.1998 10.551 20.1998 10.544 20.1998 10.5371C20.1998 10.5301 20.1998 10.5231 20.1998 10.5162C20.1998 10.5092 20.1998 10.5022 20.1998 10.4953C20.1998 10.4883 20.1998 10.4813 20.1998 10.4744C20.1998 10.4674 20.1998 10.4604 20.1998 10.4535C20.1998 10.4465 20.1998 10.4395 20.1998 10.4326C20.1998 10.4256 20.1998 10.4186 20.1998 10.4117C20.1998 10.4047 20.1998 10.3977 20.1998 10.3908C20.1998 10.3838 20.1998 10.3768 20.1998 10.3699C20.1998 10.3629 20.1998 10.356 20.1998 10.349C20.1998 10.342 20.1998 10.3351 20.1998 10.3281C20.1998 10.3212 20.1998 10.3142 20.1998 10.3073C20.1998 10.3003 20.1998 10.2933 20.1998 10.2864C20.1998 10.2794 20.1998 10.2725 20.1998 10.2655C20.1998 10.2586 20.1998 10.2516 20.1998 10.2447C20.1998 10.2377 20.1998 10.2308 20.1998 10.2238C20.1998 10.2169 20.1998 10.2099 20.1998 10.203C20.1998 10.196 20.1998 10.1891 20.1998 10.1821C20.1998 10.1752 20.1998 10.1683 20.1998 10.1613C20.1998 10.1544 20.1998 10.1474 20.1998 10.1405C20.1998 10.1335 20.1998 10.1266 20.1998 10.1197C20.1998 10.1127 20.1998 10.1058 20.1998 10.0989C20.1998 10.0919 20.1998 10.085 20.1998 10.0781C20.1998 10.0711 20.1998 10.0642 20.1998 10.0573C20.1998 10.0504 20.1998 10.0434 20.1998 10.0365C20.1998 10.0296 20.1998 10.0227 20.1998 10.0158C20.1998 10.0088 20.1998 10.0019 20.1998 9.995C20.1998 9.98808 20.1998 9.98116 20.1998 9.97425C20.1998 9.96734 20.1998 9.96043 20.1998 9.95352C20.1998 9.94661 20.1998 9.9397 20.1998 9.93279C20.1998 9.92589 20.1998 9.91898 20.1998 9.91208C20.1998 9.90518 20.1998 9.89828 20.1998 9.89138C20.1998 9.88449 20.1998 9.87759 20.1998 9.8707C20.1998 9.8638 20.1998 9.85691 20.1998 9.85002C20.1998 9.84313 20.1998 9.83625 20.1998 9.82936C20.1998 9.82248 20.1998 9.81559 20.1998 9.80871C20.1998 9.80183 20.1998 9.79496 20.1998 9.78808C20.1998 9.78121 20.1998 9.77433 20.1998 9.76746C20.1998 9.76059 20.1998 9.75372 20.1998 9.74686C20.1998 9.73999 20.1998 9.73313 20.1998 9.72626C20.1998 9.7194 20.1998 9.71255 20.1998 9.70569C20.1998 9.69883 20.1998 9.69198 20.1998 9.68513C20.1998 9.67828 20.1998 9.67143 20.1998 9.66459C20.1998 9.65774 20.1998 9.6509 20.1998 9.64406C20.1998 9.63722 20.1998 9.63038 20.1998 9.62355C20.1998 9.61671 20.1998 9.60988 20.1998 9.60305C20.1998 9.59622 20.1998 9.5894 20.1998 9.58257C20.1998 9.57575 20.1998 9.56893 20.1998 9.56211C20.1998 9.5553 20.1998 9.54848 20.1998 9.54167C20.1998 9.53486 20.1998 9.52805 20.1998 9.52125C20.1998 9.51444 20.1998 9.50764 20.1998 9.50084C20.1998 9.49404 20.1998 9.48725 20.1998 9.48046C20.1998 9.47366 20.1998 9.46687 20.1998 9.46009C20.1998 9.4533 20.1998 9.44652 20.1998 9.43974C20.1998 9.43296 20.1998 9.42619 20.1998 9.41941C20.1998 9.41264 20.1998 9.40587 20.1998 9.39911C20.1998 9.39234 20.1998 9.38558 20.1998 9.37882C20.1998 9.37206 20.1998 9.36531 20.1998 9.35855C20.1998 9.3518 20.1998 9.34505 20.1998 9.33831C20.1998 9.33157 20.1998 9.32482 20.1998 9.31809C20.1998 9.31135 20.1998 9.30462 20.1998 9.29789C20.1998 9.29116 20.1998 9.28443 20.1998 9.27771C20.1998 9.27099 20.1998 9.26427 20.1998 9.25755C20.1998 9.25084 20.1998 9.24413 20.1998 9.23742C20.1998 9.23071 20.1998 9.22401 20.1998 9.21731C20.1998 9.21061 20.1998 9.20392 20.1998 9.19723C20.1998 9.19054 20.1998 9.18385 20.1998 9.17717C20.1998 9.17048 20.1998 9.1638 20.1998 9.15713C20.1998 9.15045 20.1998 9.14378 20.1998 9.13712C20.1998 9.13045 20.1998 9.12379 20.1998 9.11713C20.1998 9.11047 20.1998 9.10382 20.1998 9.09717C20.1998 9.09052 20.1998 9.08388 20.1998 9.07723C20.1998 9.07059 20.1998 9.06396 20.1998 9.05733C20.1998 9.05069 20.1998 9.04407 20.1998 9.03744C20.1998 9.03082 20.1998 9.0242 20.1998 9.01759C20.1998 9.01097 20.1998 9.00436 20.1998 8.99776C20.1998 8.99115 20.1998 8.98455 20.1998 8.97796C20.1998 8.97136 20.1998 8.96477 20.1998 8.95818C20.1998 8.9516 20.1998 8.94502 20.1998 8.93844C20.1998 8.93186 20.1998 8.92529 20.1998 8.91872C20.1998 8.91216 20.1998 8.90559 20.1998 8.89904C20.1998 8.89248 20.1998 8.88593 20.1998 8.87938C20.1998 8.87283 20.1998 8.86629 20.1998 8.85975C20.1998 8.85321 20.1998 8.84668 20.1998 8.84015C20.1998 8.83362 20.1998 8.8271 20.1998 8.82058C20.1998 8.81407 20.1998 8.80755 20.1998 8.80105C20.1998 8.79454 20.1998 8.78804 20.1998 8.78154C20.1998 8.77504 20.1998 8.76855 20.1998 8.76207C20.1998 8.75558 20.1998 8.7491 20.1998 8.74262C20.1998 8.73615 20.1998 8.72968 20.1998 8.72321C20.1998 8.71675 20.1998 8.71029 20.1998 8.70383C20.1998 8.69738 20.1998 8.69093 20.1998 8.68449C20.1998 8.67804 20.1998 8.67161 20.1998 8.66517C20.1998 8.65874 20.1998 8.65232 20.1998 8.6459C20.1998 8.63947 20.1998 8.63306 20.1998 8.62665C20.1998 8.62024 20.1998 8.61384 20.1998 8.60744C20.1998 8.60104 20.1998 8.59465 20.1998 8.58826C20.1998 8.58188 20.1998 8.57549 20.1998 8.56912C20.1998 8.56275 20.1998 8.55638 20.1998 8.55001C20.1998 8.54365 20.1998 8.53729 20.1998 8.53094C20.1998 8.52459 20.1998 8.51825 20.1998 8.51191C20.1998 8.50557 20.1998 8.49923 20.1998 8.49291C20.1998 8.48658 20.1998 8.48026 20.1998 8.47394C20.1998 8.46763 20.1998 8.46132 20.1998 8.45502C20.1998 8.44872 20.1998 8.44242 20.1998 8.43613C20.1998 8.42984 20.1998 8.42356 20.1998 8.41728C20.1998 8.411 20.1998 8.40473 20.1998 8.39847C20.1998 8.3922 20.1998 8.38594 20.1998 8.37969C20.1998 8.37344 20.1998 8.3672 20.1998 8.36096C20.1998 8.35472 20.1998 8.34849 20.1998 8.34226C20.1998 8.33603 20.1998 8.32981 20.1998 8.3236C20.1998 8.31739 20.1998 8.31118 20.1998 8.30498C20.1998 8.29878 20.1998 8.29259 20.1998 8.28641C20.1998 8.28022 20.1998 8.27404 20.1998 8.26787C20.1998 8.2617 20.1998 8.25553 20.1998 8.24937C20.1998 8.24321 20.1998 8.23706 20.1998 8.23092C20.1998 8.22477 20.1998 8.21863 20.1998 8.2125C20.1998 8.20637 20.1998 8.20025 20.1998 8.19413C20.1998 8.18801 20.1998 8.1819 20.1998 8.1758C20.1998 8.1697 20.1998 8.1636 20.1998 8.15751C20.1998 8.15142 20.1998 8.14534 20.1998 8.13927C20.1998 8.13319 20.1998 8.12712 20.1998 8.12106C20.1998 8.115 20.1998 8.10895 20.1998 8.1029C20.1998 8.09686 20.1998 8.09082 20.1998 8.08479C20.1998 8.07876 20.1998 8.07274 20.1998 8.06672C20.1998 8.0607 20.1998 8.05469 20.1998 8.04869C20.1998 8.04269 20.1998 8.0367 20.1998 8.03071C20.1998 8.02473 20.1998 8.01875 20.1998 8.01278C20.1998 8.0068 20.1998 8.00084 20.1998 7.99489C20.1998 7.98893 20.1998 7.98298 20.1998 7.97704C20.1998 7.9711 20.1998 7.96517 20.1998 7.95924C20.1998 7.95332 20.1998 7.9474 20.1998 7.94149C20.1998 7.93558 20.1998 7.92968 20.1998 7.92379C20.1998 7.91789 20.1998 7.91201 20.1998 7.90613C20.1998 7.90025 20.1998 7.89438 20.1998 7.88852C20.1998 7.88266 20.1998 7.8768 20.1998 7.87096C20.1998 7.86511 20.1998 7.85927 20.1998 7.85344C20.1998 7.84761 20.1998 7.84179 20.1998 7.83598C20.1998 7.83017 20.1998 7.82436 20.1998 7.81856C20.1998 7.81277 20.1998 7.80698 20.1998 7.8012C20.1998 7.79542 20.1998 7.78964 20.1998 7.78388C20.1998 7.77812 20.1998 7.77236 20.1998 7.76661C20.1998 7.76087 20.1998 7.75513 20.1998 7.7494C20.1998 7.74367 20.1998 7.73795 20.1998 7.73223C20.1998 7.72652 20.1998 7.72081 20.1998 7.71512C20.1998 7.70942 20.1998 7.70373 20.1998 7.69805C20.1998 7.69238 20.1998 7.68671 20.1998 7.68104C20.1998 7.67538 20.1998 7.66973 20.1998 7.66408C20.1998 7.65844 20.1998 7.6528 20.1998 7.64718C20.1998 7.64155 20.1998 7.63593 20.1998 7.63032C20.1998 7.62472 20.1998 7.61912 20.1998 7.61352C20.1998 7.60793 20.1998 7.60235 20.1998 7.59678C20.1998 7.5912 20.1998 7.58564 20.1998 7.58008C20.1998 7.57453 20.1998 7.56898 20.1998 7.56345C20.1998 7.55791 20.1998 7.55238 20.1998 7.54686C20.1998 7.54134 20.1998 7.53583 20.1998 7.53033C20.1998 7.52483 20.1998 7.51934 20.1998 7.51386C20.1998 7.50837 20.1998 7.5029 20.1998 7.49744C20.1998 7.49197 20.1998 7.48652 20.1998 7.48108C20.1998 7.47563 20.1998 7.4702 20.1998 7.46477C20.1998 7.45934 20.1998 7.45393 20.1998 7.44852C20.1998 7.44311 20.1998 7.43772 20.1998 7.43233C20.1998 7.42694 20.1998 7.42156 20.1998 7.41619C20.1998 7.41082 20.1998 7.40546 20.1998 7.40011C20.1998 7.39476 20.1998 7.38942 20.1998 7.38409C20.1998 7.37876 20.1998 7.37344 20.1998 7.36813C20.1998 7.36282 20.1998 7.35752 20.1998 7.35223C20.1998 7.34694 20.1998 7.34166 20.1998 7.33639C20.1998 7.33112 20.1998 7.32585 20.1998 7.3206C20.1998 7.31535 20.1998 7.31011 20.1998 7.30488C20.1998 7.29965 20.1998 7.29443 20.1998 7.28921C20.1998 7.284 20.1998 7.2788 20.1998 7.27361C20.1998 7.26842 20.1998 7.26324 20.1998 7.25807C20.1998 7.2529 20.1998 7.24774 20.1998 7.24258C20.1998 7.23743 20.1998 7.23229 20.1998 7.22716C20.1998 7.22203 20.1998 7.21691 20.1998 7.21181C20.1998 7.2067 20.1998 7.2016 20.1998 7.19651C20.1998 7.19142 20.1998 7.18634 20.1998 7.18128C20.1998 7.17621 20.1998 7.17115 20.1998 7.1661C20.1998 7.16106 20.1998 7.15602 20.1998 7.151C20.1998 7.14597 20.1998 7.14096 20.1998 7.13595C20.1998 7.13095 20.1998 7.12595 20.1998 7.12097C20.1998 7.11599 20.1998 7.11102 20.1998 7.10606C20.1998 7.10109 20.1998 7.09614 20.1998 7.0912C20.1998 7.08626 20.1998 7.08134 20.1998 7.07642C20.1998 7.0715 20.1998 7.06659 20.1998 7.0617C20.1998 7.0568 20.1998 7.05191 20.1998 7.04704C20.1998 7.04217 20.1998 7.0373 20.1998 7.03245C20.1998 7.0276 20.1998 7.02276 20.1998 7.01793C20.1998 7.0131 20.1998 7.00828 20.1998 7.00347C20.1998 6.99866 20.1998 6.99387 20.1998 6.98908C20.1998 6.98429 20.1998 6.97952 20.1998 6.97476C20.1998 6.97 20.1998 6.96524 20.1998 6.9605C20.1998 6.95576 20.1998 6.95103 20.1998 6.94632C20.1998 6.9416 20.1998 6.93689 20.1998 6.9322C20.1998 6.9275 20.1998 6.92282 20.1998 6.91815C20.1998 6.91348 20.1998 6.90882 20.1998 6.90417C20.1998 6.89952 20.1998 6.89488 20.1998 6.89026C20.1998 6.88563 20.1998 6.88102 20.1998 6.87642C20.1998 6.87181 20.1998 6.86722 20.1998 6.86265C20.1998 6.85807 20.1998 6.8535 20.1998 6.84894C20.1998 6.84439 20.1998 6.83985 20.1998 6.83531C20.1998 6.83078 20.1998 6.82626 20.1998 6.82176C20.1998 6.81725 20.1998 6.81275 20.1998 6.80827C20.1998 6.80379 20.1998 6.79931 20.1998 6.79485C20.1998 6.79039 20.1998 6.78595 20.1998 6.78151C20.1998 6.77708 20.1998 6.77265 20.1998 6.76824C20.1998 6.76383 20.1998 6.75943 20.1998 6.75504C20.1998 6.75066 20.1998 6.74628 20.1998 6.74192C20.1998 6.73756 20.1998 6.73321 20.1998 6.72887C20.1998 6.72453 20.1998 6.7202 20.1998 6.71589C20.1998 6.71158 20.1998 6.70728 20.1998 6.70299C20.1998 6.6987 20.1998 6.69442 20.1998 6.69016C20.1998 6.6859 20.1998 6.68165 20.1998 6.67741C20.1998 6.67317 20.1998 6.66894 20.1998 6.66473C20.1998 6.66052 20.1998 6.65632 20.1998 6.65213C20.1998 6.64794 20.1998 6.64376 20.1998 6.6396C20.1998 6.63544 20.1998 6.63129 20.1998 6.62715C20.1998 6.62302 20.1998 6.61889 20.1998 6.61478C20.1998 6.61067 20.1998 6.60657 20.1998 6.60248C20.1998 6.5984 20.1998 6.59433 20.1998 6.59027C20.1998 6.58621 20.1998 6.58216 20.1998 6.57813C20.1998 6.57409 20.1998 6.57007 20.1998 6.56606C20.1998 6.56205 20.1998 6.55806 20.1998 6.55408C20.1998 6.5501 20.1998 6.54613 20.1998 6.54217C20.1998 6.53822 20.1998 6.53428 20.1998 6.53035C20.1998 6.52642 20.1998 6.5225 20.1998 6.5186C20.1998 6.5147 20.1998 6.51081 20.1998 6.50693C20.1998 6.50306 20.1998 6.4992 20.1998 6.49535C20.1998 6.4915 20.1998 6.48766 20.1998 6.48384C20.1998 6.48002 20.1998 6.47621 20.1998 6.47241C20.1998 6.46862 20.1998 6.46484 20.1998 6.46107C20.1998 6.4573 20.1998 6.45355 20.1998 6.44981C20.1998 6.44607 20.1998 6.44234 20.1998 6.43863C20.1998 6.43491 20.1998 6.43121 20.1998 6.42753C20.1998 6.42384 20.1998 6.42017 20.1998 6.41651C20.1998 6.41285 20.1998 6.40921 20.1998 6.40558C20.1998 6.40195 20.1998 6.39833 20.1998 6.39473C20.1998 6.39113 20.1998 6.38754 20.1998 6.38396C20.1998 6.38039 20.1998 6.37683 20.1998 6.37328C20.1998 6.36974 20.1998 6.3662 20.1998 6.36268C20.1998 6.35917 20.1998 6.35566 20.1998 6.35217C20.1998 6.34868 20.1998 6.3452 20.1998 6.34174C20.1998 6.33828 20.1998 6.33483 20.1998 6.3314C20.1998 6.32797 20.1998 6.32455 20.1998 6.32114C20.1998 6.31774 20.1998 6.31435 20.1998 6.31097C20.1998 6.3076 20.1998 6.30423 20.1998 6.30089C20.1998 6.29754 20.1998 6.29421 20.1998 6.29089C20.1998 6.28757 20.1998 6.28427 20.1998 6.28098C20.1998 6.27769 20.1998 6.27441 20.1998 6.27115C20.1998 6.26789 20.1998 6.26465 20.1998 6.26142C20.1998 6.25819 20.1998 6.25497 20.1998 6.25177C20.1998 6.24857 20.1998 6.24538 20.1998 6.24221C20.1998 6.23904 20.1998 6.23588 20.1998 6.23274C20.1998 6.2296 20.1998 6.22647 20.1998 6.22336C20.1998 6.22025 20.1998 6.21715 20.1998 6.21407C20.1998 6.21099 20.1998 6.20792 20.1998 6.20487C20.1998 6.20182 20.1998 6.19878 20.1998 6.19576C20.1998 6.19273 20.1998 6.18973 20.1998 6.18674C20.1998 6.18374 20.1998 6.18077 20.1998 6.17781C20.1998 6.17484 20.1998 6.1719 20.1998 6.16897C20.1998 6.16604 20.1998 6.16312 20.1998 6.16022C20.1998 6.15732 20.1998 6.15443 20.1998 6.15156C20.1998 6.14869 20.1998 6.14584 20.1998 6.143C20.1998 6.14016 20.1998 6.13734 20.1998 6.13453C20.1998 6.13172 20.1998 6.12893 20.1998 6.12615C20.1998 6.12338 20.1998 6.12061 20.1998 6.11787C20.1998 6.11512 20.1998 6.11239 20.1998 6.10968C20.1998 6.10696 20.1998 6.10426 20.1998 6.10158C20.1998 6.0989 20.1998 6.09623 20.1998 6.09358C20.1998 6.09093 20.1998 6.08829 20.1998 6.08567C20.1998 6.08305 20.1998 6.08045 20.1998 6.07786C20.1998 6.07527 20.1998 6.0727 20.1998 6.07014C20.1998 6.06759 20.1998 6.06505 20.1998 6.06252C20.1998 6.06 20.1998 6.05749 20.1998 6.055C20.1998 6.0525 20.1998 6.05003 20.1998 6.04757C20.1998 6.04511 20.1998 6.04266 20.1998 6.04024C20.1998 6.03781 20.1998 6.0354 20.1998 6.033C20.1998 6.03061 20.1998 6.02823 20.1998 6.02586C20.1998 6.0235 20.1998 6.02115 20.1998 6.01882C20.1998 6.01649 20.1998 6.01418 20.1998 6.01188C20.1998 6.00958 20.1998 6.0073 20.1998 6.00504C20.1998 6.00277 20.1998 6.00053 20.1998 5.9983C20.1998 5.99606 20.1998 5.99385 20.1998 5.99165C20.1998 5.98945 20.1998 5.98727 20.1998 5.9851C20.1998 5.98294 20.1998 5.98079 20.1998 5.97866C20.1998 5.97653 20.1998 5.97441 20.1998 5.97231C20.1998 5.97022 20.1998 5.96813 20.1998 5.96607C20.1998 5.964 20.1998 5.96196 20.1998 5.95993C20.1998 5.95789 20.1998 5.95588 20.1998 5.95388C20.1998 5.95189 20.1998 5.94991 20.1998 5.94794C20.1998 5.94598 20.1998 5.94403 20.1998 5.9421C20.1998 5.94017 20.1998 5.93826 20.1998 5.93637C20.1998 5.93447 20.1998 5.93259 20.1998 5.93073C20.1998 5.92887 20.1998 5.92703 20.1998 5.9252C20.1998 5.92338 20.1998 5.92157 20.1998 5.91977C20.1998 5.91798 20.1998 5.91621 20.1998 5.91445C20.1998 5.91269 20.1998 5.91095 20.1998 5.90923C20.1998 5.90751 20.1998 5.9058 20.1998 5.90411C20.1998 5.90243 20.1998 5.90076 20.1998 5.8991C20.1998 5.89745 20.1998 5.89582 20.1998 5.8942C20.1998 5.89258 20.1998 5.89098 20.1998 5.8894C20.1998 5.88782 20.1998 5.88625 20.1998 5.8847C20.1998 5.88316 20.1998 5.88163 20.1998 5.88012C20.1998 5.8786 20.1998 5.87711 20.1998 5.87563C20.1998 5.87416 20.1998 5.8727 20.1998 5.87126C20.1998 5.86982 20.1998 5.86839 20.1998 5.86699C20.1998 5.86559 20.1998 5.8642 20.1998 5.86283C20.1998 5.86146 20.1998 5.86011 20.1998 5.85878C20.1998 5.85744 20.1998 5.85613 20.1998 5.85483C20.1998 5.85354 20.1998 5.85226 20.1998 5.851C20.1998 5.84974 20.1998 5.84849 20.1998 5.84727C20.1998 5.84605 20.1998 5.84484 20.1998 5.84365C20.1998 5.84246 20.1998 5.84129 20.1998 5.84014C20.1998 5.83899 20.1998 5.83786 20.1998 5.83675C20.1998 5.83563 20.1998 5.83454 20.1998 5.83346C20.1998 5.83238 20.1998 5.83132 20.1998 5.83028C20.1998 5.82924 20.1998 5.82822 20.1998 5.82721C20.1998 5.82621 20.1998 5.82522 20.1998 5.82426C20.1998 5.82329 20.1998 5.82234 20.1998 5.82141C20.1998 5.82049 20.1998 5.81958 20.1998 5.81868C20.1998 5.81779 20.1998 5.81692 20.1998 5.81606C20.1998 5.81521 20.1998 5.81437 20.1998 5.81356C20.1998 5.81274 20.1998 5.81194 20.1998 5.81116C20.1998 5.81039 20.1998 5.80963 20.1998 5.80888C20.1998 5.80814 20.1998 5.80742 20.1998 5.80672C20.1998 5.80601 20.1998 5.80533 20.1998 5.80467C20.1998 5.804 20.1998 5.80335 20.1998 5.80273C20.1998 5.8021 20.1998 5.80149 20.1998 5.8009C20.1998 5.80032 20.1998 5.79975 20.1998 5.7992C20.1998 5.79865 20.1998 5.79812 20.1998 5.7976C20.1998 5.79709 20.1998 5.7966 20.1998 5.79613C20.1998 5.79565 20.1998 5.7952 20.1998 5.79477C20.1998 5.79433 20.1998 5.79392 20.1998 5.79352C20.1998 5.79313 20.1998 5.79275 20.1998 5.7924C20.1998 5.79204 20.1998 5.7917 20.1998 5.79139C20.1998 5.79107 20.1998 5.79077 20.1998 5.79049C20.1998 5.79022 20.1998 5.78996 20.1998 5.78972C20.1998 5.78948 20.1998 5.78926 20.1998 5.78906C20.1998 5.78886 20.1998 5.78868 20.1998 5.78852C20.1998 5.78836 20.1998 5.78823 20.1998 5.78811C20.1998 5.78799 20.1998 5.78789 20.1998 5.78781C20.1998 5.78773 20.1998 5.78767 20.1998 5.78763C20.1998 5.78759 20.1998 5.78757 19.1998 5.78757C18.1998 5.78757 18.1998 5.78759 18.1998 5.78763C18.1998 5.78767 18.1998 5.78773 18.1998 5.78781C18.1998 5.78789 18.1998 5.78799 18.1998 5.78811C18.1998 5.78823 18.1998 5.78836 18.1998 5.78852C18.1998 5.78868 18.1998 5.78886 18.1998 5.78906C18.1998 5.78926 18.1998 5.78948 18.1998 5.78972C18.1998 5.78996 18.1998 5.79022 18.1998 5.79049C18.1998 5.79077 18.1998 5.79107 18.1998 5.79139C18.1998 5.7917 18.1998 5.79204 18.1998 5.7924C18.1998 5.79275 18.1998 5.79313 18.1998 5.79352C18.1998 5.79392 18.1998 5.79433 18.1998 5.79477C18.1998 5.7952 18.1998 5.79565 18.1998 5.79613C18.1998 5.7966 18.1998 5.79709 18.1998 5.7976C18.1998 5.79812 18.1998 5.79865 18.1998 5.7992C18.1998 5.79975 18.1998 5.80032 18.1998 5.8009C18.1998 5.80149 18.1998 5.8021 18.1998 5.80273C18.1998 5.80335 18.1998 5.804 18.1998 5.80467C18.1998 5.80533 18.1998 5.80601 18.1998 5.80672C18.1998 5.80742 18.1998 5.80814 18.1998 5.80888C18.1998 5.80963 18.1998 5.81039 18.1998 5.81116C18.1998 5.81194 18.1998 5.81274 18.1998 5.81356C18.1998 5.81437 18.1998 5.81521 18.1998 5.81606C18.1998 5.81692 18.1998 5.81779 18.1998 5.81868C18.1998 5.81958 18.1998 5.82049 18.1998 5.82141C18.1998 5.82234 18.1998 5.82329 18.1998 5.82426C18.1998 5.82522 18.1998 5.82621 18.1998 5.82721C18.1998 5.82822 18.1998 5.82924 18.1998 5.83028C18.1998 5.83132 18.1998 5.83238 18.1998 5.83346C18.1998 5.83454 18.1998 5.83563 18.1998 5.83675C18.1998 5.83786 18.1998 5.83899 18.1998 5.84014C18.1998 5.84129 18.1998 5.84246 18.1998 5.84365C18.1998 5.84484 18.1998 5.84605 18.1998 5.84727C18.1998 5.84849 18.1998 5.84974 18.1998 5.851C18.1998 5.85226 18.1998 5.85354 18.1998 5.85483C18.1998 5.85613 18.1998 5.85744 18.1998 5.85878C18.1998 5.86011 18.1998 5.86146 18.1998 5.86283C18.1998 5.8642 18.1998 5.86559 18.1998 5.86699C18.1998 5.86839 18.1998 5.86982 18.1998 5.87126C18.1998 5.8727 18.1998 5.87416 18.1998 5.87563C18.1998 5.87711 18.1998 5.8786 18.1998 5.88012C18.1998 5.88163 18.1998 5.88316 18.1998 5.8847C18.1998 5.88625 18.1998 5.88782 18.1998 5.8894C18.1998 5.89098 18.1998 5.89258 18.1998 5.8942C18.1998 5.89582 18.1998 5.89745 18.1998 5.8991C18.1998 5.90076 18.1998 5.90243 18.1998 5.90411C18.1998 5.9058 18.1998 5.90751 18.1998 5.90923C18.1998 5.91095 18.1998 5.91269 18.1998 5.91445C18.1998 5.91621 18.1998 5.91798 18.1998 5.91977C18.1998 5.92157 18.1998 5.92338 18.1998 5.9252C18.1998 5.92703 18.1998 5.92887 18.1998 5.93073C18.1998 5.93259 18.1998 5.93447 18.1998 5.93637C18.1998 5.93826 18.1998 5.94017 18.1998 5.9421C18.1998 5.94403 18.1998 5.94598 18.1998 5.94794C18.1998 5.94991 18.1998 5.95189 18.1998 5.95388C18.1998 5.95588 18.1998 5.95789 18.1998 5.95993C18.1998 5.96196 18.1998 5.964 18.1998 5.96607C18.1998 5.96813 18.1998 5.97022 18.1998 5.97231C18.1998 5.97441 18.1998 5.97653 18.1998 5.97866C18.1998 5.98079 18.1998 5.98294 18.1998 5.9851C18.1998 5.98727 18.1998 5.98945 18.1998 5.99165C18.1998 5.99385 18.1998 5.99606 18.1998 5.9983C18.1998 6.00053 18.1998 6.00277 18.1998 6.00504C18.1998 6.0073 18.1998 6.00958 18.1998 6.01188C18.1998 6.01418 18.1998 6.01649 18.1998 6.01882C18.1998 6.02115 18.1998 6.0235 18.1998 6.02586C18.1998 6.02823 18.1998 6.03061 18.1998 6.033C18.1998 6.0354 18.1998 6.03781 18.1998 6.04024C18.1998 6.04266 18.1998 6.04511 18.1998 6.04757C18.1998 6.05003 18.1998 6.0525 18.1998 6.055C18.1998 6.05749 18.1998 6.06 18.1998 6.06252C18.1998 6.06505 18.1998 6.06759 18.1998 6.07014C18.1998 6.0727 18.1998 6.07527 18.1998 6.07786C18.1998 6.08045 18.1998 6.08305 18.1998 6.08567C18.1998 6.08829 18.1998 6.09093 18.1998 6.09358C18.1998 6.09623 18.1998 6.0989 18.1998 6.10158C18.1998 6.10426 18.1998 6.10696 18.1998 6.10968C18.1998 6.11239 18.1998 6.11512 18.1998 6.11787C18.1998 6.12061 18.1998 6.12338 18.1998 6.12615C18.1998 6.12893 18.1998 6.13172 18.1998 6.13453C18.1998 6.13734 18.1998 6.14016 18.1998 6.143C18.1998 6.14584 18.1998 6.14869 18.1998 6.15156C18.1998 6.15443 18.1998 6.15732 18.1998 6.16022C18.1998 6.16312 18.1998 6.16604 18.1998 6.16897C18.1998 6.1719 18.1998 6.17484 18.1998 6.17781C18.1998 6.18077 18.1998 6.18374 18.1998 6.18674C18.1998 6.18973 18.1998 6.19273 18.1998 6.19576C18.1998 6.19878 18.1998 6.20182 18.1998 6.20487C18.1998 6.20792 18.1998 6.21099 18.1998 6.21407C18.1998 6.21715 18.1998 6.22025 18.1998 6.22336C18.1998 6.22647 18.1998 6.2296 18.1998 6.23274C18.1998 6.23588 18.1998 6.23904 18.1998 6.24221C18.1998 6.24538 18.1998 6.24857 18.1998 6.25177C18.1998 6.25497 18.1998 6.25819 18.1998 6.26142C18.1998 6.26465 18.1998 6.26789 18.1998 6.27115C18.1998 6.27441 18.1998 6.27769 18.1998 6.28098C18.1998 6.28427 18.1998 6.28757 18.1998 6.29089C18.1998 6.29421 18.1998 6.29754 18.1998 6.30089C18.1998 6.30423 18.1998 6.3076 18.1998 6.31097C18.1998 6.31435 18.1998 6.31774 18.1998 6.32114C18.1998 6.32455 18.1998 6.32797 18.1998 6.3314C18.1998 6.33483 18.1998 6.33828 18.1998 6.34174C18.1998 6.3452 18.1998 6.34868 18.1998 6.35217C18.1998 6.35566 18.1998 6.35917 18.1998 6.36268C18.1998 6.3662 18.1998 6.36974 18.1998 6.37328C18.1998 6.37683 18.1998 6.38039 18.1998 6.38396C18.1998 6.38754 18.1998 6.39113 18.1998 6.39473C18.1998 6.39833 18.1998 6.40195 18.1998 6.40558C18.1998 6.40921 18.1998 6.41285 18.1998 6.41651C18.1998 6.42017 18.1998 6.42384 18.1998 6.42753C18.1998 6.43121 18.1998 6.43491 18.1998 6.43863C18.1998 6.44234 18.1998 6.44607 18.1998 6.44981C18.1998 6.45355 18.1998 6.4573 18.1998 6.46107C18.1998 6.46484 18.1998 6.46862 18.1998 6.47241C18.1998 6.47621 18.1998 6.48002 18.1998 6.48384C18.1998 6.48766 18.1998 6.4915 18.1998 6.49535C18.1998 6.4992 18.1998 6.50306 18.1998 6.50693C18.1998 6.51081 18.1998 6.5147 18.1998 6.5186C18.1998 6.5225 18.1998 6.52642 18.1998 6.53035C18.1998 6.53428 18.1998 6.53822 18.1998 6.54217C18.1998 6.54613 18.1998 6.5501 18.1998 6.55408C18.1998 6.55806 18.1998 6.56205 18.1998 6.56606C18.1998 6.57007 18.1998 6.57409 18.1998 6.57813C18.1998 6.58216 18.1998 6.58621 18.1998 6.59027C18.1998 6.59433 18.1998 6.5984 18.1998 6.60248C18.1998 6.60657 18.1998 6.61067 18.1998 6.61478C18.1998 6.61889 18.1998 6.62302 18.1998 6.62715C18.1998 6.63129 18.1998 6.63544 18.1998 6.6396C18.1998 6.64376 18.1998 6.64794 18.1998 6.65213C18.1998 6.65632 18.1998 6.66052 18.1998 6.66473C18.1998 6.66894 18.1998 6.67317 18.1998 6.67741C18.1998 6.68165 18.1998 6.6859 18.1998 6.69016C18.1998 6.69442 18.1998 6.6987 18.1998 6.70299C18.1998 6.70728 18.1998 6.71158 18.1998 6.71589C18.1998 6.7202 18.1998 6.72453 18.1998 6.72887C18.1998 6.73321 18.1998 6.73756 18.1998 6.74192C18.1998 6.74628 18.1998 6.75066 18.1998 6.75504C18.1998 6.75943 18.1998 6.76383 18.1998 6.76824C18.1998 6.77265 18.1998 6.77708 18.1998 6.78151C18.1998 6.78595 18.1998 6.79039 18.1998 6.79485C18.1998 6.79931 18.1998 6.80379 18.1998 6.80827C18.1998 6.81275 18.1998 6.81725 18.1998 6.82176C18.1998 6.82626 18.1998 6.83078 18.1998 6.83531C18.1998 6.83985 18.1998 6.84439 18.1998 6.84894C18.1998 6.8535 18.1998 6.85807 18.1998 6.86265C18.1998 6.86722 18.1998 6.87181 18.1998 6.87642C18.1998 6.88102 18.1998 6.88563 18.1998 6.89026C18.1998 6.89488 18.1998 6.89952 18.1998 6.90417C18.1998 6.90882 18.1998 6.91348 18.1998 6.91815C18.1998 6.92282 18.1998 6.9275 18.1998 6.9322C18.1998 6.93689 18.1998 6.9416 18.1998 6.94632C18.1998 6.95103 18.1998 6.95576 18.1998 6.9605C18.1998 6.96524 18.1998 6.97 18.1998 6.97476C18.1998 6.97952 18.1998 6.98429 18.1998 6.98908C18.1998 6.99387 18.1998 6.99866 18.1998 7.00347C18.1998 7.00828 18.1998 7.0131 18.1998 7.01793C18.1998 7.02276 18.1998 7.0276 18.1998 7.03245C18.1998 7.0373 18.1998 7.04217 18.1998 7.04704C18.1998 7.05191 18.1998 7.0568 18.1998 7.0617C18.1998 7.06659 18.1998 7.0715 18.1998 7.07642C18.1998 7.08134 18.1998 7.08626 18.1998 7.0912C18.1998 7.09614 18.1998 7.10109 18.1998 7.10606C18.1998 7.11102 18.1998 7.11599 18.1998 7.12097C18.1998 7.12595 18.1998 7.13095 18.1998 7.13595C18.1998 7.14096 18.1998 7.14597 18.1998 7.151C18.1998 7.15602 18.1998 7.16106 18.1998 7.1661C18.1998 7.17115 18.1998 7.17621 18.1998 7.18128C18.1998 7.18634 18.1998 7.19142 18.1998 7.19651C18.1998 7.2016 18.1998 7.2067 18.1998 7.21181C18.1998 7.21691 18.1998 7.22203 18.1998 7.22716C18.1998 7.23229 18.1998 7.23743 18.1998 7.24258C18.1998 7.24774 18.1998 7.2529 18.1998 7.25807C18.1998 7.26324 18.1998 7.26842 18.1998 7.27361C18.1998 7.2788 18.1998 7.284 18.1998 7.28921C18.1998 7.29443 18.1998 7.29965 18.1998 7.30488C18.1998 7.31011 18.1998 7.31535 18.1998 7.3206C18.1998 7.32585 18.1998 7.33112 18.1998 7.33639C18.1998 7.34166 18.1998 7.34694 18.1998 7.35223C18.1998 7.35752 18.1998 7.36282 18.1998 7.36813C18.1998 7.37344 18.1998 7.37876 18.1998 7.38409C18.1998 7.38942 18.1998 7.39476 18.1998 7.40011C18.1998 7.40546 18.1998 7.41082 18.1998 7.41619C18.1998 7.42156 18.1998 7.42694 18.1998 7.43233C18.1998 7.43772 18.1998 7.44311 18.1998 7.44852C18.1998 7.45393 18.1998 7.45934 18.1998 7.46477C18.1998 7.4702 18.1998 7.47563 18.1998 7.48108C18.1998 7.48652 18.1998 7.49197 18.1998 7.49744C18.1998 7.5029 18.1998 7.50837 18.1998 7.51386C18.1998 7.51934 18.1998 7.52483 18.1998 7.53033C18.1998 7.53583 18.1998 7.54134 18.1998 7.54686C18.1998 7.55238 18.1998 7.55791 18.1998 7.56345C18.1998 7.56898 18.1998 7.57453 18.1998 7.58008C18.1998 7.58564 18.1998 7.5912 18.1998 7.59678C18.1998 7.60235 18.1998 7.60793 18.1998 7.61352C18.1998 7.61912 18.1998 7.62472 18.1998 7.63032C18.1998 7.63593 18.1998 7.64155 18.1998 7.64718C18.1998 7.6528 18.1998 7.65844 18.1998 7.66408C18.1998 7.66973 18.1998 7.67538 18.1998 7.68104C18.1998 7.68671 18.1998 7.69238 18.1998 7.69805C18.1998 7.70373 18.1998 7.70942 18.1998 7.71512C18.1998 7.72081 18.1998 7.72652 18.1998 7.73223C18.1998 7.73795 18.1998 7.74367 18.1998 7.7494C18.1998 7.75513 18.1998 7.76087 18.1998 7.76661C18.1998 7.77236 18.1998 7.77812 18.1998 7.78388C18.1998 7.78964 18.1998 7.79542 18.1998 7.8012C18.1998 7.80698 18.1998 7.81277 18.1998 7.81856C18.1998 7.82436 18.1998 7.83017 18.1998 7.83598C18.1998 7.84179 18.1998 7.84761 18.1998 7.85344C18.1998 7.85927 18.1998 7.86511 18.1998 7.87096C18.1998 7.8768 18.1998 7.88266 18.1998 7.88852C18.1998 7.89438 18.1998 7.90025 18.1998 7.90613C18.1998 7.91201 18.1998 7.91789 18.1998 7.92379C18.1998 7.92968 18.1998 7.93558 18.1998 7.94149C18.1998 7.9474 18.1998 7.95332 18.1998 7.95924C18.1998 7.96517 18.1998 7.9711 18.1998 7.97704C18.1998 7.98298 18.1998 7.98893 18.1998 7.99489C18.1998 8.00084 18.1998 8.0068 18.1998 8.01278C18.1998 8.01875 18.1998 8.02473 18.1998 8.03071C18.1998 8.0367 18.1998 8.04269 18.1998 8.04869C18.1998 8.05469 18.1998 8.0607 18.1998 8.06672C18.1998 8.07274 18.1998 8.07876 18.1998 8.08479C18.1998 8.09082 18.1998 8.09686 18.1998 8.1029C18.1998 8.10895 18.1998 8.115 18.1998 8.12106C18.1998 8.12712 18.1998 8.13319 18.1998 8.13927C18.1998 8.14534 18.1998 8.15142 18.1998 8.15751C18.1998 8.1636 18.1998 8.1697 18.1998 8.1758C18.1998 8.1819 18.1998 8.18801 18.1998 8.19413C18.1998 8.20025 18.1998 8.20637 18.1998 8.2125C18.1998 8.21863 18.1998 8.22477 18.1998 8.23092C18.1998 8.23706 18.1998 8.24321 18.1998 8.24937C18.1998 8.25553 18.1998 8.2617 18.1998 8.26787C18.1998 8.27404 18.1998 8.28022 18.1998 8.28641C18.1998 8.29259 18.1998 8.29878 18.1998 8.30498C18.1998 8.31118 18.1998 8.31739 18.1998 8.3236C18.1998 8.32981 18.1998 8.33603 18.1998 8.34226C18.1998 8.34849 18.1998 8.35472 18.1998 8.36096C18.1998 8.3672 18.1998 8.37344 18.1998 8.37969C18.1998 8.38594 18.1998 8.3922 18.1998 8.39847C18.1998 8.40473 18.1998 8.411 18.1998 8.41728C18.1998 8.42356 18.1998 8.42984 18.1998 8.43613C18.1998 8.44242 18.1998 8.44872 18.1998 8.45502C18.1998 8.46132 18.1998 8.46763 18.1998 8.47394C18.1998 8.48026 18.1998 8.48658 18.1998 8.49291C18.1998 8.49923 18.1998 8.50557 18.1998 8.51191C18.1998 8.51825 18.1998 8.52459 18.1998 8.53094C18.1998 8.53729 18.1998 8.54365 18.1998 8.55001C18.1998 8.55638 18.1998 8.56275 18.1998 8.56912C18.1998 8.57549 18.1998 8.58188 18.1998 8.58826C18.1998 8.59465 18.1998 8.60104 18.1998 8.60744C18.1998 8.61384 18.1998 8.62024 18.1998 8.62665C18.1998 8.63306 18.1998 8.63947 18.1998 8.6459C18.1998 8.65232 18.1998 8.65874 18.1998 8.66517C18.1998 8.67161 18.1998 8.67804 18.1998 8.68449C18.1998 8.69093 18.1998 8.69738 18.1998 8.70383C18.1998 8.71029 18.1998 8.71675 18.1998 8.72321C18.1998 8.72968 18.1998 8.73615 18.1998 8.74262C18.1998 8.7491 18.1998 8.75558 18.1998 8.76207C18.1998 8.76855 18.1998 8.77504 18.1998 8.78154C18.1998 8.78804 18.1998 8.79454 18.1998 8.80105C18.1998 8.80755 18.1998 8.81407 18.1998 8.82058C18.1998 8.8271 18.1998 8.83362 18.1998 8.84015C18.1998 8.84668 18.1998 8.85321 18.1998 8.85975C18.1998 8.86629 18.1998 8.87283 18.1998 8.87938C18.1998 8.88593 18.1998 8.89248 18.1998 8.89904C18.1998 8.90559 18.1998 8.91216 18.1998 8.91872C18.1998 8.92529 18.1998 8.93186 18.1998 8.93844C18.1998 8.94502 18.1998 8.9516 18.1998 8.95818C18.1998 8.96477 18.1998 8.97136 18.1998 8.97796C18.1998 8.98455 18.1998 8.99115 18.1998 8.99776C18.1998 9.00436 18.1998 9.01097 18.1998 9.01759C18.1998 9.0242 18.1998 9.03082 18.1998 9.03744C18.1998 9.04407 18.1998 9.05069 18.1998 9.05733C18.1998 9.06396 18.1998 9.07059 18.1998 9.07723C18.1998 9.08388 18.1998 9.09052 18.1998 9.09717C18.1998 9.10382 18.1998 9.11047 18.1998 9.11713C18.1998 9.12379 18.1998 9.13045 18.1998 9.13712C18.1998 9.14378 18.1998 9.15045 18.1998 9.15713C18.1998 9.1638 18.1998 9.17048 18.1998 9.17717C18.1998 9.18385 18.1998 9.19054 18.1998 9.19723C18.1998 9.20392 18.1998 9.21061 18.1998 9.21731C18.1998 9.22401 18.1998 9.23071 18.1998 9.23742C18.1998 9.24413 18.1998 9.25084 18.1998 9.25755C18.1998 9.26427 18.1998 9.27099 18.1998 9.27771C18.1998 9.28443 18.1998 9.29116 18.1998 9.29789C18.1998 9.30462 18.1998 9.31135 18.1998 9.31809C18.1998 9.32482 18.1998 9.33157 18.1998 9.33831C18.1998 9.34505 18.1998 9.3518 18.1998 9.35855C18.1998 9.36531 18.1998 9.37206 18.1998 9.37882C18.1998 9.38558 18.1998 9.39234 18.1998 9.39911C18.1998 9.40587 18.1998 9.41264 18.1998 9.41941C18.1998 9.42619 18.1998 9.43296 18.1998 9.43974C18.1998 9.44652 18.1998 9.4533 18.1998 9.46009C18.1998 9.46687 18.1998 9.47366 18.1998 9.48046C18.1998 9.48725 18.1998 9.49404 18.1998 9.50084C18.1998 9.50764 18.1998 9.51444 18.1998 9.52125C18.1998 9.52805 18.1998 9.53486 18.1998 9.54167C18.1998 9.54848 18.1998 9.5553 18.1998 9.56211C18.1998 9.56893 18.1998 9.57575 18.1998 9.58257C18.1998 9.5894 18.1998 9.59622 18.1998 9.60305C18.1998 9.60988 18.1998 9.61671 18.1998 9.62355C18.1998 9.63038 18.1998 9.63722 18.1998 9.64406C18.1998 9.6509 18.1998 9.65774 18.1998 9.66459C18.1998 9.67143 18.1998 9.67828 18.1998 9.68513C18.1998 9.69198 18.1998 9.69883 18.1998 9.70569C18.1998 9.71255 18.1998 9.7194 18.1998 9.72626C18.1998 9.73313 18.1998 9.73999 18.1998 9.74686C18.1998 9.75372 18.1998 9.76059 18.1998 9.76746C18.1998 9.77433 18.1998 9.78121 18.1998 9.78808C18.1998 9.79496 18.1998 9.80183 18.1998 9.80871C18.1998 9.81559 18.1998 9.82248 18.1998 9.82936C18.1998 9.83625 18.1998 9.84313 18.1998 9.85002C18.1998 9.85691 18.1998 9.8638 18.1998 9.8707C18.1998 9.87759 18.1998 9.88449 18.1998 9.89138C18.1998 9.89828 18.1998 9.90518 18.1998 9.91208C18.1998 9.91898 18.1998 9.92589 18.1998 9.93279C18.1998 9.9397 18.1998 9.94661 18.1998 9.95352C18.1998 9.96043 18.1998 9.96734 18.1998 9.97425C18.1998 9.98116 18.1998 9.98808 18.1998 9.995C18.1998 10.0019 18.1998 10.0088 18.1998 10.0158C18.1998 10.0227 18.1998 10.0296 18.1998 10.0365C18.1998 10.0434 18.1998 10.0504 18.1998 10.0573C18.1998 10.0642 18.1998 10.0711 18.1998 10.0781C18.1998 10.085 18.1998 10.0919 18.1998 10.0989C18.1998 10.1058 18.1998 10.1127 18.1998 10.1197C18.1998 10.1266 18.1998 10.1335 18.1998 10.1405C18.1998 10.1474 18.1998 10.1544 18.1998 10.1613C18.1998 10.1683 18.1998 10.1752 18.1998 10.1821C18.1998 10.1891 18.1998 10.196 18.1998 10.203C18.1998 10.2099 18.1998 10.2169 18.1998 10.2238C18.1998 10.2308 18.1998 10.2377 18.1998 10.2447C18.1998 10.2516 18.1998 10.2586 18.1998 10.2655C18.1998 10.2725 18.1998 10.2794 18.1998 10.2864C18.1998 10.2933 18.1998 10.3003 18.1998 10.3073C18.1998 10.3142 18.1998 10.3212 18.1998 10.3281C18.1998 10.3351 18.1998 10.342 18.1998 10.349C18.1998 10.356 18.1998 10.3629 18.1998 10.3699C18.1998 10.3768 18.1998 10.3838 18.1998 10.3908C18.1998 10.3977 18.1998 10.4047 18.1998 10.4117C18.1998 10.4186 18.1998 10.4256 18.1998 10.4326C18.1998 10.4395 18.1998 10.4465 18.1998 10.4535C18.1998 10.4604 18.1998 10.4674 18.1998 10.4744C18.1998 10.4813 18.1998 10.4883 18.1998 10.4953C18.1998 10.5022 18.1998 10.5092 18.1998 10.5162C18.1998 10.5231 18.1998 10.5301 18.1998 10.5371C18.1998 10.544 18.1998 10.551 18.1998 10.558C18.1998 10.565 18.1998 10.5719 18.1998 10.5789C18.1998 10.5859 18.1998 10.5928 18.1998 10.5998C18.1998 10.6068 18.1998 10.6138 18.1998 10.6207C18.1998 10.6277 18.1998 10.6347 18.1998 10.6416C18.1998 10.6486 18.1998 10.6556 18.1998 10.6626C18.1998 10.6695 18.1998 10.6765 18.1998 10.6835C18.1998 10.6904 18.1998 10.6974 18.1998 10.7044C18.1998 10.7113 18.1998 10.7183 18.1998 10.7253C18.1998 10.7323 18.1998 10.7392 18.1998 10.7462C18.1998 10.7532 18.1998 10.7601 18.1998 10.7671C18.1998 10.7741 18.1998 10.781 18.1998 10.788C18.1998 10.795 18.1998 10.8019 18.1998 10.8089C18.1998 10.8159 18.1998 10.8228 18.1998 10.8298C18.1998 10.8368 18.1998 10.8437 18.1998 10.8507C18.1998 10.8577 18.1998 10.8646 18.1998 10.8716C18.1998 10.8786 18.1998 10.8855 18.1998 10.8925C18.1998 10.8995 18.1998 10.9064 18.1998 10.9134C18.1998 10.9203 18.1998 10.9273 18.1998 10.9343C18.1998 10.9412 18.1998 10.9482 18.1998 10.9551C18.1998 10.9621 18.1998 10.969 18.1998 10.976C18.1998 10.983 18.1998 10.9899 18.1998 10.9969C18.1998 11.0038 18.1998 11.0108 18.1998 11.0177C18.1998 11.0247 18.1998 11.0316 18.1998 11.0386C18.1998 11.0455 18.1998 11.0525 18.1998 11.0594C18.1998 11.0664 18.1998 11.0733 18.1998 11.0803C18.1998 11.0872 18.1998 11.0941 18.1998 11.1011C18.1998 11.108 18.1998 11.115 18.1998 11.1219C18.1998 11.1289 18.1998 11.1358 18.1998 11.1427C18.1998 11.1497 18.1998 11.1566 18.1998 11.1635C18.1998 11.1705 18.1998 11.1774 18.1998 11.1843C18.1998 11.1913 18.1998 11.1982 18.1998 11.2051C18.1998 11.212 18.1998 11.219 18.1998 11.2259C18.1998 11.2328 18.1998 11.2397 18.1998 11.2467C18.1998 11.2536 18.1998 11.2605 18.1998 11.2674C18.1998 11.2743 18.1998 11.2813 18.1998 11.2882C18.1998 11.2951 18.1998 11.302 18.1998 11.3089C18.1998 11.3158 18.1998 11.3227 18.1998 11.3296C18.1998 11.3366 18.1998 11.3435 18.1998 11.3504C18.1998 11.3573 18.1998 11.3642 18.1998 11.3711C18.1998 11.378 18.1998 11.3849 18.1998 11.3918C18.1998 11.3986 18.1998 11.4055 18.1998 11.4124C18.1998 11.4193 18.1998 11.4262 18.1998 11.4331C18.1998 11.44 18.1998 11.4469 18.1998 11.4538C18.1998 11.4606 18.1998 11.4675 18.1998 11.4744C18.1998 11.4813 18.1998 11.4881 18.1998 11.495C18.1998 11.5019 18.1998 11.5088 18.1998 11.5156C18.1998 11.5225 18.1998 11.5294 18.1998 11.5362C18.1998 11.5431 18.1998 11.5499 18.1998 11.5568C18.1998 11.5637 18.1998 11.5705 18.1998 11.5774C18.1998 11.5842 18.1998 11.5911 18.1998 11.5979C18.1998 11.6048 18.1998 11.6116 18.1998 11.6185C18.1998 11.6253 18.1998 11.6321 18.1998 11.639C18.1998 11.6458 18.1998 11.6526 18.1998 11.6595C18.1998 11.6663 18.1998 11.6731 18.1998 11.68C18.1998 11.6868 18.1998 11.6936 18.1998 11.7004C18.1998 11.7072 18.1998 11.7141 18.1998 11.7209C18.1998 11.7277 18.1998 11.7345 18.1998 11.7413C18.1998 11.7481 18.1998 11.7549 18.1998 11.7617C18.1998 11.7685 18.1998 11.7753 18.1998 11.7821C18.1998 11.7889 18.1998 11.7957 18.1998 11.8025C18.1998 11.8093 18.1998 11.8161 18.1998 11.8228C18.1998 11.8296 18.1998 11.8364 18.1998 11.8432C18.1998 11.8499 18.1998 11.8567 18.1998 11.8635C18.1998 11.8703 18.1998 11.877 18.1998 11.8838C18.1998 11.8905 18.1998 11.8973 18.1998 11.9041C18.1998 11.9108 18.1998 11.9176 18.1998 11.9243C18.1998 11.9311 18.1998 11.9378 18.1998 11.9445C18.1998 11.9513 18.1998 11.958 18.1998 11.9647C18.1998 11.9715 18.1998 11.9782 18.1998 11.9849C18.1998 11.9917 18.1998 11.9984 18.1998 12.0051C18.1998 12.0118 18.1998 12.0185 18.1998 12.0252C18.1998 12.0319 18.1998 12.0387 18.1998 12.0454C18.1998 12.0521 18.1998 12.0588 18.1998 12.0654C18.1998 12.0721 18.1998 12.0788 18.1998 12.0855C18.1998 12.0922 18.1998 12.0989 18.1998 12.1056C18.1998 12.1122 18.1998 12.1189 18.1998 12.1256C18.1998 12.1323 18.1998 12.1389 18.1998 12.1456C18.1998 12.1522 18.1998 12.1589 18.1998 12.1655C18.1998 12.1722 18.1998 12.1789 18.1998 12.1855C18.1998 12.1921 18.1998 12.1988 18.1998 12.2054C18.1998 12.212 18.1998 12.2187 18.1998 12.2253C18.1998 12.2319 18.1998 12.2386 18.1998 12.2452C18.1998 12.2518 18.1998 12.2584 18.1998 12.265C18.1998 12.2716 18.1998 12.2782 18.1998 12.2848C18.1998 12.2914 18.1998 12.298 18.1998 12.3046C18.1998 12.3112 18.1998 12.3178 18.1998 12.3244C18.1998 12.3309 18.1998 12.3375 18.1998 12.3441C18.1998 12.3507 18.1998 12.3572 18.1998 12.3638C18.1998 12.3703 18.1998 12.3769 18.1998 12.3835C18.1998 12.39 18.1998 12.3966 18.1998 12.4031C18.1998 12.4096 18.1998 12.4162 18.1998 12.4227C18.1998 12.4292 18.1998 12.4358 18.1998 12.4423C18.1998 12.4488 18.1998 12.4553 18.1998 12.4618C18.1998 12.4683 18.1998 12.4748 18.1998 12.4813C18.1998 12.4878 18.1998 12.4943 18.1998 12.5008C18.1998 12.5073 18.1998 12.5138 18.1998 12.5203C18.1998 12.5268 18.1998 12.5332 18.1998 12.5397C18.1998 12.5462 18.1998 12.5526 18.1998 12.5591C18.1998 12.5656 18.1998 12.572 18.1998 12.5785C18.1998 12.5849 18.1998 12.5913 18.1998 12.5978C18.1998 12.6042 18.1998 12.6107 18.1998 12.6171C18.1998 12.6235 18.1998 12.6299 18.1998 12.6363C18.1998 12.6427 18.1998 12.6492 18.1998 12.6556C18.1998 12.662 18.1998 12.6684 18.1998 12.6747C18.1998 12.6811 18.1998 12.6875 18.1998 12.6939C18.1998 12.7003 18.1998 12.7067 18.1998 12.713C18.1998 12.7194 18.1998 12.7257 18.1998 12.7321C18.1998 12.7385 18.1998 12.7448 18.1998 12.7512C18.1998 12.7575 18.1998 12.7638 18.1998 12.7702C18.1998 12.7765 18.1998 12.7828 18.1998 12.7891C18.1998 12.7955 18.1998 12.8018 18.1998 12.8081C18.1998 12.8144 18.1998 12.8207 18.1998 12.827C18.1998 12.8333 18.1998 12.8396 18.1998 12.8458C18.1998 12.8521 18.1998 12.8584 18.1998 12.8647C18.1998 12.8709 18.1998 12.8772 18.1998 12.8835C18.1998 12.8897 18.1998 12.896 18.1998 12.9022C18.1998 12.9085 18.1998 12.9147 18.1998 12.9209C18.1998 12.9272 18.1998 12.9334 18.1998 12.9396C18.1998 12.9458 18.1998 12.952 18.1998 12.9582C18.1998 12.9644 18.1998 12.9706 18.1998 12.9768C18.1998 12.983 18.1998 12.9892 18.1998 12.9954C18.1998 13.0016 18.1998 13.0077 18.1998 13.0139C18.1998 13.0201 18.1998 13.0262 18.1998 13.0324C18.1998 13.0385 18.1998 13.0447 18.1998 13.0508C18.1998 13.0569 18.1998 13.0631 18.1998 13.0692C18.1998 13.0753 18.1998 13.0814 18.1998 13.0875C18.1998 13.0936 18.1998 13.0997 18.1998 13.1058C18.1998 13.1119 18.1998 13.118 18.1998 13.1241C18.1998 13.1302 18.1998 13.1362 18.1998 13.1423C18.1998 13.1484 18.1998 13.1544 18.1998 13.1605C18.1998 13.1665 18.1998 13.1726 18.1998 13.1786C18.1998 13.1846 18.1998 13.1907 18.1998 13.1967C18.1998 13.2027 18.1998 13.2087 18.1998 13.2147C18.1998 13.2207 18.1998 13.2267 18.1998 13.2327C18.1998 13.2387 18.1998 13.2447 18.1998 13.2507C18.1998 13.2567 18.1998 13.2626 18.1998 13.2686C18.1998 13.2746 18.1998 13.2805 18.1998 13.2865C18.1998 13.2924 18.1998 13.2983 18.1998 13.3043C18.1998 13.3102 18.1998 13.3161 18.1998 13.322C18.1998 13.328 18.1998 13.3339 18.1998 13.3398C18.1998 13.3457 18.1998 13.3516 18.1998 13.3574C18.1998 13.3633 18.1998 13.3692 18.1998 13.3751C18.1998 13.3809 18.1998 13.3868 18.1998 13.3926C18.1998 13.3985 18.1998 13.4043 18.1998 13.4102C18.1998 13.416 18.1998 13.4218 18.1998 13.4277C18.1998 13.4335 18.1998 13.4393 18.1998 13.4451C18.1998 13.4509 18.1998 13.4567 18.1998 13.4625C18.1998 13.4683 18.1998 13.474 18.1998 13.4798C18.1998 13.4856 18.1998 13.4913 18.1998 13.4971C18.1998 13.5029 18.1998 13.5086 18.1998 13.5143C18.1998 13.5201 18.1998 13.5258 18.1998 13.5315C18.1998 13.5372 18.1998 13.5429 18.1998 13.5486C18.1998 13.5544 18.1998 13.56 18.1998 13.5657C18.1998 13.5714 18.1998 13.5771 18.1998 13.5828C18.1998 13.5884 18.1998 13.5941 18.1998 13.5997C18.1998 13.6054 18.1998 13.611 18.1998 13.6167C18.1998 13.6223 18.1998 13.6279 18.1998 13.6335C18.1998 13.6392 18.1998 13.6448 18.1998 13.6504C18.1998 13.656 18.1998 13.6615 18.1998 13.6671C18.1998 13.6727 18.1998 13.6783 18.1998 13.6838C18.1998 13.6894 18.1998 13.695 18.1998 13.7005C18.1998 13.706 18.1998 13.7116 18.1998 13.7171C18.1998 13.7226 18.1998 13.7281 18.1998 13.7337C18.1998 13.7392 18.1998 13.7447 18.1998 13.7501C18.1998 13.7556 18.1998 13.7611 18.1998 13.7666C18.1998 13.7721 18.1998 13.7775 18.1998 13.783C18.1998 13.7884 18.1998 13.7939 18.1998 13.7993C18.1998 13.8047 18.1998 13.8102 18.1998 13.8156H20.1998ZM19.647 4.89314L14.057 2.09812L13.1626 3.88698L18.7526 6.68199L19.647 4.89314ZM10.837 3.88698C11.569 3.52099 12.4306 3.52099 13.1626 3.88698L14.057 2.09812C12.762 1.45061 11.2376 1.45061 9.94262 2.09812L10.837 3.88698ZM14.6998 9.88771H11.9998V11.8877H14.6998V9.88771ZM11.9998 9.88771H9.29981V11.8877H11.9998V9.88771ZM12.9998 13.5876V10.8877H10.9998V13.5876H12.9998ZM12.9998 10.8877V8.18757H10.9998V10.8877H12.9998Z" fill="white"/>
</svg>
