<svg width="24" height="24" viewBox="0 0 24 24" fill="none" xmlns="http://www.w3.org/2000/svg">
<path d="M17.8739 16.5474L20.2739 7.45266M15.3476 19.0737H6.75809M3.72651 16.2948L6.12651 7.70529M8.65283 4.92634H17.4949M4.61072 7.45266H7.6423C8.2004 7.45266 8.65283 7.00023 8.65283 6.44213V3.41055C8.65283 2.85245 8.2004 2.40002 7.6423 2.40002H4.61072C4.05262 2.40002 3.6002 2.85245 3.6002 3.41055V6.44213C3.6002 7.00023 4.05262 7.45266 4.61072 7.45266ZM18.7581 7.45266H21.7897C22.3478 7.45266 22.8002 7.00023 22.8002 6.44213V3.41055C22.8002 2.85245 22.3478 2.40002 21.7897 2.40002H18.7581C18.2 2.40002 17.7476 2.85245 17.7476 3.41055V6.44213C17.7476 7.00023 18.2 7.45266 18.7581 7.45266ZM2.21072 21.6H5.2423C5.8004 21.6 6.25283 21.1476 6.25283 20.5895V17.5579C6.25283 16.9998 5.8004 16.5474 5.2423 16.5474H2.21072C1.65262 16.5474 1.2002 16.9998 1.2002 17.5579V20.5895C1.2002 21.1476 1.65262 21.6 2.21072 21.6ZM16.3581 21.6H19.3897C19.9478 21.6 20.4002 21.1476 20.4002 20.5895V17.5579C20.4002 16.9998 19.9478 16.5474 19.3897 16.5474H16.3581C15.8 16.5474 15.3476 16.9998 15.3476 17.5579V20.5895C15.3476 21.1476 15.8 21.6 16.3581 21.6Z" stroke="white" stroke-width="2" stroke-linecap="round"/>
</svg>
