<svg width="24" height="25" viewBox="0 0 24 25" fill="none" xmlns="http://www.w3.org/2000/svg">
<path d="M11.4951 3.02271C11.7017 2.60416 12.2985 2.60416 12.5051 3.02271L15.1791 8.44084C15.2611 8.60704 15.4196 8.72224 15.6031 8.74889L21.5823 9.61773C22.0442 9.68485 22.2286 10.2525 21.8944 10.5783L17.5678 14.7957C17.4351 14.9251 17.3745 15.1115 17.4058 15.2941L18.4272 21.2492C18.5061 21.7093 18.0233 22.0601 17.6101 21.8429L12.2621 19.0312C12.0981 18.945 11.9021 18.945 11.738 19.0312L6.39002 21.8429C5.97689 22.0601 5.49404 21.7093 5.57294 21.2492L6.59432 15.2941C6.62565 15.1115 6.56509 14.9251 6.43236 14.7957L2.10573 10.5783C1.7715 10.2525 1.95594 9.68485 2.41783 9.61773L8.39708 8.74889C8.5805 8.72224 8.73906 8.60704 8.82109 8.44084L11.4951 3.02271Z" stroke="white" stroke-width="2" stroke-linejoin="round"/>
</svg>
