<svg width="24" height="24" viewBox="0 0 24 24" fill="none" xmlns="http://www.w3.org/2000/svg">
<path d="M10.8909 3.17215C11.2718 2.14265 12.728 2.14265 13.1089 3.17215L15.005 8.29629C15.1248 8.61996 15.38 8.87515 15.7036 8.99492L20.8278 10.891C21.8573 11.272 21.8573 12.7281 20.8278 13.109L15.7036 15.0051C15.38 15.1249 15.1248 15.3801 15.005 15.7038L13.1089 20.8279C12.728 21.8574 11.2719 21.8574 10.8909 20.8279L8.9948 15.7038C8.87503 15.3801 8.61984 15.1249 8.29617 15.0051L3.17203 13.109C2.14253 12.7281 2.14253 11.272 3.17203 10.891L8.29616 8.99492C8.61984 8.87515 8.87503 8.61996 8.9948 8.29629L10.8909 3.17215Z" stroke="white" stroke-width="2" stroke-linejoin="round"/>
</svg>
