<svg width="24" height="24" viewBox="0 0 24 24" fill="none" xmlns="http://www.w3.org/2000/svg">
<path d="M18.8566 20.2001C19.4089 20.2001 19.8566 19.7524 19.8566 19.2001C19.8566 18.6478 19.4089 18.2001 18.8566 18.2001V20.2001ZM5.14269 18.2001C4.59041 18.2001 4.14269 18.6478 4.14269 19.2001C4.14269 19.7524 4.59041 20.2001 5.14269 20.2001V18.2001ZM2.3999 13.9018C1.84762 13.9018 1.3999 14.3496 1.3999 14.9018C1.3999 15.4541 1.84762 15.9018 2.3999 15.9018V13.9018ZM21.5994 15.9018C22.1517 15.9018 22.5994 15.4541 22.5994 14.9018C22.5994 14.3496 22.1517 13.9018 21.5994 13.9018V15.9018ZM4.24514 12.0483C4.70467 12.3546 5.32554 12.2304 5.63189 11.7709C5.93825 11.3114 5.81407 10.6905 5.35454 10.3842L4.24514 12.0483ZM3.29745 9.01277C2.83792 8.70642 2.21705 8.8306 1.9107 9.29013C1.60435 9.74965 1.72852 10.3705 2.18805 10.6769L3.29745 9.01277ZM8.10333 7.45955C8.34812 7.95462 8.94789 8.15752 9.44297 7.91273C9.93804 7.66795 10.1409 7.06817 9.89615 6.5731L8.10333 7.45955ZM8.80035 4.35689C8.55557 3.86181 7.95579 3.65892 7.46072 3.9037C6.96564 4.14849 6.76275 4.74827 7.00754 5.24334L8.80035 4.35689ZM13.7906 6.30226C13.4843 6.76179 13.6084 7.38266 14.068 7.68901C14.5275 7.99536 15.1484 7.87119 15.4547 7.41166L13.7906 6.30226ZM16.8261 5.35457C17.1325 4.89504 17.0083 4.27417 16.5488 3.96782C16.0892 3.66146 15.4684 3.78564 15.162 4.24517L16.8261 5.35457ZM21.8021 10.7412C22.2972 10.4964 22.5001 9.89667 22.2553 9.4016C22.0105 8.90653 21.4107 8.70363 20.9156 8.94842L21.8021 10.7412ZM18.6994 10.0442C18.2043 10.289 18.0015 10.8888 18.2462 11.3838C18.491 11.8789 19.0908 12.0818 19.5859 11.837L18.6994 10.0442ZM18.8566 18.2001H5.14269V20.2001H18.8566V18.2001ZM2.3999 15.9018H21.5994V13.9018H2.3999V15.9018ZM8.19979 14.9018C8.19979 12.8032 9.90105 11.102 11.9997 11.102V9.10196C8.79648 9.10196 6.19979 11.6987 6.19979 14.9018H8.19979ZM11.9997 11.102C14.0983 11.102 15.7996 12.8032 15.7996 14.9018H17.7996C17.7996 11.6987 15.2029 9.10196 11.9997 9.10196V11.102ZM5.35454 10.3842L3.29745 9.01277L2.18805 10.6769L4.24514 12.0483L5.35454 10.3842ZM9.89615 6.5731L8.80035 4.35689L7.00754 5.24334L8.10333 7.45955L9.89615 6.5731ZM15.4547 7.41166L16.8261 5.35457L15.162 4.24517L13.7906 6.30226L15.4547 7.41166ZM20.9156 8.94842L18.6994 10.0442L19.5859 11.837L21.8021 10.7412L20.9156 8.94842Z" fill="white"/>
</svg>
