<svg width="24" height="24" viewBox="0 0 24 24" fill="none" xmlns="http://www.w3.org/2000/svg">
<path d="M6.5998 13.9528L7.1719 14.773C7.44002 14.586 7.5998 14.2797 7.5998 13.9528H6.5998ZM11.3998 13.9528H10.3998C10.3998 14.2373 10.5209 14.5083 10.7329 14.698L11.3998 13.9528ZM8.9998 16.4C8.44752 16.4 7.9998 16.8477 7.9998 17.4C7.9998 17.9523 8.44752 18.4 8.9998 18.4V16.4ZM9.05605 18.4C9.60834 18.4 10.0561 17.9523 10.0561 17.4C10.0561 16.8477 9.60834 16.4 9.05605 16.4V18.4ZM12.1998 17.4C12.1998 19.1673 10.7671 20.6 8.9998 20.6V22.6C11.8717 22.6 14.1998 20.2719 14.1998 17.4H12.1998ZM8.9998 20.6C7.23249 20.6 5.7998 19.1673 5.7998 17.4H3.7998C3.7998 20.2719 6.12792 22.6 8.9998 22.6V20.6ZM5.7998 17.4C5.7998 16.3134 6.34044 15.353 7.1719 14.773L6.02771 13.1327C4.68299 14.0706 3.7998 15.6321 3.7998 17.4H5.7998ZM10.7329 14.698C11.0777 15.0066 11.4594 15.4703 11.7501 15.9879C12.046 16.515 12.1998 17.0123 12.1998 17.4H14.1998C14.1998 16.5438 13.8832 15.7021 13.494 15.0088C13.0995 14.3061 12.5811 13.6681 12.0667 13.2077L10.7329 14.698ZM10.3998 4.80002V13.9528H12.3998V4.80002H10.3998ZM7.5998 13.9528V4.79846H5.5998V13.9528H7.5998ZM8.9998 3.40002C9.773 3.40002 10.3998 4.02683 10.3998 4.80002H12.3998C12.3998 2.92226 10.8776 1.40002 8.9998 1.40002V3.40002ZM8.9998 1.40002C7.12289 1.40002 5.5998 2.91984 5.5998 4.79846H7.5998C7.5998 4.02611 8.22575 3.40002 8.9998 3.40002V1.40002ZM8.9998 18.4H9.05605V16.4H8.9998V18.4ZM18.1998 7.20002C18.1998 7.97322 17.573 8.60002 16.7998 8.60002V10.6C18.6776 10.6 20.1998 9.07779 20.1998 7.20002H18.1998ZM16.7998 8.60002C16.0266 8.60002 15.3998 7.97322 15.3998 7.20002H13.3998C13.3998 9.07779 14.922 10.6 16.7998 10.6V8.60002ZM15.3998 7.20002C15.3998 6.42683 16.0266 5.80002 16.7998 5.80002V3.80002C14.922 3.80002 13.3998 5.32226 13.3998 7.20002H15.3998ZM16.7998 5.80002C17.573 5.80002 18.1998 6.42683 18.1998 7.20002H20.1998C20.1998 5.32226 18.6776 3.80002 16.7998 3.80002V5.80002Z" fill="white"/>
</svg>
