<svg width="24" height="24" viewBox="0 0 24 24" fill="none" xmlns="http://www.w3.org/2000/svg">
<path d="M8.4002 17.4H8.45645M14.5502 11.25L16.8002 9.00002M16.8002 9.00002L19.0502 11.25M16.8002 9.00002V5.40002M16.8002 9.00002L13.8002 7.50002M16.8002 9.00002L19.8002 7.50002M12.6002 17.4C12.6002 19.7196 10.7198 21.6 8.4002 21.6C6.0806 21.6 4.2002 19.7196 4.2002 17.4C4.2002 15.9728 4.9121 14.7118 6.0002 13.9528V4.79846C6.0002 3.47297 7.07471 2.40002 8.4002 2.40002C9.72568 2.40002 10.8002 3.47454 10.8002 4.80002V13.9528C11.6594 14.7219 12.6002 16.1561 12.6002 17.4Z" stroke="white" stroke-width="2" stroke-linecap="round" stroke-linejoin="round"/>
</svg>
