<svg width="24" height="24" viewBox="0 0 24 24" fill="none" xmlns="http://www.w3.org/2000/svg">
<path d="M19.0736 16.5474V7.45266M16.5473 19.0737H7.9578M4.92622 16.2948V7.70529M7.45253 4.92634H16.2946M3.41043 7.45266H6.44201C7.00011 7.45266 7.45253 7.00023 7.45253 6.44213V3.41055C7.45253 2.85245 7.00011 2.40002 6.44201 2.40002H3.41043C2.85233 2.40002 2.3999 2.85245 2.3999 3.41055V6.44213C2.3999 7.00023 2.85233 7.45266 3.41043 7.45266ZM17.5578 7.45266H20.5894C21.1475 7.45266 21.5999 7.00023 21.5999 6.44213V3.41055C21.5999 2.85245 21.1475 2.40002 20.5894 2.40002H17.5578C16.9997 2.40002 16.5473 2.85245 16.5473 3.41055V6.44213C16.5473 7.00023 16.9997 7.45266 17.5578 7.45266ZM3.41043 21.6H6.44201C7.00011 21.6 7.45253 21.1476 7.45253 20.5895V17.5579C7.45253 16.9998 7.00011 16.5474 6.44201 16.5474H3.41043C2.85233 16.5474 2.3999 16.9998 2.3999 17.5579V20.5895C2.3999 21.1476 2.85233 21.6 3.41043 21.6ZM17.5578 21.6H20.5894C21.1475 21.6 21.5999 21.1476 21.5999 20.5895V17.5579C21.5999 16.9998 21.1475 16.5474 20.5894 16.5474H17.5578C16.9997 16.5474 16.5473 16.9998 16.5473 17.5579V20.5895C16.5473 21.1476 16.9997 21.6 17.5578 21.6Z" stroke="white" stroke-width="2" stroke-linecap="round"/>
</svg>
