<svg width="24" height="24" viewBox="0 0 24 24" fill="none" xmlns="http://www.w3.org/2000/svg">
<path d="M12.8725 12.6752L10.4494 16.8721M17.2669 3.91275C15.2146 5.16499 11.0636 8.44037 10.8786 11.524M18.2638 4.4883C18.251 6.91806 17.5673 12.1952 14.9347 13.8658M1.7998 19.1897L4.33326 18.0752C5.8813 17.3941 7.58698 17.1525 9.26327 17.3768L9.34085 17.3871C11.0429 17.6148 12.6475 18.3139 13.9733 19.4053L15.9998 21.0736M6.66602 9.09186L19.0789 16.2584C19.781 16.6638 20.6787 16.4232 21.084 15.7212C23.3809 11.7428 22.0179 6.6557 18.0395 4.35879L17.4911 4.04219C13.5128 1.74528 8.42565 3.10837 6.12874 7.08673C5.72341 7.7888 5.96395 8.68652 6.66602 9.09186Z" stroke="white" stroke-width="2" stroke-linecap="round" stroke-linejoin="round"/>
</svg>
