<svg width="24" height="24" viewBox="0 0 24 24" fill="none" xmlns="http://www.w3.org/2000/svg">
<path d="M15.863 18.0412L14.9891 20.6629C14.922 20.8643 14.7335 21.0001 14.5213 21.0001H9.31435C9.10208 21.0001 8.91363 20.8643 8.8465 20.6629L7.9726 18.0412M7.9726 5.95903L8.8465 3.33732C8.91363 3.13595 9.10208 3.00012 9.31435 3.00012H14.5213C14.7335 3.00012 14.922 3.13595 14.9891 3.33732L15.863 5.95903M7.47945 18.0412H16.3562C17.1732 18.0412 17.8356 17.3788 17.8356 16.5618V7.68505C17.8356 6.86797 17.1732 6.2056 16.3562 6.2056H7.47945C6.66237 6.2056 6 6.86797 6 7.68505V16.5618C6 17.3788 6.66237 18.0412 7.47945 18.0412Z" stroke="white" stroke-width="2" stroke-linecap="round"/>
</svg>
